<svg xmlns="http://www.w3.org/2000/svg" xmlns:xlink="http://www.w3.org/1999/xlink" width="44" zoomAndPan="magnify" viewBox="0 0 33 32.999998" height="44" preserveAspectRatio="xMidYMid meet" version="1.0"><defs><g/><clipPath id="697215c158"><path d="M 21 3 L 27 3 L 27 8 L 21 8 Z M 21 3 " clip-rule="nonzero"/></clipPath><clipPath id="b04d3c0fd3"><path d="M 21.613281 2.972656 L 26.625 3.648438 L 25.945312 8.660156 L 20.9375 7.984375 Z M 21.613281 2.972656 " clip-rule="nonzero"/></clipPath><clipPath id="ba83dd173a"><path d="M 21.613281 2.972656 L 26.625 3.648438 L 25.945312 8.660156 L 20.9375 7.984375 Z M 21.613281 2.972656 " clip-rule="nonzero"/></clipPath><clipPath id="120dbc0e33"><path d="M 1 7.222656 L 30.902344 7.222656 L 30.902344 28.714844 L 1 28.714844 Z M 1 7.222656 " clip-rule="nonzero"/></clipPath><clipPath id="09c454ef6a"><path d="M 16 0 L 23 0 L 23 7 L 16 7 Z M 16 0 " clip-rule="nonzero"/></clipPath><clipPath id="53402dca34"><path d="M 16.449219 0 L 23.132812 0.902344 L 22.230469 7.585938 L 15.546875 6.683594 Z M 16.449219 0 " clip-rule="nonzero"/></clipPath><clipPath id="9dad37357f"><path d="M 16.449219 0 L 23.132812 0.902344 L 22.230469 7.585938 L 15.546875 6.683594 Z M 16.449219 0 " clip-rule="nonzero"/></clipPath></defs><g clip-path="url(#697215c158)"><g clip-path="url(#b04d3c0fd3)"><g clip-path="url(#ba83dd173a)"><path fill="#4f89b7" d="M 23.953125 3.824219 L 24.355469 5.007812 L 25.703125 5.085938 L 24.574219 6.046875 L 24.664062 7.347656 L 23.5625 6.757812 L 22.269531 7.484375 L 22.71875 6.160156 L 21.828125 5.304688 L 23.210938 5.078125 Z M 24.0625 3.339844 L 24.554688 4.78125 L 26.203125 4.878906 C 26.230469 4.878906 26.25 4.902344 26.25 4.929688 C 26.246094 4.945312 26.242188 4.960938 26.230469 4.96875 L 24.839844 6.144531 L 24.953125 7.742188 C 24.953125 7.769531 24.933594 7.792969 24.90625 7.796875 C 24.894531 7.796875 24.886719 7.792969 24.875 7.789062 L 23.53125 7.066406 L 21.945312 7.957031 C 21.921875 7.96875 21.890625 7.960938 21.875 7.9375 C 21.867188 7.925781 21.867188 7.910156 21.871094 7.894531 L 22.421875 6.277344 L 21.335938 5.234375 C 21.316406 5.214844 21.316406 5.183594 21.335938 5.164062 C 21.34375 5.15625 21.351562 5.152344 21.363281 5.148438 L 23.0625 4.871094 L 23.972656 3.328125 C 23.988281 3.304688 24.015625 3.296875 24.042969 3.3125 C 24.050781 3.316406 24.058594 3.328125 24.0625 3.339844 Z M 24.46875 4.84375 L 24.003906 3.472656 L 23.136719 4.941406 C 23.128906 4.953125 23.117188 4.964844 23.101562 4.964844 L 21.480469 5.230469 L 22.511719 6.222656 C 22.527344 6.238281 22.535156 6.257812 22.527344 6.28125 L 22.011719 7.804688 L 23.503906 6.964844 C 23.519531 6.957031 23.535156 6.957031 23.550781 6.964844 L 24.847656 7.65625 L 24.738281 6.128906 C 24.734375 6.113281 24.742188 6.09375 24.753906 6.082031 L 26.070312 4.972656 L 24.515625 4.878906 C 24.496094 4.878906 24.476562 4.867188 24.46875 4.84375 Z M 23.820312 4.796875 L 24.019531 5.375 L 24.679688 5.414062 L 24.125 5.886719 L 24.171875 6.523438 L 23.628906 6.234375 L 22.996094 6.589844 L 23.214844 5.941406 L 22.78125 5.523438 L 23.457031 5.410156 Z M 23.820312 4.796875 " fill-opacity="1" fill-rule="evenodd"/></g></g></g><g clip-path="url(#120dbc0e33)"><path fill="#4f89b7" d="M 29.832031 11.203125 C 28.734375 9.085938 25.394531 8.449219 21.179688 9.199219 C 19.566406 8.050781 17.773438 7.425781 15.796875 7.316406 C 15.507812 7.265625 15.21875 7.242188 14.925781 7.242188 L 14.832031 7.242188 C 13.539062 7.265625 12.023438 7.691406 10.574219 8.441406 C 10.472656 8.492188 10.371094 8.550781 10.273438 8.601562 L 10.242188 8.621094 L 10.210938 8.636719 C 9.921875 8.808594 9.648438 8.972656 9.367188 9.15625 L 9.335938 9.179688 C 8.488281 9.734375 7.75 10.414062 7.128906 11.21875 C 6.925781 11.492188 6.753906 11.78125 6.609375 12.089844 C 6.367188 12.476562 6.152344 12.878906 5.964844 13.296875 L 5.886719 13.46875 C 5.328125 14.769531 5.046875 16.128906 5.050781 17.542969 C 1.992188 20.558594 0.5625 23.675781 1.664062 25.796875 C 2.945312 28.265625 7.277344 28.726562 12.488281 27.3125 C 13.398438 27.570312 14.324219 27.699219 15.273438 27.699219 C 16.167969 27.699219 17.050781 27.582031 17.914062 27.347656 C 18.78125 27.113281 19.601562 26.773438 20.375 26.320312 C 21.148438 25.871094 21.851562 25.328125 22.484375 24.691406 C 23.117188 24.054688 23.652344 23.347656 24.097656 22.570312 C 24.402344 22.03125 24.65625 21.472656 24.863281 20.886719 C 28.996094 17.453125 31.101562 13.664062 29.832031 11.203125 Z M 20.992188 9.253906 C 21.285156 9.460938 21.570312 9.679688 21.84375 9.917969 C 21.5625 9.742188 21.277344 9.589844 20.984375 9.445312 C 20.984375 9.378906 20.984375 9.316406 20.984375 9.253906 Z M 22.496094 10.539062 C 22.605469 10.65625 22.722656 10.78125 22.84375 10.914062 C 22.875 11.324219 22.851562 11.726562 22.777344 12.132812 C 22.558594 11.914062 22.335938 11.710938 22.113281 11.527344 C 21.6875 11.179688 21.238281 10.867188 20.761719 10.59375 C 20.867188 10.273438 20.9375 9.945312 20.972656 9.605469 C 21.503906 9.875 22.011719 10.1875 22.488281 10.539062 Z M 23.003906 11.113281 C 23.457031 11.667969 23.847656 12.261719 24.179688 12.894531 C 24.375 13.273438 24.546875 13.660156 24.699219 14.058594 C 24.679688 14.234375 24.644531 14.425781 24.601562 14.621094 C 24.148438 13.753906 23.585938 12.972656 22.910156 12.269531 C 22.984375 11.886719 23.011719 11.503906 22.996094 11.113281 Z M 8.3125 24.511719 C 8.140625 24.261719 7.992188 24.003906 7.847656 23.746094 C 8.460938 23.945312 9.085938 24.070312 9.726562 24.121094 C 9.792969 24.230469 9.863281 24.335938 9.933594 24.441406 C 9.390625 24.5 8.851562 24.519531 8.308594 24.507812 Z M 14.25 9.15625 L 14.449219 9.15625 C 14.398438 9.351562 14.324219 9.53125 14.21875 9.703125 C 13.648438 9.601562 13.074219 9.535156 12.496094 9.507812 C 12.535156 9.425781 12.5625 9.34375 12.574219 9.253906 C 13.128906 9.1875 13.6875 9.15625 14.25 9.15625 Z M 21.207031 19.71875 C 20.925781 19.9375 20.632812 20.148438 20.328125 20.359375 C 19.925781 19.488281 19.472656 18.644531 18.964844 17.828125 C 19.636719 17.304688 20.257812 16.726562 20.824219 16.089844 C 21.078125 16.429688 21.304688 16.765625 21.507812 17.09375 C 21.8125 17.589844 22.082031 18.101562 22.320312 18.632812 C 21.96875 19.015625 21.597656 19.375 21.207031 19.71875 Z M 10.023438 10.550781 C 10.070312 10.59375 10.121094 10.628906 10.183594 10.652344 L 10.242188 10.675781 L 10.257812 10.675781 C 9.964844 11.148438 9.703125 11.636719 9.472656 12.140625 C 9.273438 12.125 9.078125 12.082031 8.890625 12.007812 C 9.238281 11.496094 9.613281 11.011719 10.023438 10.550781 Z M 11.003906 10.632812 C 11.019531 10.859375 11.054688 11.300781 11.125 11.90625 C 10.90625 11.976562 10.683594 12.035156 10.457031 12.078125 C 10.578125 11.429688 10.699219 10.953125 10.769531 10.6875 C 10.847656 10.675781 10.925781 10.660156 11.003906 10.636719 Z M 11.511719 10.425781 L 12.082031 11.519531 C 11.824219 11.652344 11.558594 11.769531 11.285156 11.867188 C 11.210938 11.242188 11.179688 10.796875 11.164062 10.59375 C 11.285156 10.546875 11.398438 10.492188 11.511719 10.429688 Z M 11.953125 10.136719 C 12.070312 10.234375 12.433594 10.527344 12.949219 10.992188 C 12.714844 11.160156 12.46875 11.308594 12.214844 11.445312 L 11.648438 10.355469 C 11.753906 10.289062 11.855469 10.21875 11.953125 10.144531 Z M 12.082031 23.917969 C 11.78125 23.40625 11.511719 22.875 11.28125 22.328125 C 11.136719 21.980469 11.003906 21.632812 10.875 21.226562 C 11.71875 21.132812 12.550781 20.964844 13.367188 20.71875 C 13.742188 21.609375 14.171875 22.46875 14.65625 23.304688 C 14.375 23.40625 14.097656 23.503906 13.824219 23.601562 C 13.25 23.738281 12.667969 23.84375 12.082031 23.917969 Z M 14.785156 16.769531 L 16.15625 19.421875 C 15.289062 19.867188 14.390625 20.234375 13.460938 20.523438 C 13.082031 19.605469 12.75 18.671875 12.46875 17.71875 C 13.265625 17.464844 14.039062 17.148438 14.785156 16.769531 Z M 12.429688 17.574219 C 12.351562 17.296875 12.273438 17.019531 12.203125 16.75 C 12.027344 16.070312 11.855469 15.359375 11.722656 14.664062 C 12.28125 14.472656 12.820312 14.246094 13.347656 13.980469 L 14.714844 16.640625 C 13.976562 17.011719 13.21875 17.324219 12.429688 17.574219 Z M 16.230469 19.566406 L 17.507812 22.046875 C 16.628906 22.5 15.730469 22.902344 14.804688 23.25 C 14.320312 22.417969 13.894531 21.5625 13.523438 20.675781 C 14.457031 20.386719 15.359375 20.015625 16.230469 19.566406 Z M 14.925781 16.699219 C 15.667969 16.3125 16.371094 15.863281 17.042969 15.359375 C 17.65625 16.144531 18.226562 16.957031 18.757812 17.796875 C 17.980469 18.390625 17.164062 18.914062 16.296875 19.363281 Z M 14.851562 16.558594 L 13.472656 13.902344 C 13.996094 13.628906 14.496094 13.320312 14.96875 12.972656 C 15.484375 13.507812 15.972656 14.054688 16.433594 14.605469 C 16.605469 14.804688 16.78125 15.019531 16.953125 15.238281 C 16.289062 15.738281 15.589844 16.175781 14.851562 16.558594 Z M 13.410156 13.761719 L 12.285156 11.59375 C 12.558594 11.449219 12.816406 11.289062 13.066406 11.109375 C 13.675781 11.660156 14.285156 12.25 14.867188 12.863281 C 14.402344 13.199219 13.914062 13.496094 13.410156 13.761719 Z M 13.265625 13.832031 C 12.757812 14.09375 12.230469 14.316406 11.6875 14.5 C 11.527344 13.671875 11.394531 12.839844 11.296875 12.019531 C 11.585938 11.921875 11.871094 11.800781 12.144531 11.660156 Z M 11.535156 14.550781 C 11.074219 14.703125 10.601562 14.820312 10.117188 14.898438 C 10.167969 14.011719 10.269531 13.128906 10.425781 12.253906 C 10.667969 12.210938 10.910156 12.152344 11.144531 12.078125 C 11.242188 12.886719 11.375 13.722656 11.535156 14.550781 Z M 11.566406 14.707031 C 11.707031 15.414062 11.867188 16.117188 12.042969 16.792969 C 12.113281 17.054688 12.1875 17.316406 12.277344 17.621094 C 11.597656 17.832031 10.90625 17.984375 10.203125 18.082031 C 10.152344 17.625 10.117188 17.191406 10.101562 16.761719 C 10.078125 16.210938 10.082031 15.636719 10.101562 15.054688 C 10.597656 14.976562 11.082031 14.859375 11.5625 14.703125 Z M 12.320312 17.769531 C 12.597656 18.722656 12.921875 19.65625 13.300781 20.570312 C 12.488281 20.816406 11.660156 20.984375 10.816406 21.074219 C 10.527344 20.144531 10.324219 19.195312 10.210938 18.230469 C 10.925781 18.132812 11.628906 17.980469 12.320312 17.769531 Z M 17.652344 21.972656 L 16.367188 19.496094 C 17.238281 19.046875 18.0625 18.523438 18.839844 17.929688 C 19.347656 18.746094 19.796875 19.585938 20.195312 20.457031 C 19.378906 21.011719 18.527344 21.515625 17.652344 21.972656 Z M 17.164062 15.265625 C 17.734375 14.828125 18.265625 14.347656 18.753906 13.824219 C 19.480469 14.472656 20.136719 15.1875 20.730469 15.957031 C 20.167969 16.59375 19.550781 17.175781 18.878906 17.699219 C 18.351562 16.855469 17.78125 16.046875 17.164062 15.265625 Z M 17.070312 15.144531 C 16.894531 14.921875 16.722656 14.703125 16.546875 14.5 C 16.089844 13.957031 15.605469 13.410156 15.097656 12.875 C 15.496094 12.578125 15.867188 12.25 16.214844 11.894531 C 16.714844 12.214844 17.195312 12.550781 17.644531 12.898438 C 17.972656 13.152344 18.296875 13.417969 18.636719 13.71875 C 18.152344 14.238281 17.628906 14.710938 17.070312 15.144531 Z M 14.992188 12.761719 C 14.410156 12.152344 13.804688 11.5625 13.195312 11.007812 C 13.390625 10.863281 13.574219 10.703125 13.746094 10.53125 C 14.550781 10.910156 15.332031 11.335938 16.085938 11.8125 C 15.746094 12.15625 15.382812 12.472656 14.992188 12.761719 Z M 13.714844 10.347656 C 13.058594 10.039062 12.558594 9.851562 12.324219 9.765625 L 12.378906 9.695312 L 12.402344 9.65625 C 12.980469 9.683594 13.554688 9.75 14.125 9.855469 C 14.003906 10.03125 13.867188 10.195312 13.714844 10.347656 Z M 12.222656 9.894531 C 12.417969 9.964844 12.917969 10.148438 13.597656 10.464844 C 13.433594 10.621094 13.257812 10.765625 13.074219 10.902344 C 12.566406 10.449219 12.203125 10.152344 12.070312 10.03125 C 12.125 9.992188 12.175781 9.945312 12.222656 9.894531 Z M 10.484375 10.722656 L 10.601562 10.722656 C 10.527344 10.996094 10.410156 11.480469 10.289062 12.117188 C 10.117188 12.140625 9.945312 12.15625 9.769531 12.160156 L 9.628906 12.160156 C 9.863281 11.664062 10.125 11.183594 10.417969 10.71875 Z M 9.5625 12.3125 L 9.78125 12.3125 C 9.941406 12.3125 10.101562 12.296875 10.261719 12.277344 C 10.109375 13.148438 10.007812 14.027344 9.960938 14.914062 C 9.691406 14.949219 9.421875 14.972656 9.148438 14.976562 L 9.058594 14.976562 C 8.910156 14.976562 8.761719 14.976562 8.613281 14.957031 C 8.847656 14.042969 9.164062 13.160156 9.5625 12.304688 Z M 9.058594 15.144531 L 9.152344 15.144531 C 9.417969 15.136719 9.683594 15.117188 9.949219 15.082031 C 9.925781 15.652344 9.921875 16.222656 9.949219 16.769531 C 9.96875 17.203125 10 17.652344 10.054688 18.105469 C 9.628906 18.15625 9.207031 18.183594 8.78125 18.183594 C 8.589844 18.183594 8.398438 18.183594 8.214844 18.167969 C 8.210938 17.421875 8.273438 16.679688 8.402344 15.945312 C 8.449219 15.671875 8.507812 15.390625 8.574219 15.117188 C 8.734375 15.128906 8.898438 15.132812 9.058594 15.132812 Z M 8.777344 18.332031 C 9.207031 18.332031 9.636719 18.304688 10.0625 18.25 C 10.175781 19.214844 10.378906 20.164062 10.664062 21.089844 C 10.316406 21.121094 9.984375 21.136719 9.660156 21.136719 C 9.300781 21.136719 8.945312 21.117188 8.589844 21.078125 C 8.347656 20.171875 8.222656 19.25 8.210938 18.3125 C 8.394531 18.324219 8.585938 18.332031 8.777344 18.332031 Z M 9.664062 21.289062 C 10.011719 21.289062 10.359375 21.273438 10.707031 21.238281 C 10.839844 21.652344 10.980469 22.027344 11.128906 22.386719 C 11.355469 22.917969 11.617188 23.433594 11.910156 23.933594 C 11.480469 23.976562 11.050781 24.003906 10.621094 24.003906 C 10.347656 24.003906 10.074219 23.992188 9.8125 23.972656 C 9.304688 23.125 8.914062 22.226562 8.636719 21.28125 C 8.632812 21.265625 8.628906 21.25 8.625 21.234375 C 8.96875 21.273438 9.316406 21.292969 9.664062 21.292969 Z M 10.632812 24.15625 C 11.089844 24.15625 11.550781 24.132812 12.007812 24.078125 L 12.007812 24.09375 C 11.375 24.238281 10.738281 24.351562 10.09375 24.425781 C 10.03125 24.328125 9.964844 24.234375 9.90625 24.136719 C 10.152344 24.15625 10.390625 24.160156 10.632812 24.160156 Z M 18.867188 13.707031 C 19.289062 13.25 19.664062 12.761719 19.992188 12.234375 C 20.75 12.785156 21.429688 13.421875 22.03125 14.140625 C 21.691406 14.746094 21.296875 15.3125 20.839844 15.835938 C 20.25 15.066406 19.589844 14.359375 18.867188 13.707031 Z M 18.753906 13.605469 C 18.40625 13.300781 18.082031 13.03125 17.75 12.773438 C 17.304688 12.425781 16.832031 12.097656 16.335938 11.78125 C 16.648438 11.445312 16.925781 11.082031 17.164062 10.6875 C 17.441406 10.796875 17.714844 10.917969 17.972656 11.039062 C 18.636719 11.351562 19.269531 11.71875 19.867188 12.140625 C 19.539062 12.664062 19.164062 13.152344 18.746094 13.605469 Z M 16.203125 11.691406 C 15.453125 11.21875 14.671875 10.789062 13.867188 10.410156 C 14.027344 10.242188 14.167969 10.0625 14.292969 9.871094 C 15.226562 10.039062 16.132812 10.292969 17.019531 10.628906 C 16.785156 11.015625 16.511719 11.371094 16.199219 11.695312 Z M 9.941406 10.40625 C 9.507812 10.894531 9.109375 11.402344 8.746094 11.941406 C 8.605469 11.867188 8.496094 11.757812 8.414062 11.621094 C 8.878906 11.105469 9.386719 10.628906 9.9375 10.199219 C 9.921875 10.269531 9.921875 10.339844 9.941406 10.410156 Z M 8.796875 12.136719 C 8.988281 12.21875 9.191406 12.269531 9.398438 12.289062 C 9 13.144531 8.6875 14.027344 8.457031 14.941406 C 8.097656 14.90625 7.757812 14.8125 7.429688 14.65625 C 7.800781 13.773438 8.257812 12.933594 8.796875 12.136719 Z M 8.417969 15.09375 C 8.351562 15.363281 8.292969 15.636719 8.246094 15.902344 C 8.113281 16.644531 8.046875 17.390625 8.046875 18.140625 C 7.550781 18.105469 7.066406 18.015625 6.589844 17.875 C 6.703125 16.832031 6.957031 15.828125 7.351562 14.859375 L 7.371094 14.808594 C 7.703125 14.960938 8.054688 15.058594 8.417969 15.097656 Z M 8.050781 18.300781 C 8.066406 19.234375 8.191406 20.152344 8.429688 21.058594 C 7.828125 20.984375 7.246094 20.828125 6.6875 20.597656 C 6.625 20.261719 6.582031 19.925781 6.558594 19.585938 C 6.523438 19.070312 6.527344 18.554688 6.574219 18.035156 C 7.058594 18.175781 7.550781 18.265625 8.050781 18.300781 Z M 8.464844 21.21875 C 8.464844 21.230469 8.464844 21.242188 8.464844 21.253906 C 8.464844 21.277344 8.476562 21.300781 8.484375 21.324219 C 8.753906 22.25 9.136719 23.128906 9.628906 23.957031 C 8.980469 23.898438 8.347656 23.757812 7.734375 23.539062 C 7.265625 22.667969 6.933594 21.75 6.730469 20.78125 C 7.289062 21 7.867188 21.148438 8.464844 21.21875 Z M 22.546875 18.609375 C 22.996094 18.105469 23.398438 17.5625 23.753906 16.988281 C 23.792969 17.082031 23.832031 17.179688 23.871094 17.277344 C 23.453125 17.742188 23.015625 18.1875 22.546875 18.605469 Z M 22.433594 18.503906 C 22.203125 17.988281 21.9375 17.492188 21.640625 17.007812 C 21.429688 16.660156 21.191406 16.3125 20.929688 15.964844 C 21.367188 15.460938 21.757812 14.917969 22.09375 14.335938 C 22.105469 14.316406 22.117188 14.292969 22.128906 14.273438 C 22.144531 14.289062 22.160156 14.308594 22.175781 14.328125 C 22.78125 15.09375 23.285156 15.921875 23.679688 16.8125 C 23.316406 17.414062 22.902344 17.976562 22.433594 18.5 Z M 22.101562 13.996094 C 21.5 13.28125 20.824219 12.652344 20.066406 12.105469 L 20.082031 12.078125 C 20.105469 12.039062 20.132812 12 20.152344 11.960938 C 20.375 11.578125 20.558594 11.175781 20.703125 10.757812 C 21.160156 11.019531 21.59375 11.320312 22 11.65625 C 22.253906 11.863281 22.496094 12.085938 22.726562 12.320312 C 22.59375 12.90625 22.386719 13.460938 22.101562 13.992188 Z M 20.617188 10.515625 C 19.707031 10.011719 18.742188 9.640625 17.730469 9.398438 L 17.632812 9.375 C 17.664062 9.09375 17.636719 8.824219 17.542969 8.558594 C 18.683594 8.710938 19.773438 9.035156 20.8125 9.535156 C 20.78125 9.871094 20.714844 10.199219 20.617188 10.519531 Z M 17.605469 9.53125 L 17.695312 9.550781 C 18.703125 9.792969 19.660156 10.164062 20.566406 10.667969 C 20.40625 11.136719 20.195312 11.582031 19.941406 12.003906 C 19.335938 11.578125 18.699219 11.207031 18.027344 10.890625 C 17.769531 10.769531 17.507812 10.65625 17.230469 10.542969 C 17.410156 10.226562 17.535156 9.890625 17.605469 9.535156 Z M 17.476562 9.34375 C 16.539062 9.136719 15.589844 9.019531 14.628906 8.996094 C 14.648438 8.832031 14.632812 8.675781 14.578125 8.519531 C 14.863281 8.488281 15.132812 8.46875 15.398438 8.457031 C 15.574219 8.457031 15.746094 8.445312 15.921875 8.445312 C 16.40625 8.445312 16.886719 8.472656 17.367188 8.53125 C 17.472656 8.792969 17.507812 9.0625 17.476562 9.34375 Z M 14.605469 9.15625 C 15.566406 9.179688 16.519531 9.296875 17.460938 9.507812 C 17.390625 9.859375 17.269531 10.191406 17.09375 10.5 C 16.210938 10.160156 15.308594 9.90625 14.378906 9.730469 C 14.484375 9.550781 14.558594 9.359375 14.605469 9.15625 Z M 14.476562 9 L 14.25 9 C 13.683594 9 13.121094 9.03125 12.5625 9.09375 C 12.558594 9.078125 12.554688 9.0625 12.546875 9.046875 C 12.53125 9.007812 12.503906 8.972656 12.472656 8.941406 C 13.109375 8.757812 13.757812 8.625 14.417969 8.546875 C 14.480469 8.691406 14.496094 8.84375 14.476562 9 Z M 12.285156 8.824219 C 12.253906 8.820312 12.21875 8.8125 12.183594 8.808594 C 12.765625 8.515625 13.371094 8.28125 13.996094 8.105469 C 14.136719 8.171875 14.253906 8.269531 14.34375 8.398438 C 13.644531 8.480469 12.960938 8.628906 12.285156 8.832031 Z M 11.871094 8.789062 L 11.816406 8.789062 C 12.207031 8.40625 12.65625 8.109375 13.164062 7.90625 C 13.367188 7.910156 13.566406 7.9375 13.761719 7.996094 C 13.105469 8.195312 12.472656 8.460938 11.871094 8.792969 Z M 8.390625 10.730469 C 8.433594 10.617188 8.484375 10.507812 8.542969 10.402344 C 8.582031 10.335938 8.628906 10.257812 8.679688 10.183594 C 9.421875 9.753906 9.9375 9.640625 10.210938 9.613281 C 9.5625 9.917969 8.957031 10.292969 8.390625 10.734375 Z M 10.089844 9.855469 L 10.054688 9.914062 C 9.433594 10.371094 8.863281 10.886719 8.34375 11.457031 C 8.296875 11.304688 8.292969 11.148438 8.324219 10.992188 C 8.871094 10.546875 9.460938 10.167969 10.089844 9.855469 Z M 8.65625 12.066406 C 8.117188 12.859375 7.664062 13.703125 7.289062 14.585938 C 7.046875 14.445312 6.851562 14.257812 6.703125 14.015625 C 7.019531 13.433594 7.378906 12.878906 7.785156 12.359375 C 7.945312 12.152344 8.117188 11.945312 8.308594 11.734375 C 8.398438 11.871094 8.515625 11.980469 8.65625 12.066406 Z M 7.230469 14.726562 L 7.203125 14.792969 C 6.8125 15.769531 6.558594 16.777344 6.441406 17.824219 C 6.121094 17.71875 5.816406 17.582031 5.523438 17.414062 C 5.71875 16.277344 6.085938 15.199219 6.617188 14.179688 C 6.78125 14.40625 6.984375 14.589844 7.230469 14.726562 Z M 6.425781 17.992188 C 6.378906 18.527344 6.371094 19.0625 6.410156 19.597656 C 6.429688 19.898438 6.46875 20.207031 6.523438 20.523438 C 6.152344 20.355469 5.808594 20.136719 5.496094 19.875 C 5.453125 19.6875 5.410156 19.496094 5.375 19.304688 C 5.371094 18.726562 5.410156 18.15625 5.496094 17.585938 C 5.792969 17.753906 6.105469 17.886719 6.425781 17.992188 Z M 6.554688 20.710938 C 6.742188 21.667969 7.058594 22.582031 7.507812 23.449219 C 7.320312 23.375 7.144531 23.292969 6.996094 23.21875 C 6.75 22.863281 6.527344 22.492188 6.328125 22.109375 C 6.003906 21.472656 5.746094 20.808594 5.5625 20.121094 C 5.871094 20.355469 6.199219 20.550781 6.554688 20.710938 Z M 7.621094 23.667969 C 7.769531 23.949219 7.941406 24.226562 8.117188 24.503906 L 8.046875 24.503906 C 7.734375 24.183594 7.441406 23.84375 7.175781 23.484375 C 7.324219 23.546875 7.472656 23.609375 7.621094 23.664062 Z M 14.21875 26.785156 C 14.316406 26.875 14.414062 26.960938 14.511719 27.054688 C 14.355469 27.054688 14.199219 27.054688 14.046875 27.054688 C 13.835938 27.054688 13.625 27.054688 13.417969 27.035156 C 13.6875 26.957031 13.953125 26.875 14.21875 26.78125 Z M 14.394531 26.726562 C 15.089844 26.488281 15.796875 26.21875 16.507812 25.914062 C 16.726562 26.167969 16.949219 26.414062 17.171875 26.644531 C 16.378906 26.859375 15.570312 26.992188 14.75 27.042969 C 14.621094 26.9375 14.5 26.832031 14.382812 26.730469 Z M 16.65625 25.859375 C 17.40625 25.535156 18.164062 25.175781 18.925781 24.785156 L 19.4375 25.777344 C 18.765625 26.117188 18.070312 26.390625 17.347656 26.601562 C 17.101562 26.359375 16.871094 26.109375 16.648438 25.847656 Z M 19.066406 24.714844 C 19.828125 24.316406 20.5625 23.898438 21.265625 23.464844 C 21.351562 23.804688 21.421875 24.136719 21.476562 24.460938 C 20.878906 24.933594 20.242188 25.339844 19.5625 25.6875 Z M 25.082031 15.6875 C 24.964844 15.398438 24.839844 15.117188 24.703125 14.84375 C 24.742188 14.695312 24.773438 14.542969 24.800781 14.398438 C 24.933594 14.800781 25.039062 15.210938 25.117188 15.628906 Z M 24.980469 15.847656 C 24.679688 16.304688 24.351562 16.738281 23.992188 17.148438 C 23.949219 17.042969 23.90625 16.933594 23.863281 16.828125 L 23.910156 16.746094 C 24.21875 16.214844 24.460938 15.65625 24.640625 15.070312 C 24.753906 15.3125 24.867188 15.574219 24.972656 15.839844 Z M 24.539062 14.863281 C 24.359375 15.484375 24.105469 16.078125 23.773438 16.640625 C 23.382812 15.773438 22.894531 14.96875 22.304688 14.226562 C 22.285156 14.199219 22.261719 14.175781 22.242188 14.152344 L 22.210938 14.113281 C 22.496094 13.585938 22.710938 13.03125 22.855469 12.445312 C 23.53125 13.167969 24.089844 13.96875 24.53125 14.851562 Z M 17.046875 7.679688 C 17.152344 7.679688 17.253906 7.679688 17.355469 7.679688 C 17.675781 7.75 17.992188 7.835938 18.304688 7.941406 C 19.203125 8.226562 20.046875 8.632812 20.832031 9.15625 C 20.832031 9.230469 20.832031 9.304688 20.832031 9.378906 C 19.765625 8.871094 18.648438 8.542969 17.476562 8.394531 C 17.472656 8.382812 17.46875 8.375 17.464844 8.363281 C 17.3125 8.074219 17.09375 7.847656 16.8125 7.683594 Z M 17.285156 8.375 C 16.835938 8.320312 16.382812 8.292969 15.929688 8.289062 C 15.738281 8.289062 15.5625 8.296875 15.386719 8.308594 C 15.101562 8.320312 14.8125 8.34375 14.507812 8.375 C 14.429688 8.242188 14.328125 8.132812 14.199219 8.046875 C 14.949219 7.847656 15.714844 7.734375 16.492188 7.699219 C 16.828125 7.835938 17.09375 8.0625 17.285156 8.371094 Z M 14.28125 7.503906 C 14.601562 7.472656 14.925781 7.457031 15.242188 7.457031 C 15.417969 7.457031 15.601562 7.457031 15.765625 7.472656 C 15.890625 7.492188 16.011719 7.523438 16.132812 7.558594 C 15.410156 7.617188 14.703125 7.746094 14.007812 7.941406 C 13.839844 7.863281 13.660156 7.8125 13.472656 7.785156 C 13.738281 7.683594 13.996094 7.59375 14.28125 7.503906 Z M 13.472656 7.617188 C 13.355469 7.664062 13.238281 7.710938 13.125 7.761719 L 13 7.761719 L 12.777344 7.765625 C 13.011719 7.710938 13.242188 7.65625 13.472656 7.617188 Z M 12.777344 7.929688 C 12.050781 8.300781 11.714844 8.65625 11.570312 8.847656 L 11.453125 8.878906 C 11.550781 8.582031 11.703125 8.316406 11.910156 8.082031 C 12.195312 8.003906 12.484375 7.953125 12.777344 7.929688 Z M 11.640625 8.164062 C 11.472656 8.402344 11.347656 8.664062 11.269531 8.945312 L 11.1875 8.976562 L 11.109375 8.363281 C 11.285156 8.289062 11.464844 8.222656 11.640625 8.164062 Z M 10.929688 8.441406 L 10.957031 8.429688 L 11.039062 9.046875 L 10.988281 9.074219 L 10.714844 8.550781 C 10.785156 8.507812 10.863281 8.476562 10.929688 8.441406 Z M 10.414062 8.703125 C 10.46875 8.675781 10.523438 8.644531 10.574219 8.617188 L 10.851562 9.15625 L 10.824219 9.175781 L 10.359375 8.738281 Z M 10.21875 8.820312 L 10.691406 9.257812 C 10.675781 9.265625 10.660156 9.277344 10.644531 9.289062 C 10.367188 9.179688 10.074219 9.121094 9.773438 9.117188 C 9.914062 9.015625 10.0625 8.917969 10.21875 8.820312 Z M 9.554688 9.285156 C 9.617188 9.277344 9.675781 9.277344 9.738281 9.277344 C 9.996094 9.277344 10.25 9.320312 10.492188 9.402344 L 10.433594 9.457031 L 10.347656 9.457031 C 10.125 9.457031 9.648438 9.511719 8.9375 9.875 C 9.125 9.660156 9.332031 9.460938 9.554688 9.285156 Z M 8.738281 9.855469 C 8.691406 9.914062 8.644531 9.96875 8.605469 10.027344 L 8.589844 10.050781 C 8.511719 10.09375 8.4375 10.140625 8.359375 10.1875 C 8.484375 10.082031 8.613281 9.96875 8.738281 9.855469 Z M 6.75 12.164062 C 7.054688 11.675781 7.394531 11.222656 7.777344 10.796875 C 7.984375 10.636719 8.1875 10.496094 8.386719 10.367188 C 8.292969 10.535156 8.222656 10.710938 8.179688 10.898438 C 7.625 11.347656 7.117188 11.839844 6.65625 12.386719 C 6.6875 12.3125 6.714844 12.234375 6.75 12.164062 Z M 6.539062 12.785156 C 7.019531 12.175781 7.554688 11.625 8.148438 11.128906 C 8.140625 11.289062 8.164062 11.445312 8.226562 11.59375 C 8.023438 11.820312 7.835938 12.042969 7.664062 12.265625 C 7.273438 12.769531 6.925781 13.296875 6.617188 13.851562 C 6.480469 13.503906 6.453125 13.148438 6.539062 12.785156 Z M 6.109375 13.367188 C 6.1875 13.257812 6.265625 13.144531 6.34375 13.039062 C 6.304688 13.382812 6.363281 13.707031 6.515625 14.015625 C 5.960938 15.054688 5.578125 16.15625 5.375 17.320312 C 5.316406 17.285156 5.261719 17.25 5.207031 17.207031 C 5.253906 15.867188 5.550781 14.589844 6.109375 13.367188 Z M 5.351562 17.496094 C 5.308594 17.785156 5.273438 18.074219 5.25 18.367188 C 5.222656 18.046875 5.210938 17.730469 5.214844 17.414062 C 5.261719 17.441406 5.304688 17.46875 5.351562 17.496094 Z M 4.101562 22.566406 C 3.441406 21.292969 3.855469 19.609375 5.058594 17.847656 C 5.074219 18.347656 5.128906 18.847656 5.214844 19.339844 L 5.226562 19.375 C 5.410156 20.359375 5.730469 21.292969 6.1875 22.179688 C 6.625 23.023438 7.167969 23.792969 7.816406 24.480469 C 6.03125 24.335938 4.691406 23.703125 4.101562 22.566406 Z M 12.777344 27.230469 L 12.980469 27.171875 C 13.332031 27.203125 13.679688 27.21875 14.027344 27.21875 C 14.242188 27.21875 14.460938 27.21875 14.679688 27.199219 C 14.816406 27.316406 14.957031 27.429688 15.097656 27.546875 C 14.3125 27.53125 13.539062 27.425781 12.777344 27.230469 Z M 15.355469 27.539062 L 15.339844 27.527344 C 15.207031 27.425781 15.0625 27.316406 14.910156 27.179688 C 15.714844 27.121094 16.507812 26.980469 17.285156 26.761719 C 17.445312 26.917969 17.605469 27.070312 17.765625 27.214844 C 16.976562 27.421875 16.175781 27.53125 15.359375 27.539062 Z M 17.949219 27.171875 C 17.789062 27.03125 17.628906 26.882812 17.460938 26.71875 C 18.164062 26.507812 18.84375 26.238281 19.496094 25.90625 L 19.78125 26.460938 C 19.195312 26.757812 18.585938 26.996094 17.953125 27.171875 Z M 19.925781 26.382812 L 19.640625 25.832031 C 20.296875 25.484375 20.917969 25.085938 21.5 24.625 C 21.535156 24.847656 21.566406 25.070312 21.589844 25.285156 C 21.070312 25.707031 20.515625 26.074219 19.925781 26.382812 Z M 21.398438 23.363281 C 22.058594 22.953125 22.6875 22.53125 23.289062 22.097656 C 23.308594 22.257812 23.328125 22.417969 23.34375 22.578125 C 22.824219 23.222656 22.246094 23.808594 21.605469 24.335938 C 21.550781 24.019531 21.480469 23.699219 21.398438 23.371094 Z M 21.730469 25.167969 C 21.703125 24.933594 21.675781 24.714844 21.640625 24.511719 C 22.273438 24 22.84375 23.433594 23.359375 22.804688 C 23.375 23.007812 23.386719 23.195312 23.390625 23.375 C 22.914062 24.042969 22.359375 24.640625 21.730469 25.175781 Z M 23.433594 21.992188 C 23.667969 21.816406 23.902344 21.644531 24.128906 21.46875 C 23.929688 21.789062 23.714844 22.101562 23.484375 22.398438 C 23.46875 22.269531 23.453125 22.132812 23.433594 21.996094 Z M 23.953125 22.488281 C 23.828125 22.707031 23.6875 22.933594 23.535156 23.160156 C 23.535156 22.984375 23.511719 22.800781 23.496094 22.636719 C 23.855469 22.183594 24.183594 21.703125 24.472656 21.199219 L 24.617188 21.082031 C 24.433594 21.570312 24.214844 22.042969 23.960938 22.496094 Z M 25.230469 15.421875 C 24.980469 14.222656 24.53125 13.101562 23.878906 12.066406 C 23.226562 11.027344 22.414062 10.136719 21.441406 9.394531 C 23.527344 9.429688 25.128906 10.070312 25.78125 11.335938 C 26.363281 12.453125 26.117188 13.894531 25.230469 15.421875 Z M 25.230469 15.421875 " fill-opacity="1" fill-rule="nonzero"/></g><g clip-path="url(#09c454ef6a)"><g clip-path="url(#53402dca34)"><g clip-path="url(#9dad37357f)"><path fill="#4f89b7" d="M 19.660156 1.167969 L 20.214844 2.796875 L 22.066406 2.90625 L 20.511719 4.222656 L 20.640625 6.011719 L 19.125 5.199219 L 17.347656 6.195312 L 17.96875 4.378906 L 16.746094 3.203125 L 18.644531 2.890625 Z M 19.8125 0.503906 L 20.488281 2.484375 L 22.75 2.617188 C 22.789062 2.621094 22.816406 2.652344 22.816406 2.691406 C 22.8125 2.710938 22.804688 2.730469 22.789062 2.742188 L 20.878906 4.359375 L 21.035156 6.550781 C 21.039062 6.589844 21.007812 6.625 20.972656 6.625 C 20.957031 6.628906 20.941406 6.625 20.929688 6.617188 L 19.082031 5.625 L 16.902344 6.847656 C 16.871094 6.867188 16.828125 6.855469 16.808594 6.820312 C 16.796875 6.804688 16.796875 6.78125 16.804688 6.765625 L 17.558594 4.542969 L 16.066406 3.109375 C 16.039062 3.082031 16.039062 3.039062 16.066406 3.011719 C 16.078125 3 16.089844 2.992188 16.105469 2.992188 L 18.4375 2.609375 L 19.6875 0.492188 C 19.707031 0.457031 19.75 0.449219 19.785156 0.464844 C 19.796875 0.476562 19.808594 0.488281 19.8125 0.503906 Z M 20.371094 2.574219 L 19.730469 0.691406 L 18.539062 2.707031 C 18.527344 2.722656 18.511719 2.734375 18.492188 2.738281 L 16.261719 3.105469 L 17.683594 4.46875 C 17.707031 4.484375 17.714844 4.515625 17.707031 4.542969 L 16.992188 6.636719 L 19.046875 5.484375 C 19.066406 5.472656 19.089844 5.472656 19.113281 5.484375 L 20.890625 6.4375 L 20.738281 4.335938 C 20.738281 4.3125 20.746094 4.289062 20.765625 4.273438 L 22.570312 2.746094 L 20.4375 2.621094 C 20.410156 2.621094 20.382812 2.601562 20.371094 2.574219 Z M 19.480469 2.503906 L 19.753906 3.304688 L 20.660156 3.355469 L 19.898438 4.003906 L 19.960938 4.878906 L 19.21875 4.480469 L 18.347656 4.972656 L 18.652344 4.078125 L 18.050781 3.503906 L 18.980469 3.351562 Z M 19.480469 2.503906 " fill-opacity="1" fill-rule="evenodd"/></g></g></g><path stroke-linecap="butt" transform="matrix(0.110369, 0.00222174, -0.00222174, 0.110369, 3.646903, 21.350895)" fill="none" stroke-linejoin="miter" d="M 23.92426 44.968457 C 20.420395 44.968205 17.258205 44.359402 14.436266 43.071292 C 11.614327 41.783182 9.171577 39.991943 7.108018 37.697576 C 5.044458 35.403209 3.468359 32.709712 2.379009 29.581706 C 1.290371 26.489078 0.725996 23.067364 0.723399 19.421986 C 0.72009 15.74123 1.28853 12.332105 2.394052 9.230701 C 3.498861 6.093919 5.072846 3.407795 7.11458 1.101573 C 9.157027 -1.169271 11.597892 -2.988032 14.439312 -4.248576 C 17.280019 -5.544498 20.417283 -6.173931 23.921148 -6.173679 C 27.071231 -6.166306 29.766383 -5.902027 32.07736 -5.382266 C 34.352959 -4.861794 36.240822 -4.262731 37.741661 -3.5497 C 39.242501 -2.836669 40.352044 -2.221939 41.07029 -1.70551 C 41.788536 -1.18908 42.148015 -0.913176 42.148015 -0.913176 L 33.112937 24.963674 L 32.617642 24.973644 C 32.524809 23.878345 32.319431 22.466778 32.000085 20.668188 C 31.716117 18.868885 31.323166 16.930206 30.785142 14.817485 C 30.211739 12.705476 29.56758 10.594892 28.781908 8.487156 C 28.031614 6.378708 27.143368 4.45 26.117171 2.701031 C 25.090973 0.952062 23.965051 -0.476367 22.670071 -1.512074 C 21.409757 -2.583872 19.983235 -3.121437 18.461261 -3.126192 C 16.762395 -3.127386 15.468358 -2.358094 14.473726 -0.780801 C 13.513759 0.760402 13.025104 2.858398 13.042426 5.477096 C 13.0246 9.866128 13.66899 13.746334 14.940216 17.118426 C 16.247533 20.525185 17.933327 23.393437 20.032977 25.72247 C 22.132627 28.051503 24.433864 29.84559 26.936687 31.104732 C 29.438798 32.328495 31.928803 32.950829 34.371322 32.972446 C 35.645649 32.982186 36.810993 32.85255 37.9742 32.616779 C 39.102029 32.381721 40.120163 31.971908 40.923179 31.424855 C 41.796951 30.876378 42.314805 30.228888 42.546785 29.445583 C 43.014765 31.595107 42.807711 33.616649 41.996379 35.508785 C 41.185048 37.400921 39.908814 39.054667 38.132301 40.470737 C 36.391878 41.921473 34.290552 43.025549 31.864412 43.81763 C 29.402182 44.575045 26.75594 44.98224 23.92426 44.968457 Z M 23.92426 44.968457 " stroke="#17cfcc" stroke-width="8.36281" stroke-opacity="1" stroke-miterlimit="4"/><path stroke-linecap="butt" transform="matrix(0.108756, -0.0189328, 0.0189328, 0.108756, 7.812359, 21.471728)" fill="none" stroke-linejoin="miter" d="M 0.745827 25.639831 C 0.732828 21.794391 1.536736 18.41442 3.08176 15.522642 C 4.661646 12.636932 6.882582 10.401583 9.680914 8.769596 C 12.50804 7.178539 15.771566 6.381804 19.541215 6.391528 C 23.316934 6.366391 26.586253 7.186953 29.396171 8.789562 C 32.240951 10.39824 34.43537 12.647968 36.01429 15.544815 C 37.564417 18.400733 38.377807 21.774911 38.384738 25.655212 C 38.356807 29.529445 37.58776 32.915485 36.001806 35.836055 C 34.421921 38.721765 32.235846 40.963183 29.402652 42.589101 C 26.575527 44.180158 23.312 44.976893 19.536282 45.00203 C 15.801494 44.998375 12.497314 44.171744 9.687395 42.569135 C 6.877477 40.966526 4.683057 38.716798 3.104138 35.819951 C 1.525218 32.923103 0.717897 29.514064 0.745827 25.639831 Z M 19.559146 7.939104 C 19.052885 7.958724 18.602656 8.275439 18.202392 8.92411 C 17.808196 9.537919 17.595789 10.758056 17.606099 12.555728 C 17.610616 12.736103 17.595375 13.236295 17.61796 14.138165 C 17.611753 14.999106 17.610064 16.040421 17.612891 17.262109 C 17.621787 18.448937 17.589754 19.664557 17.592581 20.886246 C 17.58934 22.142796 17.622511 23.190179 17.610236 24.085981 C 17.59796 24.981782 17.61758 25.488044 17.587236 25.662349 C 17.597822 25.807862 17.611373 26.348984 17.599098 27.244786 C 17.592891 28.105726 17.619994 29.187971 17.622821 30.40966 C 17.590788 31.62528 17.593615 32.846969 17.596442 34.068657 C 17.59927 35.290346 17.59758 36.331661 17.591373 37.192601 C 17.620028 38.059611 17.604787 38.559803 17.609304 38.740177 C 17.619614 40.537849 17.802815 41.755021 18.19377 42.397761 C 18.584724 43.040501 19.065158 43.37556 19.571419 43.35594 C 20.147403 43.348458 20.597631 43.031743 20.991826 42.417933 C 21.35723 41.763193 21.534776 40.536987 21.559327 38.745384 C 21.55481 38.56501 21.53519 38.058749 21.541397 37.197808 C 21.553673 36.302007 21.549293 35.295553 21.546466 34.073864 C 21.543639 32.852175 21.540811 31.630487 21.537984 30.408798 C 21.535156 29.187109 21.542915 28.110933 21.549121 27.249993 C 21.526536 26.348122 21.547846 25.813069 21.543329 25.632695 C 21.532743 25.487182 21.547984 24.986989 21.560259 24.091188 C 21.537674 23.189317 21.539363 22.148003 21.542605 20.891453 C 21.539777 19.669764 21.53695 18.448075 21.534122 17.226387 C 21.525226 16.039559 21.526916 14.998244 21.539191 14.102443 C 21.545398 13.241502 21.560639 12.74131 21.556122 12.560935 C 21.545812 10.763263 21.362611 9.546092 20.971656 8.903352 C 20.615563 8.26668 20.135129 7.931621 19.559146 7.939104 Z M 19.559146 7.939104 " stroke="#17cfcc" stroke-width="8.36281" stroke-opacity="1" stroke-miterlimit="4"/><path stroke-linecap="butt" transform="matrix(0.103193, -0.0392102, 0.0392102, 0.103193, 11.484752, 20.909347)" fill="none" stroke-linejoin="miter" d="M 1.48224 7.346853 L 19.199954 7.34107 L 19.186123 9.569181 C 20.287584 8.662823 21.707256 7.915229 23.44514 7.326399 C 25.162514 6.691922 27.135257 6.381599 29.409015 6.37492 C 31.57097 6.363614 33.404143 6.719479 34.888025 7.396868 C 36.384476 8.041179 37.589851 8.953427 38.483641 10.087966 C 39.377431 11.222505 40.042987 12.459591 40.467742 13.832302 C 40.879929 15.23809 41.081079 16.601546 41.091701 17.968314 L 41.077869 44.006382 L 23.327076 43.999597 L 23.312406 15.944454 C 23.334862 14.590254 23.203181 13.442463 23.016598 12.538787 C 22.784368 11.65562 22.19822 11.20578 21.258152 11.189268 C 20.54169 11.18201 20.060087 11.45326 19.792834 11.957371 C 19.52558 12.461482 19.332424 13.069455 19.27952 13.806426 C 19.206106 14.497751 19.186281 15.247292 19.179023 15.963754 L 19.160615 44.006328 L 1.488547 43.991601 Z M 1.48224 7.346853 " stroke="#17cfcc" stroke-width="8.36281" stroke-opacity="1" stroke-miterlimit="4"/><path stroke-linecap="butt" transform="matrix(0.0937332, -0.0583131, 0.0583131, 0.0937332, 15.319008, 19.503003)" fill="none" stroke-linejoin="miter" d="M -0.009086 7.338626 L 17.518686 7.36601 L 27.847329 26.668945 C 28.404762 25.973881 28.868044 25.095221 29.267219 24.051656 C 29.666393 23.008092 29.86328 22.088725 29.857879 21.293556 C 29.859123 20.085781 29.54925 18.976173 28.958307 17.983424 C 28.386055 16.96063 27.697636 15.990589 26.911743 15.043256 C 26.174586 14.084569 25.486168 13.114528 24.865178 12.103087 C 24.292927 11.080293 24.024453 10.038115 23.999667 8.939168 C 23.994959 8.477823 24.140478 8.109938 24.376135 7.798128 C 24.641837 7.505011 24.911554 7.339413 25.196641 7.350074 L 40.24877 7.337587 L 20.038562 44.981792 Z M -0.009086 7.338626 " stroke="#17cfcc" stroke-width="8.36281" stroke-opacity="1" stroke-miterlimit="4"/><path stroke-linecap="butt" transform="matrix(0.0813804, -0.0745892, 0.0745892, 0.0813804, 18.616623, 17.509108)" fill="none" stroke-linejoin="miter" d="M 0.728468 25.659698 C 0.734744 21.777459 1.514891 18.412514 3.09282 15.538776 C 4.694658 12.638952 6.850831 10.391204 9.711327 8.789003 C 12.521827 7.188978 15.793203 6.395369 19.523279 6.35818 C 23.305527 6.36881 26.596568 7.17722 29.396402 8.783412 C 32.246231 10.387426 34.448338 12.645767 36.000544 15.508439 C 37.578837 18.39502 38.376799 21.766387 38.370523 25.648625 C 38.364248 29.530864 37.5841 32.895809 36.008348 35.819542 C 34.456505 38.717189 32.250337 40.967114 29.415927 42.593225 C 26.605427 44.193249 23.284056 44.989035 19.527894 45.002315 C 15.795641 44.989508 12.5046 44.181098 9.704766 42.574906 C 6.854937 40.970892 4.678916 38.73646 3.098447 35.799884 C 1.520155 32.913303 0.746101 29.51585 0.728468 25.659698 Z M 19.566853 7.934114 C 19.066902 7.955883 18.580012 8.277622 18.182265 8.921064 C 17.808426 9.53842 17.610696 10.749186 17.615159 12.577272 C 17.621689 12.727257 17.619549 13.253294 17.60656 14.105387 C 17.619658 14.98139 17.615377 16.033464 17.617627 17.235522 C 17.595967 18.463667 17.598217 19.665726 17.602643 20.91778 C 17.604893 22.119839 17.626698 23.195822 17.615886 24.097911 C 17.602898 24.950004 17.600757 25.476041 17.583379 25.652112 C 17.615995 25.826006 17.613855 26.352043 17.603043 27.254132 C 17.616141 28.130134 17.61186 29.182208 17.590201 30.410353 C 17.618536 31.636321 17.596877 32.864466 17.599126 34.066525 C 17.601376 35.268584 17.597095 36.320657 17.610192 37.19666 C 17.597204 38.048753 17.595064 38.57479 17.601594 38.724775 C 17.606057 40.552861 17.808287 41.746213 18.212638 42.40482 C 18.590903 43.039518 19.056096 43.369892 19.582133 43.372032 C 20.132079 43.348087 20.59506 43.052433 20.992807 42.408992 C 21.34056 41.767727 21.53829 40.55696 21.533828 38.728874 C 21.527297 38.578889 21.529437 38.052852 21.542426 37.200759 C 21.529328 36.324756 21.533609 35.272683 21.53136 34.070624 C 21.553019 32.842479 21.550769 31.64042 21.546343 30.388366 C 21.544093 29.186307 21.548374 28.134233 21.559186 27.232145 C 21.546088 26.356142 21.548229 25.830105 21.539521 25.630125 C 21.532991 25.48014 21.535131 24.954103 21.54812 24.10201 C 21.558931 23.199921 21.537126 22.123938 21.558786 20.895793 C 21.53045 19.669825 21.55211 18.44168 21.54986 17.239621 C 21.54761 16.037563 21.551891 14.985489 21.538794 14.109486 C 21.551782 13.257393 21.553923 12.731356 21.547392 12.581371 C 21.542929 10.753285 21.364608 9.533848 20.986343 8.899149 C 20.608079 8.264451 20.142885 7.934078 19.566853 7.934114 Z M 19.566853 7.934114 " stroke="#17cfcc" stroke-width="8.36281" stroke-opacity="1" stroke-miterlimit="4"/><path stroke-linecap="butt" transform="matrix(0.0658838, -0.0885757, 0.0885757, 0.0658838, 21.406359, 15.049851)" fill="none" stroke-linejoin="miter" d="M 1.489791 11.503437 C 1.474294 10.059641 1.635722 8.616548 1.939111 7.067862 C 2.26362 5.547568 2.75778 4.077488 3.478376 2.615385 C 4.177854 1.124889 5.152577 -0.173432 6.360307 -1.336361 C 7.59643 -2.52041 9.100523 -3.462771 10.922099 -4.156173 C 12.743674 -4.849574 14.868184 -5.194993 17.373532 -5.206275 L 40.536915 -5.192132 L 40.518506 43.993832 L 22.839811 44.001471 L 22.838456 19.394293 L 10.418012 19.415737 C 11.345123 21.195778 12.300627 22.954701 13.326761 24.749289 C 14.352895 26.543878 15.308399 28.3028 16.164881 30.047175 C 17.049755 31.770431 17.786096 33.471866 18.324393 35.144206 C 18.912202 36.82382 19.181825 38.431398 19.182775 39.974216 C 19.158846 40.653525 19.134917 41.332834 19.011966 41.997596 C 18.910133 42.69075 18.68816 43.340964 18.437794 44.012297 L 1.495193 44.001628 Z M 6.601825 7.348233 C 6.595501 8.940562 6.87897 10.626044 7.431112 12.376287 C 7.962136 14.098138 8.712322 15.877477 9.582649 17.699755 L 22.838209 17.67455 L 22.835943 -3.139292 C 21.668095 -3.108544 20.634935 -3.133878 19.672405 -3.123547 C 18.738267 -3.134334 17.450278 -3.146526 15.829557 -3.131731 C 13.854985 -3.118342 12.28237 -2.742422 11.054926 -1.961736 C 9.827483 -1.181049 8.882558 -0.257698 8.233996 0.886221 C 7.613827 2.009021 7.16331 3.182035 6.939228 4.363026 C 6.715147 5.544016 6.598065 6.513117 6.601825 7.348233 Z M 6.601825 7.348233 " stroke="#17cfcc" stroke-width="8.36281" stroke-opacity="1" stroke-miterlimit="4"/><path stroke-linecap="butt" transform="matrix(0.0523803, -0.0971732, 0.0971732, 0.0523803, 23.84654, 11.67994)" fill="none" stroke-linejoin="miter" d="M 8.858749 24.259827 C 7.810462 22.091375 6.697446 19.877417 5.55085 17.601163 C 4.387464 15.29376 3.430189 12.995851 2.645446 10.645139 C 1.877493 8.325576 1.476258 6.089729 1.472888 3.920808 C 1.457592 1.878913 1.909754 0.107623 2.719139 -1.373838 C 3.574031 -2.920029 4.647195 -4.061291 5.998496 -4.910294 C 7.318649 -5.742507 8.6989 -6.164927 10.187189 -6.163199 C 11.596391 -6.159038 12.938667 -5.757012 14.230807 -4.925972 C 15.539737 -4.063784 16.604346 -2.909101 17.427064 -1.382836 C 18.264141 0.0954895 18.698722 1.871174 18.68287 3.92986 C 18.66945 6.067633 18.279819 8.3278 17.497186 10.679216 C 16.666615 13.016272 15.709019 15.341403 14.57646 17.64025 C 13.4439 19.939097 12.371205 22.125277 11.312868 24.263519 C 10.910607 25.083336 10.496186 25.50772 10.083962 25.488732 C 9.688529 25.500893 9.280935 25.11762 8.858749 24.259827 Z M 10.145441 44.992229 C 7.849496 44.983673 5.991823 44.296682 4.586781 42.88332 C 3.19853 41.501105 2.524257 39.65363 2.501664 37.374474 C 2.51022 35.078528 3.19721 33.220856 4.610573 31.815814 C 5.992788 30.427563 7.823473 29.722141 10.119419 29.730697 C 12.415365 29.739253 14.225099 30.411885 15.63014 31.825248 C 17.018392 33.207462 17.692665 35.054938 17.732048 37.365242 C 17.723492 39.661187 17.019711 41.487712 15.606349 42.892753 C 14.224134 44.281005 12.393449 44.986426 10.145441 44.992229 Z M 10.145441 44.992229 " stroke="#17cfcc" stroke-width="8.36281" stroke-opacity="1" stroke-miterlimit="4"/><g fill="#000000" fill-opacity="1"><g transform="translate(3.549147, 26.207146)"><g><path d="M 2.640625 0.15625 C 2.253906 0.15625 1.90625 0.0820312 1.59375 -0.0625 C 1.28125 -0.21875 1.015625 -0.421875 0.796875 -0.671875 C 0.578125 -0.929688 0.410156 -1.234375 0.296875 -1.578125 C 0.179688 -1.929688 0.125 -2.3125 0.125 -2.71875 C 0.132812 -3.125 0.207031 -3.492188 0.34375 -3.828125 C 0.476562 -4.171875 0.660156 -4.46875 0.890625 -4.71875 C 1.117188 -4.976562 1.390625 -5.171875 1.703125 -5.296875 C 2.015625 -5.429688 2.363281 -5.5 2.75 -5.5 C 3.101562 -5.488281 3.40625 -5.453125 3.65625 -5.390625 C 3.90625 -5.328125 4.113281 -5.253906 4.28125 -5.171875 C 4.445312 -5.085938 4.566406 -5.015625 4.640625 -4.953125 C 4.710938 -4.898438 4.75 -4.875 4.75 -4.875 L 3.703125 -2.03125 L 3.65625 -2.03125 C 3.644531 -2.144531 3.625 -2.300781 3.59375 -2.5 C 3.5625 -2.707031 3.519531 -2.925781 3.46875 -3.15625 C 3.414062 -3.394531 3.347656 -3.628906 3.265625 -3.859375 C 3.191406 -4.097656 3.097656 -4.316406 2.984375 -4.515625 C 2.867188 -4.710938 2.742188 -4.867188 2.609375 -4.984375 C 2.472656 -5.097656 2.320312 -5.15625 2.15625 -5.15625 C 1.96875 -5.164062 1.816406 -5.082031 1.703125 -4.90625 C 1.585938 -4.738281 1.523438 -4.507812 1.515625 -4.21875 C 1.515625 -3.738281 1.578125 -3.3125 1.703125 -2.9375 C 1.835938 -2.5625 2.019531 -2.238281 2.25 -1.96875 C 2.476562 -1.707031 2.726562 -1.503906 3 -1.359375 C 3.28125 -1.222656 3.554688 -1.148438 3.828125 -1.140625 C 3.960938 -1.140625 4.09375 -1.148438 4.21875 -1.171875 C 4.351562 -1.191406 4.46875 -1.234375 4.5625 -1.296875 C 4.65625 -1.359375 4.710938 -1.429688 4.734375 -1.515625 C 4.785156 -1.273438 4.757812 -1.050781 4.65625 -0.84375 C 4.5625 -0.632812 4.414062 -0.453125 4.21875 -0.296875 C 4.019531 -0.148438 3.785156 -0.0351562 3.515625 0.046875 C 3.242188 0.128906 2.953125 0.164062 2.640625 0.15625 Z M 2.640625 0.15625 "/></g></g></g><g fill="#000000" fill-opacity="1"><g transform="translate(8.645403, 26.256994)"><g><path d="M -0.265625 -2.015625 C -0.335938 -2.429688 -0.316406 -2.8125 -0.203125 -3.15625 C -0.0859375 -3.507812 0.101562 -3.796875 0.375 -4.015625 C 0.65625 -4.242188 1 -4.394531 1.40625 -4.46875 C 1.8125 -4.539062 2.179688 -4.515625 2.515625 -4.390625 C 2.859375 -4.273438 3.144531 -4.070312 3.375 -3.78125 C 3.601562 -3.488281 3.753906 -3.132812 3.828125 -2.71875 C 3.898438 -2.300781 3.875 -1.921875 3.75 -1.578125 C 3.632812 -1.234375 3.4375 -0.945312 3.15625 -0.71875 C 2.882812 -0.488281 2.546875 -0.335938 2.140625 -0.265625 C 1.734375 -0.191406 1.359375 -0.21875 1.015625 -0.34375 C 0.679688 -0.46875 0.398438 -0.671875 0.171875 -0.953125 C -0.046875 -1.242188 -0.191406 -1.597656 -0.265625 -2.015625 Z M 1.453125 -4.296875 C 1.390625 -4.285156 1.34375 -4.238281 1.3125 -4.15625 C 1.28125 -4.082031 1.285156 -3.945312 1.328125 -3.75 C 1.328125 -3.738281 1.332031 -3.679688 1.34375 -3.578125 C 1.363281 -3.484375 1.382812 -3.367188 1.40625 -3.234375 C 1.4375 -3.097656 1.460938 -2.960938 1.484375 -2.828125 C 1.503906 -2.703125 1.519531 -2.59375 1.53125 -2.5 C 1.550781 -2.40625 1.566406 -2.347656 1.578125 -2.328125 C 1.578125 -2.304688 1.582031 -2.242188 1.59375 -2.140625 C 1.613281 -2.046875 1.632812 -1.929688 1.65625 -1.796875 C 1.6875 -1.671875 1.710938 -1.539062 1.734375 -1.40625 C 1.753906 -1.269531 1.769531 -1.15625 1.78125 -1.0625 C 1.800781 -0.96875 1.816406 -0.910156 1.828125 -0.890625 C 1.859375 -0.703125 1.898438 -0.578125 1.953125 -0.515625 C 2.003906 -0.460938 2.0625 -0.441406 2.125 -0.453125 C 2.175781 -0.460938 2.21875 -0.503906 2.25 -0.578125 C 2.28125 -0.648438 2.28125 -0.78125 2.25 -0.96875 C 2.238281 -0.988281 2.222656 -1.046875 2.203125 -1.140625 C 2.191406 -1.234375 2.175781 -1.347656 2.15625 -1.484375 C 2.132812 -1.617188 2.109375 -1.75 2.078125 -1.875 C 2.054688 -2.007812 2.035156 -2.125 2.015625 -2.21875 C 2.003906 -2.320312 2 -2.382812 2 -2.40625 C 1.988281 -2.425781 1.972656 -2.484375 1.953125 -2.578125 C 1.941406 -2.671875 1.925781 -2.78125 1.90625 -2.90625 C 1.882812 -3.039062 1.859375 -3.175781 1.828125 -3.3125 C 1.804688 -3.445312 1.785156 -3.5625 1.765625 -3.65625 C 1.753906 -3.757812 1.75 -3.816406 1.75 -3.828125 C 1.707031 -4.023438 1.660156 -4.15625 1.609375 -4.21875 C 1.554688 -4.28125 1.503906 -4.304688 1.453125 -4.296875 Z M 1.453125 -4.296875 "/></g></g></g><g fill="#000000" fill-opacity="1"><g transform="translate(13.210002, 25.449858)"><g><path d="M -1.296875 -3.84375 L 0.546875 -4.53125 L 0.625 -4.3125 C 0.707031 -4.457031 0.828125 -4.59375 0.984375 -4.71875 C 1.140625 -4.84375 1.332031 -4.953125 1.5625 -5.046875 C 1.789062 -5.128906 1.992188 -5.164062 2.171875 -5.15625 C 2.347656 -5.144531 2.503906 -5.097656 2.640625 -5.015625 C 2.785156 -4.929688 2.90625 -4.828125 3 -4.703125 C 3.09375 -4.578125 3.171875 -4.441406 3.234375 -4.296875 L 4.25 -1.609375 L 2.40625 -0.921875 L 1.3125 -3.8125 C 1.25 -3.957031 1.191406 -4.070312 1.140625 -4.15625 C 1.085938 -4.238281 1.007812 -4.257812 0.90625 -4.21875 C 0.84375 -4.195312 0.804688 -4.15625 0.796875 -4.09375 C 0.785156 -4.03125 0.789062 -3.957031 0.8125 -3.875 C 0.832031 -3.800781 0.859375 -3.722656 0.890625 -3.640625 L 1.984375 -0.75 L 0.140625 -0.0625 Z M -1.296875 -3.84375 "/></g></g></g><g fill="#000000" fill-opacity="1"><g transform="translate(17.884782, 23.627265)"><g><path d="M -2.140625 -3.4375 L -0.5 -4.46875 L 1.609375 -3.25 C 1.609375 -3.34375 1.597656 -3.445312 1.578125 -3.5625 C 1.554688 -3.6875 1.519531 -3.789062 1.46875 -3.875 C 1.40625 -3.976562 1.316406 -4.0625 1.203125 -4.125 C 1.085938 -4.195312 0.960938 -4.253906 0.828125 -4.296875 C 0.703125 -4.335938 0.582031 -4.382812 0.46875 -4.4375 C 0.351562 -4.5 0.265625 -4.585938 0.203125 -4.703125 C 0.171875 -4.742188 0.160156 -4.78125 0.171875 -4.8125 C 0.179688 -4.851562 0.195312 -4.882812 0.21875 -4.90625 L 1.640625 -5.796875 L 1.953125 -1.078125 Z M -2.140625 -3.4375 "/></g></g></g><g fill="#000000" fill-opacity="1"><g transform="translate(21.89855, 21.089846)"><g><path d="M -1.3125 -1.546875 C -1.601562 -1.859375 -1.789062 -2.191406 -1.875 -2.546875 C -1.957031 -2.898438 -1.945312 -3.242188 -1.84375 -3.578125 C -1.738281 -3.921875 -1.53125 -4.234375 -1.21875 -4.515625 C -0.914062 -4.796875 -0.585938 -4.976562 -0.234375 -5.0625 C 0.109375 -5.144531 0.453125 -5.125 0.796875 -5 C 1.140625 -4.882812 1.457031 -4.671875 1.75 -4.359375 C 2.039062 -4.046875 2.226562 -3.710938 2.3125 -3.359375 C 2.40625 -3.003906 2.394531 -2.65625 2.28125 -2.3125 C 2.175781 -1.96875 1.972656 -1.65625 1.671875 -1.375 C 1.359375 -1.09375 1.03125 -0.910156 0.6875 -0.828125 C 0.34375 -0.753906 0 -0.773438 -0.34375 -0.890625 C -0.695312 -1.015625 -1.019531 -1.234375 -1.3125 -1.546875 Z M -1.09375 -4.40625 C -1.132812 -4.363281 -1.148438 -4.300781 -1.140625 -4.21875 C -1.128906 -4.132812 -1.050781 -4.019531 -0.90625 -3.875 C -0.894531 -3.863281 -0.851562 -3.820312 -0.78125 -3.75 C -0.71875 -3.675781 -0.640625 -3.585938 -0.546875 -3.484375 C -0.460938 -3.390625 -0.375 -3.289062 -0.28125 -3.1875 C -0.1875 -3.09375 -0.109375 -3.007812 -0.046875 -2.9375 C 0.015625 -2.863281 0.0507812 -2.820312 0.0625 -2.8125 C 0.0820312 -2.789062 0.125 -2.742188 0.1875 -2.671875 C 0.25 -2.597656 0.328125 -2.507812 0.421875 -2.40625 C 0.515625 -2.3125 0.601562 -2.210938 0.6875 -2.109375 C 0.78125 -2.015625 0.859375 -1.929688 0.921875 -1.859375 C 0.992188 -1.796875 1.035156 -1.753906 1.046875 -1.734375 C 1.179688 -1.585938 1.285156 -1.503906 1.359375 -1.484375 C 1.441406 -1.472656 1.503906 -1.488281 1.546875 -1.53125 C 1.585938 -1.5625 1.597656 -1.613281 1.578125 -1.6875 C 1.566406 -1.769531 1.492188 -1.882812 1.359375 -2.03125 C 1.347656 -2.050781 1.304688 -2.09375 1.234375 -2.15625 C 1.171875 -2.226562 1.09375 -2.3125 1 -2.40625 C 0.914062 -2.507812 0.828125 -2.609375 0.734375 -2.703125 C 0.640625 -2.804688 0.5625 -2.894531 0.5 -2.96875 C 0.4375 -3.039062 0.394531 -3.085938 0.375 -3.109375 C 0.363281 -3.117188 0.328125 -3.160156 0.265625 -3.234375 C 0.203125 -3.304688 0.125 -3.390625 0.03125 -3.484375 C -0.0625 -3.585938 -0.148438 -3.6875 -0.234375 -3.78125 C -0.328125 -3.882812 -0.40625 -3.972656 -0.46875 -4.046875 C -0.539062 -4.117188 -0.582031 -4.160156 -0.59375 -4.171875 C -0.738281 -4.316406 -0.847656 -4.398438 -0.921875 -4.421875 C -0.992188 -4.441406 -1.050781 -4.4375 -1.09375 -4.40625 Z M -1.09375 -4.40625 "/></g></g></g><g fill="#000000" fill-opacity="1"><g transform="translate(25.303691, 17.948737)"><g><path d="M -2.796875 -2.265625 C -2.921875 -2.359375 -3.035156 -2.46875 -3.140625 -2.59375 C -3.253906 -2.726562 -3.351562 -2.875 -3.4375 -3.03125 C -3.519531 -3.195312 -3.570312 -3.375 -3.59375 -3.5625 C -3.613281 -3.75 -3.597656 -3.941406 -3.546875 -4.140625 C -3.492188 -4.347656 -3.382812 -4.566406 -3.21875 -4.796875 L -1.6875 -6.84375 L 2.671875 -3.59375 L 1.5 -2.015625 L -0.6875 -3.640625 L -1.5 -2.546875 C -1.269531 -2.515625 -1.039062 -2.484375 -0.8125 -2.453125 C -0.59375 -2.421875 -0.375 -2.382812 -0.15625 -2.34375 C 0.0507812 -2.3125 0.242188 -2.265625 0.421875 -2.203125 C 0.609375 -2.148438 0.769531 -2.070312 0.90625 -1.96875 C 0.96875 -1.925781 1.019531 -1.875 1.0625 -1.8125 C 1.113281 -1.757812 1.164062 -1.703125 1.21875 -1.640625 L 0.09375 -0.125 Z M -2.8125 -3.015625 C -2.664062 -2.898438 -2.492188 -2.804688 -2.296875 -2.734375 C -2.109375 -2.671875 -1.90625 -2.625 -1.6875 -2.59375 L -0.828125 -3.75 L -2.671875 -5.125 C -2.742188 -5.03125 -2.8125 -4.941406 -2.875 -4.859375 C -2.9375 -4.773438 -3.019531 -4.660156 -3.125 -4.515625 C -3.257812 -4.335938 -3.332031 -4.164062 -3.34375 -4 C -3.351562 -3.84375 -3.328125 -3.703125 -3.265625 -3.578125 C -3.210938 -3.453125 -3.140625 -3.335938 -3.046875 -3.234375 C -2.960938 -3.140625 -2.882812 -3.066406 -2.8125 -3.015625 Z M -2.8125 -3.015625 "/></g></g></g><g fill="#000000" fill-opacity="1"><g transform="translate(28.122161, 13.984673)"><g><path d="M -1.453125 -1.890625 C -1.710938 -1.910156 -1.984375 -1.921875 -2.265625 -1.921875 C -2.554688 -1.929688 -2.835938 -1.957031 -3.109375 -2 C -3.378906 -2.050781 -3.617188 -2.132812 -3.828125 -2.25 C -4.015625 -2.351562 -4.160156 -2.484375 -4.265625 -2.640625 C -4.378906 -2.804688 -4.4375 -2.972656 -4.4375 -3.140625 C -4.445312 -3.304688 -4.414062 -3.460938 -4.34375 -3.609375 C -4.269531 -3.753906 -4.160156 -3.863281 -4.015625 -3.9375 C -3.867188 -4.019531 -3.695312 -4.0625 -3.5 -4.0625 C -3.300781 -4.070312 -3.109375 -4.023438 -2.921875 -3.921875 C -2.710938 -3.804688 -2.515625 -3.644531 -2.328125 -3.4375 C -2.140625 -3.238281 -1.960938 -3.023438 -1.796875 -2.796875 C -1.640625 -2.566406 -1.484375 -2.34375 -1.328125 -2.125 C -1.265625 -2.050781 -1.242188 -1.988281 -1.265625 -1.9375 C -1.285156 -1.90625 -1.347656 -1.890625 -1.453125 -1.890625 Z M 0.625 -0.9375 C 0.5 -0.707031 0.332031 -0.5625 0.125 -0.5 C -0.0703125 -0.445312 -0.28125 -0.476562 -0.5 -0.59375 C -0.71875 -0.71875 -0.863281 -0.878906 -0.9375 -1.078125 C -1.007812 -1.285156 -0.984375 -1.503906 -0.859375 -1.734375 C -0.734375 -1.960938 -0.566406 -2.101562 -0.359375 -2.15625 C -0.148438 -2.21875 0.0625 -2.1875 0.28125 -2.0625 C 0.5 -1.945312 0.640625 -1.785156 0.703125 -1.578125 C 0.773438 -1.378906 0.75 -1.164062 0.625 -0.9375 Z M 0.625 -0.9375 "/></g></g></g><g fill="#4f89b7" fill-opacity="1"><g transform="translate(4.509328, 17.689336)"><g><path d="M -0.828125 -0.015625 C -0.953125 -0.00390625 -1.066406 -0.015625 -1.171875 -0.046875 C -1.285156 -0.0859375 -1.382812 -0.140625 -1.46875 -0.203125 C -1.550781 -0.265625 -1.613281 -0.34375 -1.65625 -0.4375 C -1.695312 -0.539062 -1.71875 -0.648438 -1.71875 -0.765625 C -1.726562 -0.867188 -1.722656 -0.957031 -1.703125 -1.03125 C -1.691406 -1.113281 -1.671875 -1.179688 -1.640625 -1.234375 C -1.617188 -1.285156 -1.597656 -1.320312 -1.578125 -1.34375 C -1.566406 -1.375 -1.5625 -1.390625 -1.5625 -1.390625 L -1.203125 -1.28125 C -1.242188 -1.25 -1.289062 -1.207031 -1.34375 -1.15625 C -1.40625 -1.113281 -1.457031 -1.0625 -1.5 -1 C -1.550781 -0.945312 -1.585938 -0.890625 -1.609375 -0.828125 C -1.640625 -0.765625 -1.65625 -0.703125 -1.65625 -0.640625 C -1.65625 -0.566406 -1.640625 -0.507812 -1.609375 -0.46875 C -1.578125 -0.425781 -1.535156 -0.394531 -1.484375 -0.375 C -1.429688 -0.351562 -1.378906 -0.34375 -1.328125 -0.34375 C -1.203125 -0.34375 -1.085938 -0.359375 -0.984375 -0.390625 C -0.890625 -0.429688 -0.800781 -0.476562 -0.71875 -0.53125 C -0.644531 -0.59375 -0.578125 -0.65625 -0.515625 -0.71875 C -0.460938 -0.789062 -0.421875 -0.859375 -0.390625 -0.921875 C -0.367188 -0.992188 -0.359375 -1.066406 -0.359375 -1.140625 C -0.359375 -1.171875 -0.363281 -1.203125 -0.375 -1.234375 C -0.382812 -1.273438 -0.398438 -1.304688 -0.421875 -1.328125 C -0.441406 -1.359375 -0.472656 -1.375 -0.515625 -1.375 C -0.566406 -1.375 -0.613281 -1.351562 -0.65625 -1.3125 C -0.707031 -1.28125 -0.753906 -1.234375 -0.796875 -1.171875 C -0.847656 -1.117188 -0.890625 -1.054688 -0.921875 -0.984375 C -0.953125 -0.921875 -0.976562 -0.859375 -1 -0.796875 C -1.03125 -0.734375 -1.054688 -0.675781 -1.078125 -0.625 C -1.097656 -0.570312 -1.113281 -0.535156 -1.125 -0.515625 L -1.140625 -0.515625 L -1.15625 -1.40625 L -0.34375 -1.421875 C -0.34375 -1.421875 -0.328125 -1.414062 -0.296875 -1.40625 C -0.273438 -1.394531 -0.25 -1.375 -0.21875 -1.34375 C -0.1875 -1.320312 -0.148438 -1.285156 -0.109375 -1.234375 C -0.078125 -1.179688 -0.0507812 -1.117188 -0.03125 -1.046875 C -0.0078125 -0.984375 0.00390625 -0.90625 0.015625 -0.8125 C 0.015625 -0.695312 -0.00390625 -0.585938 -0.046875 -0.484375 C -0.0859375 -0.390625 -0.144531 -0.304688 -0.21875 -0.234375 C -0.289062 -0.160156 -0.378906 -0.101562 -0.484375 -0.0625 C -0.597656 -0.03125 -0.710938 -0.015625 -0.828125 -0.015625 Z M -0.828125 -0.015625 "/></g></g></g><g fill="#4f89b7" fill-opacity="1"><g transform="translate(4.4754, 16.262342)"><g><path d="M 0 -0.046875 L -1.25 -0.171875 L -1.1875 -0.78125 L -0.765625 -0.734375 C -0.828125 -0.742188 -0.878906 -0.753906 -0.921875 -0.765625 C -0.972656 -0.785156 -1.019531 -0.816406 -1.0625 -0.859375 C -1.101562 -0.898438 -1.132812 -0.945312 -1.15625 -1 C -1.175781 -1.0625 -1.1875 -1.125 -1.1875 -1.1875 C -1.175781 -1.226562 -1.160156 -1.265625 -1.140625 -1.296875 C -1.117188 -1.328125 -1.09375 -1.347656 -1.0625 -1.359375 L -0.328125 -1.078125 L -0.328125 -1.0625 C -0.378906 -1.0625 -0.425781 -1.054688 -0.46875 -1.046875 C -0.519531 -1.046875 -0.566406 -1.035156 -0.609375 -1.015625 C -0.660156 -0.992188 -0.695312 -0.96875 -0.71875 -0.9375 C -0.738281 -0.90625 -0.75 -0.875 -0.75 -0.84375 C -0.757812 -0.800781 -0.753906 -0.769531 -0.734375 -0.75 C -0.722656 -0.738281 -0.703125 -0.726562 -0.671875 -0.71875 L 0.0625 -0.65625 Z M 0 -0.046875 "/></g></g></g><g fill="#4f89b7" fill-opacity="1"><g transform="translate(4.582364, 15.073312)"><g><path d="M -0.609375 -0.15625 C -0.742188 -0.1875 -0.847656 -0.238281 -0.921875 -0.3125 C -1.003906 -0.382812 -1.0625 -0.46875 -1.09375 -0.5625 C -1.132812 -0.664062 -1.140625 -0.78125 -1.109375 -0.90625 C -1.085938 -1.039062 -1.035156 -1.144531 -0.953125 -1.21875 C -0.878906 -1.300781 -0.789062 -1.359375 -0.6875 -1.390625 C -0.59375 -1.421875 -0.476562 -1.421875 -0.34375 -1.390625 C -0.207031 -1.367188 -0.0976562 -1.320312 -0.015625 -1.25 C 0.0664062 -1.175781 0.125 -1.085938 0.15625 -0.984375 C 0.1875 -0.890625 0.191406 -0.773438 0.171875 -0.640625 C 0.140625 -0.515625 0.0859375 -0.410156 0.015625 -0.328125 C -0.0546875 -0.253906 -0.144531 -0.203125 -0.25 -0.171875 C -0.351562 -0.140625 -0.472656 -0.132812 -0.609375 -0.15625 Z M -1.046875 -0.90625 C -1.054688 -0.882812 -1.050781 -0.863281 -1.03125 -0.84375 C -1.007812 -0.820312 -0.972656 -0.804688 -0.921875 -0.796875 C -0.921875 -0.796875 -0.90625 -0.789062 -0.875 -0.78125 C -0.84375 -0.78125 -0.804688 -0.773438 -0.765625 -0.765625 C -0.722656 -0.753906 -0.679688 -0.742188 -0.640625 -0.734375 C -0.597656 -0.722656 -0.5625 -0.710938 -0.53125 -0.703125 C -0.5 -0.703125 -0.484375 -0.703125 -0.484375 -0.703125 C -0.472656 -0.703125 -0.453125 -0.695312 -0.421875 -0.6875 C -0.398438 -0.6875 -0.367188 -0.679688 -0.328125 -0.671875 C -0.285156 -0.660156 -0.242188 -0.648438 -0.203125 -0.640625 C -0.171875 -0.640625 -0.140625 -0.632812 -0.109375 -0.625 C -0.078125 -0.613281 -0.0546875 -0.609375 -0.046875 -0.609375 C 0.00390625 -0.597656 0.0390625 -0.597656 0.0625 -0.609375 C 0.09375 -0.617188 0.113281 -0.632812 0.125 -0.65625 C 0.125 -0.664062 0.113281 -0.679688 0.09375 -0.703125 C 0.0703125 -0.722656 0.0351562 -0.738281 -0.015625 -0.75 C -0.0234375 -0.75 -0.046875 -0.753906 -0.078125 -0.765625 C -0.109375 -0.773438 -0.140625 -0.78125 -0.171875 -0.78125 C -0.210938 -0.789062 -0.253906 -0.800781 -0.296875 -0.8125 C -0.335938 -0.820312 -0.367188 -0.828125 -0.390625 -0.828125 C -0.421875 -0.835938 -0.441406 -0.84375 -0.453125 -0.84375 C -0.453125 -0.84375 -0.46875 -0.84375 -0.5 -0.84375 C -0.53125 -0.851562 -0.566406 -0.863281 -0.609375 -0.875 C -0.648438 -0.882812 -0.691406 -0.894531 -0.734375 -0.90625 C -0.773438 -0.914062 -0.8125 -0.921875 -0.84375 -0.921875 C -0.875 -0.929688 -0.890625 -0.9375 -0.890625 -0.9375 C -0.941406 -0.945312 -0.976562 -0.945312 -1 -0.9375 C -1.03125 -0.925781 -1.046875 -0.914062 -1.046875 -0.90625 Z M -1.046875 -0.90625 "/></g></g></g><g fill="#4f89b7" fill-opacity="1"><g transform="translate(4.806459, 13.833856)"><g><path d="M 0.28125 -0.625 L -1.171875 -0.4375 L -0.96875 -1 L -0.21875 -1.09375 C -0.226562 -1.113281 -0.25 -1.140625 -0.28125 -1.171875 C -0.3125 -1.203125 -0.335938 -1.21875 -0.359375 -1.21875 L -0.453125 -1.21875 L -0.890625 -1.171875 L -0.6875 -1.71875 L 0.046875 -1.8125 C 0.046875 -1.84375 0.03125 -1.875 0 -1.90625 C -0.03125 -1.9375 -0.0546875 -1.953125 -0.078125 -1.953125 C -0.117188 -1.972656 -0.160156 -1.976562 -0.203125 -1.96875 C -0.242188 -1.957031 -0.285156 -1.941406 -0.328125 -1.921875 C -0.367188 -1.910156 -0.40625 -1.898438 -0.4375 -1.890625 C -0.476562 -1.890625 -0.515625 -1.894531 -0.546875 -1.90625 C -0.566406 -1.914062 -0.578125 -1.925781 -0.578125 -1.9375 C -0.585938 -1.945312 -0.59375 -1.953125 -0.59375 -1.953125 L -0.421875 -2.4375 L 0.546875 -1.34375 L -0.265625 -1.265625 Z M 0.28125 -0.625 "/></g></g></g><g fill="#4f89b7" fill-opacity="1"><g transform="translate(5.583864, 11.900351)"><g/></g></g><g fill="#4f89b7" fill-opacity="1"><g transform="translate(5.778918, 11.481096)"><g><path d="M -1.0625 -0.65625 L -0.75 -1.15625 L 0 -1.125 C -0.0078125 -1.144531 -0.0234375 -1.171875 -0.046875 -1.203125 C -0.0664062 -1.234375 -0.0859375 -1.253906 -0.109375 -1.265625 C -0.140625 -1.285156 -0.175781 -1.296875 -0.21875 -1.296875 C -0.269531 -1.304688 -0.3125 -1.304688 -0.34375 -1.296875 C -0.382812 -1.285156 -0.425781 -1.28125 -0.46875 -1.28125 C -0.507812 -1.289062 -0.539062 -1.300781 -0.5625 -1.3125 C -0.582031 -1.320312 -0.59375 -1.332031 -0.59375 -1.34375 C -0.601562 -1.363281 -0.609375 -1.378906 -0.609375 -1.390625 L -0.328125 -1.828125 L 0.359375 -0.625 C 0.398438 -0.59375 0.441406 -0.578125 0.484375 -0.578125 C 0.523438 -0.578125 0.566406 -0.582031 0.609375 -0.59375 C 0.648438 -0.601562 0.679688 -0.617188 0.703125 -0.640625 C 0.734375 -0.660156 0.757812 -0.679688 0.78125 -0.703125 L 0.953125 -0.28125 C 0.929688 -0.238281 0.894531 -0.207031 0.84375 -0.1875 C 0.800781 -0.164062 0.753906 -0.15625 0.703125 -0.15625 C 0.660156 -0.15625 0.613281 -0.164062 0.5625 -0.1875 C 0.519531 -0.21875 0.488281 -0.25 0.46875 -0.28125 C 0.445312 -0.320312 0.429688 -0.351562 0.421875 -0.375 C 0.410156 -0.40625 0.398438 -0.441406 0.390625 -0.484375 C 0.378906 -0.523438 0.367188 -0.550781 0.359375 -0.5625 Z M -1.0625 -0.65625 "/></g></g></g><g fill="#4f89b7" fill-opacity="1"><g transform="translate(6.472697, 10.370021)"><g><path d="M -0.46875 -0.421875 C -0.570312 -0.503906 -0.640625 -0.59375 -0.671875 -0.6875 C -0.710938 -0.789062 -0.726562 -0.894531 -0.71875 -1 C -0.707031 -1.101562 -0.664062 -1.207031 -0.59375 -1.3125 C -0.5 -1.414062 -0.398438 -1.488281 -0.296875 -1.53125 C -0.191406 -1.570312 -0.0859375 -1.582031 0.015625 -1.5625 C 0.117188 -1.539062 0.222656 -1.488281 0.328125 -1.40625 C 0.429688 -1.320312 0.503906 -1.226562 0.546875 -1.125 C 0.597656 -1.019531 0.613281 -0.914062 0.59375 -0.8125 C 0.582031 -0.707031 0.53125 -0.601562 0.4375 -0.5 C 0.363281 -0.394531 0.273438 -0.320312 0.171875 -0.28125 C 0.078125 -0.238281 -0.0234375 -0.226562 -0.140625 -0.25 C -0.253906 -0.28125 -0.363281 -0.335938 -0.46875 -0.421875 Z M -0.53125 -1.28125 C -0.539062 -1.269531 -0.539062 -1.25 -0.53125 -1.21875 C -0.53125 -1.195312 -0.503906 -1.171875 -0.453125 -1.140625 C -0.453125 -1.140625 -0.4375 -1.128906 -0.40625 -1.109375 C -0.382812 -1.085938 -0.359375 -1.0625 -0.328125 -1.03125 C -0.296875 -1.007812 -0.265625 -0.984375 -0.234375 -0.953125 C -0.203125 -0.929688 -0.171875 -0.910156 -0.140625 -0.890625 C -0.117188 -0.867188 -0.109375 -0.859375 -0.109375 -0.859375 C -0.0976562 -0.847656 -0.0820312 -0.832031 -0.0625 -0.8125 C -0.0390625 -0.800781 -0.015625 -0.78125 0.015625 -0.75 C 0.046875 -0.726562 0.078125 -0.703125 0.109375 -0.671875 C 0.140625 -0.648438 0.164062 -0.628906 0.1875 -0.609375 C 0.21875 -0.597656 0.234375 -0.585938 0.234375 -0.578125 C 0.273438 -0.546875 0.3125 -0.523438 0.34375 -0.515625 C 0.375 -0.515625 0.394531 -0.519531 0.40625 -0.53125 C 0.414062 -0.539062 0.414062 -0.5625 0.40625 -0.59375 C 0.394531 -0.625 0.367188 -0.65625 0.328125 -0.6875 C 0.328125 -0.695312 0.3125 -0.707031 0.28125 -0.71875 C 0.257812 -0.738281 0.234375 -0.757812 0.203125 -0.78125 C 0.171875 -0.8125 0.140625 -0.835938 0.109375 -0.859375 C 0.078125 -0.890625 0.0507812 -0.910156 0.03125 -0.921875 C 0.0078125 -0.941406 -0.00390625 -0.957031 -0.015625 -0.96875 C -0.015625 -0.96875 -0.0234375 -0.976562 -0.046875 -1 C -0.078125 -1.019531 -0.109375 -1.039062 -0.140625 -1.0625 C -0.171875 -1.09375 -0.203125 -1.117188 -0.234375 -1.140625 C -0.265625 -1.171875 -0.289062 -1.195312 -0.3125 -1.21875 C -0.34375 -1.238281 -0.359375 -1.25 -0.359375 -1.25 C -0.410156 -1.28125 -0.445312 -1.296875 -0.46875 -1.296875 C -0.5 -1.296875 -0.519531 -1.289062 -0.53125 -1.28125 Z M -0.53125 -1.28125 "/></g></g></g><g fill="#4f89b7" fill-opacity="1"><g transform="translate(7.264627, 9.376899)"><g><path d="M -0.84375 -0.921875 L -0.40625 -1.34375 L 0.265625 -0.671875 C 0.296875 -0.628906 0.320312 -0.597656 0.34375 -0.578125 C 0.375 -0.566406 0.398438 -0.570312 0.421875 -0.59375 C 0.441406 -0.613281 0.453125 -0.632812 0.453125 -0.65625 C 0.453125 -0.675781 0.441406 -0.691406 0.421875 -0.703125 C 0.410156 -0.710938 0.394531 -0.734375 0.375 -0.765625 L -0.296875 -1.4375 L 0.125 -1.859375 L 1 -0.96875 L 0.578125 -0.546875 L 0.53125 -0.609375 C 0.519531 -0.554688 0.5 -0.503906 0.46875 -0.453125 C 0.4375 -0.398438 0.394531 -0.347656 0.34375 -0.296875 C 0.289062 -0.242188 0.238281 -0.203125 0.1875 -0.171875 C 0.144531 -0.148438 0.09375 -0.144531 0.03125 -0.15625 C -0.0195312 -0.164062 -0.0664062 -0.179688 -0.109375 -0.203125 C -0.148438 -0.234375 -0.1875 -0.265625 -0.21875 -0.296875 Z M -0.84375 -0.921875 "/></g></g></g><g fill="#4f89b7" fill-opacity="1"><g transform="translate(8.263245, 8.412646)"><g><path d="M 0.03125 -0.03125 L -0.71875 -1.03125 L -0.234375 -1.390625 L 0.015625 -1.046875 C -0.0234375 -1.097656 -0.0507812 -1.144531 -0.0625 -1.1875 C -0.0703125 -1.238281 -0.078125 -1.296875 -0.078125 -1.359375 C -0.0859375 -1.421875 -0.078125 -1.476562 -0.046875 -1.53125 C -0.0234375 -1.582031 0.0078125 -1.625 0.0625 -1.65625 C 0.09375 -1.6875 0.128906 -1.703125 0.171875 -1.703125 C 0.222656 -1.710938 0.257812 -1.707031 0.28125 -1.6875 L 0.578125 -0.953125 L 0.5625 -0.9375 C 0.53125 -0.976562 0.492188 -1.015625 0.453125 -1.046875 C 0.410156 -1.085938 0.363281 -1.113281 0.3125 -1.125 C 0.269531 -1.144531 0.226562 -1.15625 0.1875 -1.15625 C 0.15625 -1.15625 0.128906 -1.144531 0.109375 -1.125 C 0.078125 -1.09375 0.0546875 -1.066406 0.046875 -1.046875 C 0.046875 -1.023438 0.0546875 -1 0.078125 -0.96875 L 0.515625 -0.390625 Z M 0.03125 -0.03125 "/></g></g></g><g fill="#4f89b7" fill-opacity="1"><g transform="translate(9.233747, 7.68979)"><g/></g></g><g fill="#4f89b7" fill-opacity="1"><g transform="translate(9.608646, 7.421402)"><g><path d="M -0.21875 -0.5 C -0.25 -0.539062 -0.265625 -0.585938 -0.265625 -0.640625 C -0.273438 -0.691406 -0.269531 -0.742188 -0.25 -0.796875 C -0.226562 -0.847656 -0.195312 -0.894531 -0.15625 -0.9375 C -0.25 -0.96875 -0.332031 -1 -0.40625 -1.03125 C -0.488281 -1.070312 -0.550781 -1.140625 -0.59375 -1.234375 C -0.613281 -1.253906 -0.628906 -1.285156 -0.640625 -1.328125 C -0.648438 -1.367188 -0.648438 -1.40625 -0.640625 -1.4375 C -0.628906 -1.46875 -0.617188 -1.5 -0.609375 -1.53125 C -0.609375 -1.5625 -0.59375 -1.585938 -0.5625 -1.609375 L 0.40625 -2.109375 C 0.425781 -2.097656 0.441406 -2.082031 0.453125 -2.0625 C 0.460938 -2.050781 0.472656 -2.035156 0.484375 -2.015625 C 0.503906 -1.984375 0.507812 -1.945312 0.5 -1.90625 C 0.5 -1.863281 0.488281 -1.828125 0.46875 -1.796875 C 0.457031 -1.765625 0.441406 -1.734375 0.421875 -1.703125 C 0.410156 -1.671875 0.390625 -1.644531 0.359375 -1.625 C 0.304688 -1.601562 0.25 -1.585938 0.1875 -1.578125 C 0.125 -1.566406 0.0625 -1.5625 0 -1.5625 C -0.0703125 -1.5625 -0.140625 -1.566406 -0.203125 -1.578125 C -0.265625 -1.585938 -0.320312 -1.585938 -0.375 -1.578125 C -0.425781 -1.566406 -0.472656 -1.550781 -0.515625 -1.53125 C -0.523438 -1.53125 -0.53125 -1.519531 -0.53125 -1.5 C -0.53125 -1.488281 -0.523438 -1.476562 -0.515625 -1.46875 C -0.503906 -1.4375 -0.472656 -1.414062 -0.421875 -1.40625 C -0.378906 -1.394531 -0.328125 -1.390625 -0.265625 -1.390625 C -0.210938 -1.398438 -0.148438 -1.410156 -0.078125 -1.421875 C -0.00390625 -1.441406 0.0703125 -1.453125 0.15625 -1.453125 C 0.238281 -1.460938 0.316406 -1.46875 0.390625 -1.46875 C 0.472656 -1.476562 0.550781 -1.46875 0.625 -1.4375 C 0.695312 -1.414062 0.765625 -1.382812 0.828125 -1.34375 C 0.890625 -1.300781 0.945312 -1.238281 1 -1.15625 C 1.039062 -1.0625 1.0625 -0.960938 1.0625 -0.859375 C 1.0625 -0.753906 1.03125 -0.65625 0.96875 -0.5625 C 0.90625 -0.46875 0.804688 -0.382812 0.671875 -0.3125 C 0.585938 -0.269531 0.5 -0.238281 0.40625 -0.21875 C 0.320312 -0.195312 0.238281 -0.191406 0.15625 -0.203125 C 0.0703125 -0.222656 0 -0.253906 -0.0625 -0.296875 C -0.125 -0.347656 -0.175781 -0.414062 -0.21875 -0.5 Z M 0.9375 -0.78125 C 0.925781 -0.820312 0.894531 -0.851562 0.84375 -0.875 C 0.789062 -0.894531 0.726562 -0.90625 0.65625 -0.90625 C 0.582031 -0.90625 0.5 -0.898438 0.40625 -0.890625 C 0.320312 -0.890625 0.234375 -0.890625 0.140625 -0.890625 C 0.0546875 -0.898438 -0.0234375 -0.910156 -0.109375 -0.921875 C -0.0859375 -0.890625 -0.0546875 -0.851562 -0.015625 -0.8125 C 0.015625 -0.78125 0.0546875 -0.742188 0.109375 -0.703125 C 0.171875 -0.671875 0.234375 -0.644531 0.296875 -0.625 C 0.359375 -0.601562 0.421875 -0.582031 0.484375 -0.5625 C 0.554688 -0.539062 0.625 -0.53125 0.6875 -0.53125 C 0.757812 -0.539062 0.820312 -0.554688 0.875 -0.578125 C 0.914062 -0.597656 0.941406 -0.628906 0.953125 -0.671875 C 0.960938 -0.710938 0.957031 -0.75 0.9375 -0.78125 Z M 0.9375 -0.78125 "/></g></g></g><g fill="#4f89b7" fill-opacity="1"><g transform="translate(10.832059, 6.772016)"><g><path d="M -0.1875 -0.59375 C -0.238281 -0.71875 -0.253906 -0.832031 -0.234375 -0.9375 C -0.222656 -1.039062 -0.179688 -1.140625 -0.109375 -1.234375 C -0.046875 -1.328125 0.0390625 -1.394531 0.15625 -1.4375 C 0.28125 -1.488281 0.394531 -1.5 0.5 -1.46875 C 0.613281 -1.445312 0.710938 -1.398438 0.796875 -1.328125 C 0.878906 -1.265625 0.945312 -1.171875 1 -1.046875 C 1.039062 -0.921875 1.050781 -0.800781 1.03125 -0.6875 C 1.019531 -0.570312 0.976562 -0.472656 0.90625 -0.390625 C 0.84375 -0.316406 0.75 -0.253906 0.625 -0.203125 C 0.507812 -0.160156 0.394531 -0.144531 0.28125 -0.15625 C 0.175781 -0.164062 0.0820312 -0.207031 0 -0.28125 C -0.0820312 -0.363281 -0.144531 -0.46875 -0.1875 -0.59375 Z M 0.1875 -1.375 C 0.164062 -1.375 0.148438 -1.359375 0.140625 -1.328125 C 0.140625 -1.304688 0.148438 -1.269531 0.171875 -1.21875 C 0.171875 -1.21875 0.175781 -1.203125 0.1875 -1.171875 C 0.195312 -1.140625 0.207031 -1.101562 0.21875 -1.0625 C 0.238281 -1.019531 0.253906 -0.976562 0.265625 -0.9375 C 0.285156 -0.90625 0.300781 -0.875 0.3125 -0.84375 C 0.320312 -0.8125 0.328125 -0.796875 0.328125 -0.796875 C 0.328125 -0.785156 0.332031 -0.769531 0.34375 -0.75 C 0.351562 -0.726562 0.363281 -0.695312 0.375 -0.65625 C 0.394531 -0.613281 0.410156 -0.570312 0.421875 -0.53125 C 0.441406 -0.5 0.457031 -0.46875 0.46875 -0.4375 C 0.476562 -0.40625 0.484375 -0.382812 0.484375 -0.375 C 0.503906 -0.332031 0.523438 -0.300781 0.546875 -0.28125 C 0.578125 -0.257812 0.601562 -0.25 0.625 -0.25 C 0.632812 -0.257812 0.640625 -0.28125 0.640625 -0.3125 C 0.648438 -0.34375 0.644531 -0.378906 0.625 -0.421875 C 0.625 -0.429688 0.617188 -0.453125 0.609375 -0.484375 C 0.597656 -0.515625 0.582031 -0.546875 0.5625 -0.578125 C 0.550781 -0.617188 0.535156 -0.660156 0.515625 -0.703125 C 0.503906 -0.742188 0.492188 -0.773438 0.484375 -0.796875 C 0.472656 -0.816406 0.46875 -0.832031 0.46875 -0.84375 C 0.46875 -0.84375 0.460938 -0.859375 0.453125 -0.890625 C 0.441406 -0.921875 0.425781 -0.953125 0.40625 -0.984375 C 0.394531 -1.023438 0.378906 -1.066406 0.359375 -1.109375 C 0.347656 -1.148438 0.335938 -1.1875 0.328125 -1.21875 C 0.316406 -1.25 0.3125 -1.265625 0.3125 -1.265625 C 0.289062 -1.316406 0.265625 -1.347656 0.234375 -1.359375 C 0.210938 -1.378906 0.195312 -1.382812 0.1875 -1.375 Z M 0.1875 -1.375 "/></g></g></g><g fill="#4f89b7" fill-opacity="1"><g transform="translate(12.021728, 6.316067)"><g><path d="M 0.703125 -0.140625 C 0.609375 -0.117188 0.515625 -0.113281 0.421875 -0.125 C 0.328125 -0.132812 0.242188 -0.160156 0.171875 -0.203125 C 0.0976562 -0.242188 0.0351562 -0.296875 -0.015625 -0.359375 C -0.0664062 -0.429688 -0.101562 -0.519531 -0.125 -0.625 C -0.15625 -0.75 -0.15625 -0.863281 -0.125 -0.96875 C -0.101562 -1.070312 -0.0546875 -1.160156 0.015625 -1.234375 C 0.0976562 -1.316406 0.207031 -1.375 0.34375 -1.40625 C 0.40625 -1.425781 0.472656 -1.4375 0.546875 -1.4375 C 0.617188 -1.4375 0.679688 -1.429688 0.734375 -1.421875 C 0.796875 -1.421875 0.847656 -1.40625 0.890625 -1.375 L 0.734375 -0.59375 L 0.703125 -0.609375 C 0.691406 -0.648438 0.679688 -0.695312 0.671875 -0.75 C 0.660156 -0.800781 0.640625 -0.851562 0.609375 -0.90625 C 0.585938 -0.957031 0.5625 -1.015625 0.53125 -1.078125 C 0.507812 -1.140625 0.488281 -1.191406 0.46875 -1.234375 C 0.445312 -1.273438 0.414062 -1.304688 0.375 -1.328125 C 0.34375 -1.347656 0.3125 -1.351562 0.28125 -1.34375 C 0.257812 -1.332031 0.242188 -1.304688 0.234375 -1.265625 C 0.222656 -1.234375 0.21875 -1.191406 0.21875 -1.140625 C 0.21875 -1.097656 0.222656 -1.054688 0.234375 -1.015625 C 0.253906 -0.921875 0.285156 -0.835938 0.328125 -0.765625 C 0.367188 -0.703125 0.414062 -0.644531 0.46875 -0.59375 C 0.519531 -0.550781 0.570312 -0.519531 0.625 -0.5 C 0.675781 -0.476562 0.734375 -0.476562 0.796875 -0.5 C 0.835938 -0.507812 0.875 -0.519531 0.90625 -0.53125 C 0.945312 -0.550781 0.976562 -0.578125 1 -0.609375 C 1.019531 -0.648438 1.023438 -0.6875 1.015625 -0.71875 C 1.046875 -0.707031 1.066406 -0.6875 1.078125 -0.65625 C 1.097656 -0.625 1.109375 -0.585938 1.109375 -0.546875 C 1.109375 -0.503906 1.09375 -0.453125 1.0625 -0.390625 C 1.039062 -0.335938 1 -0.289062 0.9375 -0.25 C 0.875 -0.207031 0.796875 -0.171875 0.703125 -0.140625 Z M 0.703125 -0.140625 "/></g></g></g><g fill="#4f89b7" fill-opacity="1"><g transform="translate(13.175012, 6.027379)"><g><path d="M -0.140625 -1.25 L 0.453125 -1.34375 L 0.65625 -0.109375 L 0.0625 -0.015625 Z M -0.203125 -1.515625 C -0.210938 -1.578125 -0.207031 -1.625 -0.1875 -1.65625 C -0.164062 -1.6875 -0.128906 -1.707031 -0.078125 -1.71875 C -0.0234375 -1.738281 0.03125 -1.753906 0.09375 -1.765625 C 0.15625 -1.773438 0.207031 -1.78125 0.25 -1.78125 C 0.289062 -1.78125 0.328125 -1.769531 0.359375 -1.75 C 0.390625 -1.726562 0.410156 -1.6875 0.421875 -1.625 C 0.429688 -1.570312 0.425781 -1.53125 0.40625 -1.5 C 0.394531 -1.476562 0.378906 -1.457031 0.359375 -1.4375 C 0.347656 -1.425781 0.320312 -1.414062 0.28125 -1.40625 C 0.238281 -1.394531 0.195312 -1.382812 0.15625 -1.375 C 0.101562 -1.363281 0.0546875 -1.359375 0.015625 -1.359375 C -0.015625 -1.359375 -0.046875 -1.359375 -0.078125 -1.359375 C -0.117188 -1.367188 -0.144531 -1.382812 -0.15625 -1.40625 C -0.175781 -1.425781 -0.191406 -1.460938 -0.203125 -1.515625 Z M -0.203125 -1.515625 "/></g></g></g><g fill="#4f89b7" fill-opacity="1"><g transform="translate(13.858867, 5.896334)"><g><path d="M -0.015625 -0.625 C -0.0234375 -0.738281 -0.0195312 -0.835938 0 -0.921875 C 0.03125 -1.003906 0.0703125 -1.070312 0.125 -1.125 C 0.175781 -1.175781 0.234375 -1.210938 0.296875 -1.234375 C 0.367188 -1.265625 0.441406 -1.285156 0.515625 -1.296875 L 1.203125 -1.34375 L 1.296875 -0.40625 C 1.296875 -0.363281 1.300781 -0.316406 1.3125 -0.265625 C 1.320312 -0.222656 1.34375 -0.1875 1.375 -0.15625 C 1.351562 -0.132812 1.320312 -0.113281 1.28125 -0.09375 C 1.238281 -0.0703125 1.191406 -0.0546875 1.140625 -0.046875 C 1.066406 -0.046875 1.003906 -0.0507812 0.953125 -0.0625 C 0.910156 -0.0703125 0.875 -0.09375 0.84375 -0.125 C 0.820312 -0.09375 0.789062 -0.0664062 0.75 -0.046875 C 0.71875 -0.0234375 0.6875 -0.015625 0.65625 -0.015625 C 0.632812 -0.015625 0.617188 -0.015625 0.609375 -0.015625 C 0.535156 -0.00390625 0.460938 -0.00390625 0.390625 -0.015625 C 0.316406 -0.0351562 0.25 -0.0703125 0.1875 -0.125 C 0.132812 -0.1875 0.0859375 -0.253906 0.046875 -0.328125 C 0.015625 -0.398438 -0.00390625 -0.5 -0.015625 -0.625 Z M 0.59375 -0.359375 C 0.59375 -0.316406 0.59375 -0.269531 0.59375 -0.21875 C 0.59375 -0.175781 0.597656 -0.140625 0.609375 -0.109375 C 0.628906 -0.0859375 0.648438 -0.078125 0.671875 -0.078125 C 0.691406 -0.078125 0.707031 -0.0820312 0.71875 -0.09375 C 0.726562 -0.113281 0.726562 -0.132812 0.71875 -0.15625 C 0.71875 -0.1875 0.71875 -0.21875 0.71875 -0.25 L 0.65625 -1.21875 C 0.632812 -1.226562 0.613281 -1.234375 0.59375 -1.234375 C 0.5625 -1.234375 0.539062 -1.210938 0.53125 -1.171875 C 0.53125 -1.128906 0.535156 -1.066406 0.546875 -0.984375 Z M 0.59375 -0.359375 "/></g></g></g><g fill="#4f89b7" fill-opacity="1"><g transform="translate(15.16903, 5.813567)"><g><path d="M 0.078125 -1.671875 L 0.65625 -1.65625 L 0.625 -0.296875 C 0.625 -0.253906 0.628906 -0.207031 0.640625 -0.15625 C 0.648438 -0.113281 0.671875 -0.078125 0.703125 -0.046875 C 0.671875 -0.0234375 0.632812 -0.00390625 0.59375 0.015625 C 0.550781 0.0351562 0.503906 0.0390625 0.453125 0.03125 C 0.316406 0.03125 0.210938 -0.00390625 0.140625 -0.078125 C 0.078125 -0.148438 0.046875 -0.265625 0.046875 -0.421875 Z M 0.078125 -1.671875 "/></g></g></g></svg>