<svg xmlns="http://www.w3.org/2000/svg" xmlns:xlink="http://www.w3.org/1999/xlink" width="100" zoomAndPan="magnify" viewBox="0 0 75 74.999997" height="100" preserveAspectRatio="xMidYMid meet" version="1.0"><defs><g/><clipPath id="e676f1bc2f"><path d="M 2 16.417969 L 69 16.417969 L 69 64 L 2 64 Z M 2 16.417969 " clip-rule="nonzero"/></clipPath><clipPath id="c489c46d23"><path d="M 36 1 L 52 1 L 52 16 L 36 16 Z M 36 1 " clip-rule="nonzero"/></clipPath><clipPath id="a1ee64898f"><path d="M 37.386719 0 L 52.570312 2.054688 L 50.519531 17.238281 L 35.335938 15.1875 Z M 37.386719 0 " clip-rule="nonzero"/></clipPath><clipPath id="354a6d3c3b"><path d="M 37.386719 0 L 52.570312 2.054688 L 50.519531 17.238281 L 35.335938 15.1875 Z M 37.386719 0 " clip-rule="nonzero"/></clipPath><clipPath id="98c86a118e"><path d="M 49.378906 4.898438 L 62.878906 4.898438 L 62.878906 19.148438 L 49.378906 19.148438 Z M 49.378906 4.898438 " clip-rule="nonzero"/></clipPath></defs><g clip-path="url(#e676f1bc2f)"><path fill="#4f89b7" d="M 67.796875 25.460938 C 65.304688 20.652344 57.710938 19.199219 48.136719 20.910156 C 46.34375 19.632812 44.40625 18.628906 42.324219 17.902344 C 40.242188 17.171875 38.105469 16.75 35.902344 16.628906 C 35.25 16.515625 34.589844 16.460938 33.925781 16.464844 L 33.707031 16.464844 C 30.765625 16.511719 27.328125 17.480469 24.027344 19.183594 C 23.796875 19.304688 23.574219 19.429688 23.347656 19.550781 L 23.277344 19.589844 L 23.210938 19.628906 C 22.550781 20.023438 21.925781 20.394531 21.292969 20.8125 L 21.21875 20.859375 C 19.289062 22.125 17.617188 23.671875 16.207031 25.5 C 15.742188 26.117188 15.347656 26.777344 15.019531 27.476562 C 14.46875 28.355469 13.980469 29.269531 13.554688 30.21875 L 13.382812 30.613281 C 12.109375 33.566406 11.472656 36.65625 11.480469 39.875 C 4.523438 46.726562 1.28125 53.804688 3.785156 58.628906 C 6.691406 64.242188 16.539062 65.285156 28.382812 62.070312 C 30.449219 62.660156 32.558594 62.953125 34.707031 62.953125 C 35.722656 62.953125 36.734375 62.882812 37.738281 62.75 C 38.742188 62.617188 39.734375 62.417969 40.714844 62.152344 C 41.691406 61.890625 42.652344 61.5625 43.585938 61.171875 C 44.523438 60.78125 45.429688 60.332031 46.304688 59.820312 C 47.183594 59.3125 48.023438 58.746094 48.824219 58.128906 C 49.628906 57.507812 50.386719 56.839844 51.101562 56.121094 C 51.816406 55.398438 52.480469 54.636719 53.09375 53.828125 C 53.707031 53.023438 54.265625 52.179688 54.769531 51.296875 C 55.460938 50.074219 56.039062 48.796875 56.507812 47.46875 C 65.898438 39.664062 70.683594 31.050781 67.796875 25.460938 Z M 47.707031 21.035156 C 48.378906 21.5 49.023438 22 49.640625 22.539062 C 49.007812 22.140625 48.355469 21.792969 47.691406 21.464844 C 47.6875 21.320312 47.691406 21.175781 47.695312 21.035156 Z M 51.125 23.953125 C 51.378906 24.214844 51.636719 24.503906 51.914062 24.804688 C 51.988281 25.734375 51.9375 26.65625 51.765625 27.570312 C 51.265625 27.078125 50.761719 26.613281 50.253906 26.199219 C 49.292969 25.40625 48.269531 24.699219 47.1875 24.078125 C 47.421875 23.347656 47.582031 22.597656 47.664062 21.832031 C 48.871094 22.441406 50.023438 23.148438 51.113281 23.953125 Z M 52.277344 25.257812 C 53.3125 26.515625 54.203125 27.863281 54.953125 29.308594 C 55.398438 30.167969 55.792969 31.050781 56.136719 31.953125 C 56.085938 32.347656 56.007812 32.789062 55.910156 33.226562 C 54.882812 31.261719 53.601562 29.480469 52.066406 27.882812 C 52.234375 27.015625 52.304688 26.140625 52.265625 25.257812 Z M 18.894531 55.707031 C 18.5 55.136719 18.164062 54.558594 17.835938 53.972656 C 19.226562 54.421875 20.652344 54.707031 22.109375 54.820312 C 22.257812 55.066406 22.414062 55.308594 22.574219 55.550781 C 21.347656 55.679688 20.117188 55.730469 18.882812 55.699219 Z M 32.382812 20.8125 L 32.839844 20.8125 C 32.726562 21.253906 32.550781 21.664062 32.3125 22.050781 C 31.019531 21.820312 29.714844 21.671875 28.402344 21.605469 C 28.492188 21.421875 28.550781 21.230469 28.574219 21.03125 C 29.839844 20.882812 31.109375 20.8125 32.382812 20.8125 Z M 48.203125 44.816406 C 47.558594 45.3125 46.886719 45.792969 46.195312 46.273438 C 45.285156 44.289062 44.253906 42.375 43.105469 40.523438 C 44.632812 39.332031 46.039062 38.011719 47.328125 36.566406 C 47.902344 37.339844 48.421875 38.105469 48.882812 38.851562 C 49.574219 39.976562 50.1875 41.140625 50.722656 42.347656 C 49.929688 43.214844 49.085938 44.039062 48.203125 44.8125 Z M 22.777344 23.976562 C 22.882812 24.078125 23.003906 24.15625 23.140625 24.207031 L 23.277344 24.261719 L 23.3125 24.261719 C 22.652344 25.335938 22.054688 26.445312 21.527344 27.589844 C 21.074219 27.558594 20.632812 27.457031 20.207031 27.285156 C 20.992188 26.128906 21.851562 25.023438 22.777344 23.976562 Z M 25.007812 24.167969 C 25.042969 24.679688 25.125 25.679688 25.285156 27.058594 C 24.785156 27.222656 24.277344 27.355469 23.761719 27.453125 C 24.039062 25.972656 24.3125 24.890625 24.476562 24.289062 C 24.65625 24.261719 24.832031 24.226562 25.007812 24.179688 Z M 26.164062 23.695312 L 27.460938 26.183594 C 26.875 26.488281 26.269531 26.75 25.648438 26.972656 C 25.484375 25.550781 25.40625 24.539062 25.375 24.078125 C 25.648438 23.972656 25.910156 23.851562 26.164062 23.707031 Z M 27.164062 23.039062 C 27.433594 23.257812 28.257812 23.929688 29.429688 24.980469 C 28.894531 25.359375 28.335938 25.703125 27.757812 26.007812 L 26.472656 23.535156 C 26.714844 23.386719 26.945312 23.226562 27.164062 23.050781 Z M 27.460938 54.355469 C 26.773438 53.195312 26.164062 51.992188 25.640625 50.75 C 25.3125 49.957031 25.007812 49.167969 24.710938 48.242188 C 26.636719 48.027344 28.527344 47.644531 30.382812 47.085938 C 31.230469 49.109375 32.207031 51.066406 33.308594 52.964844 C 32.671875 53.199219 32.042969 53.421875 31.414062 53.636719 C 30.109375 53.953125 28.792969 54.195312 27.460938 54.355469 Z M 33.601562 38.113281 L 36.722656 44.144531 C 34.75 45.15625 32.707031 45.988281 30.59375 46.640625 C 29.730469 44.554688 28.976562 42.433594 28.339844 40.269531 C 30.152344 39.695312 31.90625 38.976562 33.601562 38.113281 Z M 28.25 39.9375 C 28.070312 39.3125 27.894531 38.683594 27.734375 38.070312 C 27.335938 36.523438 26.941406 34.90625 26.640625 33.324219 C 27.910156 32.898438 29.140625 32.378906 30.332031 31.769531 L 33.441406 37.816406 C 31.769531 38.664062 30.039062 39.371094 28.25 39.9375 Z M 36.882812 44.472656 L 39.789062 50.105469 C 37.796875 51.136719 35.746094 52.050781 33.644531 52.84375 C 32.550781 50.953125 31.578125 49 30.730469 46.988281 C 32.855469 46.328125 34.90625 45.492188 36.882812 44.472656 Z M 33.917969 37.953125 C 35.605469 37.070312 37.210938 36.058594 38.730469 34.910156 C 40.125 36.6875 41.425781 38.535156 42.628906 40.449219 C 40.867188 41.796875 39.003906 42.980469 37.039062 44.007812 Z M 33.757812 37.636719 L 30.625 31.59375 C 31.808594 30.976562 32.941406 30.269531 34.019531 29.480469 C 35.1875 30.699219 36.300781 31.945312 37.347656 33.191406 C 37.742188 33.648438 38.136719 34.136719 38.53125 34.632812 C 37.023438 35.765625 35.429688 36.765625 33.757812 37.636719 Z M 30.472656 31.277344 L 27.921875 26.351562 C 28.539062 26.023438 29.128906 25.652344 29.695312 25.246094 C 31.078125 26.5 32.460938 27.84375 33.789062 29.238281 C 32.730469 29.996094 31.625 30.675781 30.472656 31.277344 Z M 30.152344 31.4375 C 28.992188 32.03125 27.792969 32.539062 26.558594 32.957031 C 26.195312 31.070312 25.898438 29.175781 25.671875 27.320312 C 26.335938 27.089844 26.980469 26.816406 27.601562 26.5 Z M 26.21875 33.074219 C 25.164062 33.417969 24.089844 33.683594 22.996094 33.863281 C 23.105469 31.84375 23.339844 29.839844 23.695312 27.847656 C 24.25 27.753906 24.792969 27.621094 25.328125 27.453125 C 25.554688 29.289062 25.855469 31.1875 26.21875 33.074219 Z M 26.285156 33.425781 C 26.605469 35.035156 26.96875 36.628906 27.375 38.167969 C 27.527344 38.757812 27.703125 39.355469 27.898438 40.050781 C 26.355469 40.527344 24.785156 40.875 23.1875 41.09375 C 23.070312 40.054688 22.996094 39.074219 22.957031 38.097656 C 22.910156 36.839844 22.917969 35.535156 22.957031 34.214844 C 24.082031 34.039062 25.191406 33.773438 26.273438 33.421875 Z M 28 40.386719 C 28.628906 42.550781 29.371094 44.671875 30.230469 46.753906 C 28.382812 47.308594 26.5 47.691406 24.582031 47.898438 C 23.921875 45.785156 23.464844 43.628906 23.210938 41.433594 C 24.832031 41.210938 26.429688 40.863281 28 40.382812 Z M 40.113281 49.9375 L 37.199219 44.3125 C 39.175781 43.289062 41.050781 42.101562 42.820312 40.75 C 43.96875 42.601562 44.996094 44.515625 45.898438 46.492188 C 44.039062 47.753906 42.109375 48.902344 40.113281 49.9375 Z M 39.011719 34.695312 C 40.304688 33.699219 41.507812 32.605469 42.625 31.414062 C 44.269531 32.894531 45.765625 34.511719 47.113281 36.265625 C 45.832031 37.714844 44.433594 39.03125 42.910156 40.222656 C 41.707031 38.3125 40.40625 36.46875 39.011719 34.695312 Z M 38.792969 34.417969 C 38.398438 33.910156 38.003906 33.421875 37.609375 32.957031 C 36.570312 31.71875 35.464844 30.476562 34.3125 29.265625 C 35.21875 28.589844 36.066406 27.84375 36.851562 27.035156 C 37.988281 27.761719 39.078125 28.527344 40.097656 29.3125 C 40.851562 29.890625 41.585938 30.496094 42.351562 31.183594 C 41.253906 32.355469 40.066406 33.433594 38.792969 34.417969 Z M 34.078125 29.007812 C 32.746094 27.621094 31.375 26.277344 29.988281 25.015625 C 30.429688 24.6875 30.847656 24.328125 31.242188 23.9375 C 33.070312 24.796875 34.84375 25.765625 36.554688 26.84375 C 35.785156 27.628906 34.960938 28.351562 34.078125 29.007812 Z M 31.171875 23.515625 C 29.675781 22.820312 28.542969 22.386719 28.011719 22.199219 L 28.136719 22.03125 L 28.1875 21.949219 C 29.503906 22.011719 30.808594 22.160156 32.101562 22.394531 C 31.824219 22.796875 31.515625 23.167969 31.171875 23.515625 Z M 27.777344 22.488281 C 28.21875 22.648438 29.359375 23.066406 30.902344 23.78125 C 30.527344 24.136719 30.132812 24.472656 29.714844 24.78125 C 28.5625 23.742188 27.738281 23.070312 27.433594 22.800781 C 27.558594 22.710938 27.675781 22.601562 27.777344 22.488281 Z M 23.828125 24.371094 L 24.089844 24.371094 C 23.925781 24.992188 23.65625 26.09375 23.386719 27.535156 C 22.992188 27.597656 22.597656 27.628906 22.199219 27.636719 L 21.878906 27.636719 C 22.414062 26.507812 23.011719 25.417969 23.675781 24.359375 Z M 21.734375 27.988281 L 22.230469 27.988281 C 22.59375 27.980469 22.960938 27.949219 23.324219 27.898438 C 22.972656 29.882812 22.742188 31.882812 22.636719 33.894531 C 22.023438 33.980469 21.410156 34.027344 20.792969 34.039062 L 20.589844 34.039062 C 20.25 34.039062 19.910156 34.039062 19.578125 33.992188 C 20.113281 31.917969 20.832031 29.910156 21.734375 27.96875 Z M 20.585938 34.417969 L 20.796875 34.417969 C 21.40625 34.402344 22.011719 34.355469 22.617188 34.273438 C 22.558594 35.574219 22.554688 36.867188 22.617188 38.109375 C 22.65625 39.09375 22.730469 40.117188 22.847656 41.148438 C 21.886719 41.265625 20.921875 41.324219 19.953125 41.328125 C 19.519531 41.328125 19.089844 41.328125 18.667969 41.289062 C 18.660156 39.59375 18.804688 37.90625 19.09375 36.234375 C 19.203125 35.613281 19.339844 34.980469 19.488281 34.359375 C 19.851562 34.382812 20.21875 34.398438 20.585938 34.398438 Z M 19.945312 41.660156 C 20.925781 41.660156 21.898438 41.597656 22.871094 41.480469 C 23.128906 43.671875 23.585938 45.824219 24.234375 47.933594 C 23.441406 48 22.695312 48.035156 21.957031 48.035156 C 21.140625 48.039062 20.328125 47.992188 19.519531 47.902344 C 18.972656 45.84375 18.683594 43.75 18.65625 41.621094 C 19.078125 41.648438 19.511719 41.660156 19.945312 41.660156 Z M 21.960938 48.382812 C 22.75 48.382812 23.542969 48.34375 24.332031 48.269531 C 24.636719 49.210938 24.953125 50.066406 25.296875 50.878906 C 25.8125 52.089844 26.402344 53.257812 27.074219 54.390625 C 26.097656 54.496094 25.117188 54.550781 24.132812 54.554688 C 23.515625 54.554688 22.898438 54.527344 22.304688 54.480469 C 21.152344 52.554688 20.257812 50.515625 19.625 48.363281 C 19.621094 48.328125 19.609375 48.296875 19.597656 48.261719 C 20.382812 48.347656 21.171875 48.390625 21.960938 48.390625 Z M 24.164062 54.90625 C 25.207031 54.902344 26.25 54.84375 27.289062 54.726562 L 27.289062 54.757812 C 25.855469 55.089844 24.40625 55.339844 22.941406 55.511719 C 22.792969 55.292969 22.648438 55.074219 22.511719 54.855469 C 23.074219 54.898438 23.617188 54.914062 24.164062 54.914062 Z M 42.882812 31.15625 C 43.835938 30.117188 44.6875 29.003906 45.4375 27.808594 C 47.160156 29.058594 48.703125 30.5 50.066406 32.136719 C 49.300781 33.511719 48.398438 34.796875 47.367188 35.992188 C 46.019531 34.242188 44.523438 32.632812 42.882812 31.15625 Z M 42.621094 30.921875 C 41.832031 30.234375 41.097656 29.613281 40.339844 29.03125 C 39.332031 28.238281 38.253906 27.492188 37.125 26.773438 C 37.839844 26.015625 38.46875 25.1875 39.007812 24.292969 C 39.640625 24.542969 40.257812 24.8125 40.851562 25.085938 C 42.359375 25.796875 43.792969 26.632812 45.152344 27.59375 C 44.40625 28.78125 43.554688 29.890625 42.605469 30.921875 Z M 36.828125 26.570312 C 35.117188 25.492188 33.347656 24.523438 31.519531 23.660156 C 31.878906 23.28125 32.199219 22.871094 32.488281 22.433594 C 34.605469 22.816406 36.667969 23.390625 38.679688 24.160156 C 38.144531 25.035156 37.523438 25.839844 36.8125 26.578125 Z M 22.59375 23.652344 C 21.609375 24.757812 20.703125 25.917969 19.875 27.140625 C 19.558594 26.964844 19.304688 26.722656 19.121094 26.414062 C 20.183594 25.234375 21.335938 24.15625 22.585938 23.179688 C 22.550781 23.339844 22.550781 23.5 22.59375 23.660156 Z M 19.996094 27.578125 C 20.429688 27.765625 20.886719 27.882812 21.359375 27.925781 C 20.457031 29.871094 19.746094 31.882812 19.21875 33.957031 C 18.40625 33.875 17.628906 33.660156 16.886719 33.3125 C 17.734375 31.300781 18.769531 29.394531 19.996094 27.585938 Z M 19.132812 34.300781 C 18.980469 34.917969 18.851562 35.539062 18.738281 36.144531 C 18.4375 37.828125 18.285156 39.523438 18.285156 41.230469 C 17.164062 41.144531 16.058594 40.941406 14.980469 40.621094 C 15.238281 38.257812 15.8125 35.972656 16.703125 33.769531 L 16.75 33.652344 C 17.507812 34.003906 18.300781 34.226562 19.132812 34.3125 Z M 18.296875 41.59375 C 18.332031 43.71875 18.617188 45.804688 19.15625 47.859375 C 17.789062 47.6875 16.472656 47.339844 15.203125 46.8125 C 15.058594 46.050781 14.960938 45.285156 14.90625 44.511719 C 14.828125 43.339844 14.839844 42.164062 14.941406 40.992188 C 16.039062 41.3125 17.15625 41.511719 18.296875 41.59375 Z M 19.238281 48.226562 C 19.238281 48.253906 19.238281 48.277344 19.238281 48.304688 C 19.238281 48.359375 19.261719 48.410156 19.277344 48.46875 C 19.898438 50.570312 20.769531 52.5625 21.882812 54.449219 C 20.40625 54.3125 18.972656 53.996094 17.574219 53.496094 C 16.511719 51.515625 15.753906 49.429688 15.296875 47.230469 C 16.566406 47.730469 17.882812 48.0625 19.238281 48.226562 Z M 51.246094 42.292969 C 52.265625 41.144531 53.179688 39.917969 53.988281 38.609375 C 54.078125 38.820312 54.164062 39.046875 54.25 39.265625 C 53.304688 40.328125 52.304688 41.335938 51.246094 42.285156 Z M 50.984375 42.058594 C 50.457031 40.886719 49.859375 39.75 49.1875 38.65625 C 48.707031 37.863281 48.160156 37.074219 47.566406 36.285156 C 48.566406 35.132812 49.445312 33.902344 50.210938 32.582031 C 50.238281 32.535156 50.265625 32.488281 50.289062 32.4375 C 50.328125 32.476562 50.363281 32.519531 50.398438 32.5625 C 51.777344 34.300781 52.917969 36.183594 53.816406 38.214844 C 52.992188 39.578125 52.046875 40.859375 50.984375 42.050781 Z M 50.234375 31.808594 C 48.867188 30.1875 47.324219 28.757812 45.609375 27.511719 L 45.644531 27.449219 C 45.699219 27.363281 45.753906 27.273438 45.800781 27.183594 C 46.304688 26.3125 46.71875 25.398438 47.050781 24.449219 C 48.089844 25.046875 49.074219 25.726562 50 26.488281 C 50.578125 26.964844 51.125 27.46875 51.648438 28.003906 C 51.347656 29.332031 50.875 30.597656 50.234375 31.800781 Z M 46.855469 23.898438 C 44.785156 22.753906 42.597656 21.910156 40.296875 21.359375 L 40.070312 21.304688 C 40.148438 20.671875 40.078125 20.050781 39.871094 19.449219 C 42.464844 19.796875 44.941406 20.539062 47.304688 21.667969 C 47.230469 22.429688 47.082031 23.179688 46.855469 23.910156 Z M 40.015625 21.660156 L 40.21875 21.707031 C 42.507812 22.253906 44.683594 23.101562 46.742188 24.246094 C 46.375 25.308594 45.902344 26.320312 45.324219 27.28125 C 43.945312 26.316406 42.496094 25.472656 40.972656 24.753906 C 40.386719 24.480469 39.785156 24.214844 39.15625 23.960938 C 39.566406 23.246094 39.855469 22.480469 40.015625 21.671875 Z M 39.71875 21.238281 C 37.589844 20.761719 35.433594 20.5 33.25 20.445312 C 33.292969 20.074219 33.253906 19.714844 33.132812 19.363281 C 33.78125 19.292969 34.390625 19.242188 34.996094 19.21875 C 35.394531 19.21875 35.789062 19.191406 36.183594 19.191406 C 37.285156 19.191406 38.378906 19.257812 39.46875 19.390625 C 39.710938 19.984375 39.792969 20.601562 39.71875 21.238281 Z M 33.195312 20.8125 C 35.382812 20.863281 37.542969 21.125 39.679688 21.605469 C 39.527344 22.40625 39.25 23.160156 38.84375 23.867188 C 36.84375 23.09375 34.789062 22.511719 32.679688 22.117188 C 32.917969 21.710938 33.089844 21.273438 33.195312 20.8125 Z M 32.902344 20.453125 L 32.382812 20.453125 C 31.101562 20.449219 29.824219 20.523438 28.546875 20.667969 C 28.539062 20.632812 28.527344 20.597656 28.515625 20.5625 C 28.476562 20.472656 28.417969 20.390625 28.347656 20.320312 C 29.796875 19.898438 31.273438 19.601562 32.769531 19.421875 C 32.90625 19.753906 32.949219 20.101562 32.902344 20.457031 Z M 27.921875 20.058594 C 27.847656 20.042969 27.769531 20.03125 27.695312 20.023438 C 29.015625 19.355469 30.386719 18.820312 31.808594 18.417969 C 32.128906 18.574219 32.394531 18.796875 32.601562 19.085938 C 31.011719 19.277344 29.453125 19.605469 27.921875 20.074219 Z M 26.980469 19.972656 L 26.855469 19.972656 C 27.746094 19.101562 28.765625 18.433594 29.917969 17.964844 C 30.378906 17.976562 30.832031 18.042969 31.277344 18.171875 C 29.78125 18.628906 28.351562 19.234375 26.980469 19.988281 Z M 19.074219 24.382812 C 19.164062 24.128906 19.277344 23.882812 19.414062 23.644531 C 19.503906 23.492188 19.613281 23.316406 19.730469 23.148438 C 21.414062 22.167969 22.585938 21.910156 23.210938 21.84375 C 21.734375 22.542969 20.355469 23.390625 19.074219 24.398438 Z M 22.933594 22.394531 L 22.847656 22.53125 C 21.4375 23.574219 20.144531 24.746094 18.960938 26.042969 C 18.859375 25.691406 18.84375 25.339844 18.914062 24.980469 C 20.160156 23.972656 21.5 23.113281 22.933594 22.394531 Z M 19.675781 27.421875 C 18.449219 29.230469 17.417969 31.140625 16.570312 33.152344 C 16.015625 32.832031 15.566406 32.402344 15.234375 31.855469 C 15.949219 30.53125 16.769531 29.273438 17.691406 28.085938 C 18.0625 27.613281 18.449219 27.148438 18.878906 26.671875 C 19.085938 26.980469 19.351562 27.230469 19.675781 27.421875 Z M 16.433594 33.46875 L 16.371094 33.617188 C 15.480469 35.835938 14.90625 38.132812 14.640625 40.507812 C 13.914062 40.269531 13.21875 39.957031 12.554688 39.574219 C 13 36.992188 13.828125 34.542969 15.042969 32.222656 C 15.414062 32.742188 15.875 33.160156 16.433594 33.46875 Z M 14.609375 40.890625 C 14.496094 42.105469 14.480469 43.324219 14.566406 44.539062 C 14.617188 45.222656 14.703125 45.929688 14.824219 46.644531 C 13.980469 46.257812 13.203125 45.769531 12.492188 45.171875 C 12.390625 44.746094 12.296875 44.308594 12.214844 43.871094 C 12.207031 42.5625 12.296875 41.261719 12.492188 39.96875 C 13.167969 40.34375 13.871094 40.652344 14.609375 40.890625 Z M 14.898438 47.066406 C 15.324219 49.246094 16.042969 51.320312 17.058594 53.296875 C 16.636719 53.121094 16.242188 52.941406 15.902344 52.765625 C 15.339844 51.960938 14.832031 51.121094 14.382812 50.25 C 13.640625 48.804688 13.058594 47.296875 12.640625 45.726562 C 13.339844 46.261719 14.09375 46.707031 14.898438 47.066406 Z M 17.320312 53.789062 C 17.660156 54.429688 18.046875 55.0625 18.453125 55.6875 L 18.285156 55.6875 C 17.574219 54.960938 16.917969 54.191406 16.308594 53.375 C 16.648438 53.511719 16.984375 53.65625 17.320312 53.78125 Z M 32.316406 60.875 C 32.539062 61.078125 32.753906 61.273438 32.980469 61.488281 C 32.628906 61.488281 32.273438 61.488281 31.921875 61.488281 C 31.445312 61.488281 30.96875 61.488281 30.492188 61.445312 C 31.109375 61.269531 31.714844 61.078125 32.316406 60.867188 Z M 32.710938 60.746094 C 34.292969 60.199219 35.898438 59.585938 37.515625 58.898438 C 38.011719 59.476562 38.515625 60.035156 39.03125 60.554688 C 37.226562 61.046875 35.386719 61.347656 33.519531 61.460938 C 33.226562 61.21875 32.957031 60.984375 32.691406 60.753906 Z M 37.851562 58.769531 C 39.5625 58.03125 41.28125 57.222656 43.011719 56.332031 L 44.171875 58.582031 C 42.648438 59.355469 41.066406 59.980469 39.425781 60.457031 C 38.867188 59.90625 38.347656 59.335938 37.835938 58.75 Z M 43.328125 56.167969 C 45.0625 55.265625 46.730469 54.3125 48.328125 53.332031 C 48.523438 54.097656 48.683594 54.859375 48.808594 55.597656 C 47.449219 56.664062 46.003906 57.589844 44.464844 58.382812 Z M 57.003906 35.652344 C 56.738281 34.996094 56.453125 34.355469 56.140625 33.734375 C 56.230469 33.398438 56.304688 33.054688 56.363281 32.71875 C 56.664062 33.640625 56.902344 34.574219 57.082031 35.523438 Z M 56.773438 36.019531 C 56.09375 37.054688 55.34375 38.042969 54.527344 38.976562 C 54.429688 38.730469 54.335938 38.484375 54.230469 38.25 L 54.34375 38.058594 C 55.042969 36.851562 55.59375 35.582031 56 34.25 C 56.261719 34.804688 56.519531 35.398438 56.757812 36 Z M 55.765625 33.777344 C 55.359375 35.195312 54.78125 36.542969 54.035156 37.816406 C 53.144531 35.851562 52.03125 34.023438 50.691406 32.332031 C 50.648438 32.273438 50.597656 32.21875 50.550781 32.164062 L 50.476562 32.074219 C 51.128906 30.875 51.617188 29.613281 51.945312 28.289062 C 53.480469 29.925781 54.746094 31.75 55.75 33.757812 Z M 38.742188 17.453125 C 38.980469 17.453125 39.21875 17.453125 39.441406 17.453125 C 40.171875 17.613281 40.890625 17.8125 41.597656 18.046875 C 43.644531 18.699219 45.558594 19.621094 47.34375 20.8125 C 47.34375 20.976562 47.34375 21.144531 47.34375 21.3125 C 44.921875 20.164062 42.378906 19.417969 39.71875 19.078125 C 39.710938 19.054688 39.703125 19.03125 39.691406 19.011719 C 39.34375 18.355469 38.851562 17.839844 38.210938 17.460938 Z M 39.285156 19.035156 C 38.261719 18.910156 37.230469 18.84375 36.199219 18.835938 C 35.765625 18.835938 35.371094 18.859375 34.972656 18.878906 C 34.316406 18.90625 33.660156 18.957031 32.96875 19.039062 C 32.792969 18.734375 32.558594 18.484375 32.269531 18.285156 C 33.980469 17.839844 35.714844 17.578125 37.480469 17.496094 C 38.246094 17.808594 38.847656 18.320312 39.285156 19.027344 Z M 32.457031 17.058594 C 33.183594 16.984375 33.917969 16.949219 34.644531 16.949219 C 35.042969 16.949219 35.460938 16.949219 35.832031 16.980469 C 36.113281 17.03125 36.390625 17.097656 36.664062 17.179688 C 35.027344 17.3125 33.417969 17.601562 31.839844 18.046875 C 31.449219 17.871094 31.046875 17.753906 30.625 17.699219 C 31.222656 17.460938 31.808594 17.253906 32.457031 17.058594 Z M 30.625 17.308594 C 30.351562 17.417969 30.089844 17.527344 29.832031 17.636719 L 29.542969 17.636719 L 29.042969 17.648438 C 29.570312 17.523438 30.097656 17.40625 30.625 17.308594 Z M 29.042969 18.019531 C 27.386719 18.863281 26.621094 19.671875 26.296875 20.105469 L 26.03125 20.175781 C 26.253906 19.503906 26.597656 18.902344 27.066406 18.371094 C 27.710938 18.1875 28.371094 18.070312 29.042969 18.019531 Z M 26.460938 18.554688 C 26.074219 19.097656 25.789062 19.6875 25.609375 20.328125 L 25.429688 20.402344 L 25.246094 19.011719 C 25.648438 18.835938 26.054688 18.6875 26.460938 18.554688 Z M 24.839844 19.183594 L 24.902344 19.15625 L 25.085938 20.558594 L 24.96875 20.625 L 24.351562 19.4375 C 24.515625 19.339844 24.691406 19.261719 24.839844 19.183594 Z M 23.671875 19.78125 C 23.792969 19.71875 23.914062 19.652344 24.03125 19.582031 L 24.660156 20.8125 L 24.597656 20.851562 L 23.542969 19.855469 Z M 23.226562 20.050781 L 24.296875 21.039062 C 24.261719 21.0625 24.226562 21.085938 24.195312 21.113281 C 23.558594 20.863281 22.898438 20.730469 22.214844 20.71875 C 22.53125 20.488281 22.875 20.265625 23.226562 20.050781 Z M 21.714844 21.101562 C 21.855469 21.085938 21.992188 21.082031 22.132812 21.082031 C 22.722656 21.085938 23.292969 21.183594 23.851562 21.371094 L 23.714844 21.488281 L 23.515625 21.488281 C 23.007812 21.488281 21.933594 21.617188 20.316406 22.4375 C 20.742188 21.949219 21.207031 21.503906 21.714844 21.101562 Z M 19.863281 22.394531 C 19.753906 22.53125 19.648438 22.660156 19.554688 22.789062 L 19.519531 22.84375 C 19.347656 22.941406 19.171875 23.046875 18.996094 23.15625 C 19.28125 22.914062 19.570312 22.65625 19.863281 22.394531 Z M 15.34375 27.644531 C 16.03125 26.539062 16.808594 25.503906 17.675781 24.535156 C 18.144531 24.179688 18.609375 23.855469 19.0625 23.566406 C 18.847656 23.945312 18.6875 24.34375 18.585938 24.769531 C 17.328125 25.785156 16.175781 26.914062 15.128906 28.148438 C 15.203125 27.984375 15.265625 27.808594 15.34375 27.644531 Z M 14.863281 29.054688 C 15.949219 27.671875 17.171875 26.417969 18.523438 25.292969 C 18.5 25.660156 18.554688 26.011719 18.699219 26.351562 C 18.230469 26.867188 17.8125 27.371094 17.417969 27.878906 C 16.527344 29.015625 15.738281 30.21875 15.042969 31.484375 C 14.726562 30.691406 14.664062 29.882812 14.863281 29.054688 Z M 13.878906 30.382812 C 14.058594 30.128906 14.238281 29.878906 14.414062 29.636719 C 14.332031 30.414062 14.460938 31.152344 14.808594 31.851562 C 13.546875 34.21875 12.679688 36.722656 12.210938 39.363281 C 12.085938 39.285156 11.957031 39.203125 11.835938 39.109375 C 11.9375 36.066406 12.617188 33.15625 13.878906 30.382812 Z M 12.164062 39.765625 C 12.0625 40.421875 11.984375 41.082031 11.929688 41.746094 C 11.871094 41.015625 11.84375 40.292969 11.851562 39.582031 C 11.953125 39.636719 12.058594 39.703125 12.164062 39.765625 Z M 9.324219 51.289062 C 7.824219 48.390625 8.757812 44.566406 11.496094 40.566406 C 11.535156 41.703125 11.65625 42.832031 11.855469 43.949219 L 11.875 44.035156 C 12.292969 46.269531 13.023438 48.394531 14.066406 50.414062 C 15.054688 52.332031 16.289062 54.074219 17.769531 55.640625 C 13.707031 55.308594 10.660156 53.867188 9.324219 51.289062 Z M 29.042969 61.882812 L 29.503906 61.75 C 30.296875 61.820312 31.085938 61.855469 31.878906 61.855469 C 32.367188 61.855469 32.867188 61.855469 33.359375 61.816406 C 33.675781 62.085938 33.996094 62.34375 34.308594 62.609375 C 32.527344 62.574219 30.769531 62.332031 29.042969 61.882812 Z M 34.898438 62.59375 L 34.859375 62.5625 C 34.558594 62.332031 34.234375 62.078125 33.886719 61.769531 C 35.71875 61.636719 37.519531 61.320312 39.289062 60.820312 C 39.652344 61.179688 40.015625 61.523438 40.378906 61.847656 C 38.585938 62.320312 36.765625 62.570312 34.910156 62.59375 Z M 40.792969 61.757812 C 40.429688 61.4375 40.0625 61.097656 39.679688 60.722656 C 41.277344 60.25 42.824219 59.632812 44.308594 58.878906 L 44.957031 60.136719 C 43.628906 60.8125 42.242188 61.351562 40.808594 61.757812 Z M 45.289062 59.960938 L 44.636719 58.707031 C 46.128906 57.921875 47.539062 57.007812 48.863281 55.96875 C 48.945312 56.476562 49.011719 56.980469 49.0625 57.46875 C 47.886719 58.425781 46.628906 59.257812 45.289062 59.960938 Z M 48.628906 53.101562 C 50.132812 52.167969 51.5625 51.207031 52.925781 50.222656 C 52.972656 50.585938 53.019531 50.949219 53.054688 51.3125 C 51.875 52.78125 50.554688 54.113281 49.097656 55.308594 C 48.976562 54.59375 48.820312 53.863281 48.628906 53.113281 Z M 49.390625 57.203125 C 49.328125 56.664062 49.261719 56.175781 49.1875 55.710938 C 50.617188 54.550781 51.921875 53.253906 53.09375 51.832031 C 53.128906 52.292969 53.152344 52.714844 53.164062 53.121094 C 52.074219 54.640625 50.816406 56.003906 49.390625 57.214844 Z M 53.253906 49.980469 C 53.792969 49.585938 54.320312 49.191406 54.835938 48.796875 C 54.382812 49.523438 53.898438 50.226562 53.378906 50.90625 C 53.339844 50.609375 53.300781 50.300781 53.253906 49.992188 Z M 54.441406 51.113281 C 54.152344 51.609375 53.832031 52.125 53.484375 52.636719 C 53.484375 52.238281 53.4375 51.816406 53.402344 51.449219 C 54.222656 50.414062 54.960938 49.324219 55.621094 48.183594 L 55.949219 47.917969 C 55.53125 49.023438 55.035156 50.09375 54.457031 51.125 Z M 57.34375 35.050781 C 56.777344 32.324219 55.753906 29.78125 54.269531 27.421875 C 52.789062 25.0625 50.941406 23.039062 48.726562 21.347656 C 53.472656 21.433594 57.105469 22.890625 58.59375 25.761719 C 59.914062 28.304688 59.355469 31.582031 57.34375 35.050781 Z M 57.34375 35.050781 " fill-opacity="1" fill-rule="nonzero"/></g><g clip-path="url(#c489c46d23)"><g clip-path="url(#a1ee64898f)"><g clip-path="url(#354a6d3c3b)"><path fill="#4f89b7" d="M 44.683594 2.660156 L 45.945312 6.351562 L 50.15625 6.601562 L 46.621094 9.59375 L 46.90625 13.664062 L 43.464844 11.816406 L 39.429688 14.082031 L 40.835938 9.949219 L 38.054688 7.28125 L 42.371094 6.574219 Z M 45.03125 1.144531 L 46.566406 5.648438 L 51.707031 5.953125 C 51.792969 5.957031 51.859375 6.03125 51.851562 6.117188 C 51.851562 6.164062 51.828125 6.203125 51.792969 6.230469 L 47.453125 9.902344 L 47.808594 14.890625 C 47.8125 14.976562 47.75 15.054688 47.664062 15.058594 C 47.628906 15.0625 47.597656 15.054688 47.570312 15.035156 L 43.363281 12.78125 L 38.414062 15.5625 C 38.339844 15.605469 38.242188 15.578125 38.203125 15.5 C 38.179688 15.460938 38.175781 15.414062 38.191406 15.375 L 39.910156 10.320312 L 36.519531 7.066406 C 36.457031 7.007812 36.453125 6.90625 36.511719 6.84375 C 36.539062 6.820312 36.570312 6.804688 36.601562 6.796875 L 41.902344 5.929688 L 44.746094 1.117188 C 44.792969 1.042969 44.886719 1.015625 44.960938 1.0625 C 44.996094 1.082031 45.019531 1.109375 45.03125 1.144531 Z M 46.300781 5.847656 L 44.84375 1.570312 L 42.132812 6.152344 C 42.113281 6.191406 42.070312 6.21875 42.023438 6.226562 L 36.960938 7.058594 L 40.1875 10.15625 C 40.238281 10.195312 40.261719 10.265625 40.238281 10.328125 L 38.621094 15.085938 L 43.285156 12.464844 L 43.285156 12.46875 C 43.332031 12.441406 43.386719 12.4375 43.4375 12.464844 L 47.476562 14.628906 L 47.136719 9.851562 C 47.132812 9.800781 47.148438 9.75 47.191406 9.714844 L 51.292969 6.242188 L 46.445312 5.953125 C 46.382812 5.953125 46.324219 5.914062 46.300781 5.847656 Z M 44.273438 5.695312 L 44.890625 7.507812 L 46.957031 7.628906 L 45.222656 9.097656 L 45.363281 11.09375 L 43.675781 10.1875 L 41.699219 11.296875 L 42.386719 9.269531 L 41.023438 7.960938 L 43.140625 7.613281 Z M 44.273438 5.695312 " fill-opacity="1" fill-rule="evenodd"/></g></g></g><path stroke-linecap="butt" transform="matrix(0.250516, 0.0136924, -0.0136924, 0.250516, 6.555791, 48.427862)" fill="none" stroke-linejoin="miter" d="M 23.909737 44.979884 C 20.432703 44.982813 17.2637 44.345195 14.433822 43.065329 C 11.603944 41.785463 9.151929 40.001568 7.108872 37.711944 C 5.064965 35.406773 3.482602 32.702149 2.376479 29.581675 C 1.286753 26.475898 0.726704 23.076093 0.729124 19.411653 C 0.730695 15.731667 1.277836 12.333718 2.370547 9.217806 C 3.478805 6.101044 5.062548 3.410484 7.104532 1.115885 C 9.162062 -1.179565 11.606049 -2.965981 14.435642 -4.258912 C 17.266085 -5.536296 20.427596 -6.176877 23.90463 -6.179807 C 27.05434 -6.180439 29.782348 -5.908537 32.072258 -5.378798 C 34.361318 -4.864606 36.250421 -4.250589 37.739567 -3.536748 C 39.24341 -2.839303 40.352646 -2.22944 41.068125 -1.691612 C 41.798301 -1.170181 42.155615 -0.90904 42.155615 -0.90904 L 33.107342 24.970583 L 32.623705 24.965832 C 32.517586 23.880136 32.315042 22.456669 32.014373 20.664338 C 31.72925 18.871157 31.310409 16.913764 30.774247 14.806856 C 30.221689 12.685251 29.561156 10.58514 28.791799 8.490977 C 28.022441 6.396814 27.13721 4.464913 26.121409 2.711669 C 25.104757 0.942878 23.952186 -0.459849 22.677541 -1.528456 C 21.402897 -2.597062 19.986132 -3.127746 18.442795 -3.121356 C 16.774236 -3.123715 15.444394 -2.349354 14.48521 -0.784427 C 13.50963 0.765803 13.031881 2.865758 13.034715 5.485193 C 13.023893 9.851768 13.672468 13.730111 14.949349 17.121922 C 16.22623 20.513733 17.926764 23.383419 20.01901 25.717133 C 22.112105 28.066394 24.424202 29.857936 26.924208 31.093461 C 29.438911 32.312589 31.921325 32.940955 34.386996 32.977711 C 35.634103 32.971919 36.828623 32.859853 37.968857 32.610418 C 39.124637 32.360133 40.10176 31.979278 40.945165 31.434211 C 41.773024 30.889993 42.31425 30.2367 42.551599 29.444087 C 43.012579 31.601883 42.82766 33.639054 42.010691 35.523657 C 41.193722 37.40826 39.895918 39.054066 38.133673 40.475772 C 36.387825 41.912175 34.29596 43.008856 31.84508 43.813303 C 29.408048 44.585808 26.763217 44.97985 23.909737 44.979884 Z M 23.909737 44.979884 " stroke="#17cfcc" stroke-width="8.36281" stroke-opacity="1" stroke-miterlimit="4"/><path stroke-linecap="butt" transform="matrix(0.248509, -0.034484, 0.034484, 0.248509, 16.007653, 49.028652)" fill="none" stroke-linejoin="miter" d="M 0.731887 25.654968 C 0.733981 21.788449 1.517492 18.407611 3.095703 15.530016 C 4.676053 12.637 6.873344 10.395468 9.689717 8.789997 C 12.50609 7.184526 15.79249 6.383059 19.533495 6.383455 C 23.292062 6.370569 26.591511 7.174224 29.41642 8.79228 C 32.243469 10.394913 34.432316 12.63205 36.011665 15.523392 C 37.575593 18.412594 38.36636 21.776103 38.364266 25.642622 C 38.375454 29.526704 37.574381 32.920823 36.009452 35.815979 C 34.426962 38.724417 32.245093 40.96809 29.411158 42.586842 C 26.594785 44.192313 23.292964 44.99164 19.521115 44.986965 C 15.780109 44.986569 12.511504 44.187194 9.684455 42.58456 C 6.874968 40.968644 4.672839 38.713946 3.09349 35.822604 C 1.516281 32.91584 0.729793 29.521488 0.731887 25.654968 Z M 19.568386 7.944452 C 19.048767 7.950941 18.596441 8.265425 18.193846 8.901184 C 17.806673 9.539083 17.604631 10.768547 17.605282 12.576292 C 17.599304 12.73265 17.605793 13.252269 17.611469 14.117587 C 17.601723 14.980766 17.59928 16.017864 17.602001 17.244303 C 17.606863 18.455321 17.611724 19.666338 17.612305 20.908199 C 17.599605 22.132499 17.608304 23.20258 17.61184 24.08332 C 17.599953 24.961921 17.604303 25.496961 17.598325 25.653319 C 17.607769 25.811817 17.612118 26.346858 17.598092 27.24088 C 17.601628 28.12162 17.612467 29.176279 17.599766 30.400579 C 17.602488 31.627018 17.605209 32.853458 17.61007 34.064475 C 17.59951 35.273353 17.612489 36.312591 17.600603 37.191191 C 17.606278 38.056509 17.612768 38.576128 17.60679 38.732486 C 17.607441 40.540232 17.799504 41.761507 18.1984 42.398453 C 18.595156 43.05082 19.054414 43.366048 19.574033 43.359559 C 20.139917 43.359489 20.607665 43.047145 20.979416 42.407106 C 21.351168 41.767067 21.537788 40.535464 21.550419 38.74528 C 21.543115 38.57136 21.552047 38.053881 21.546371 37.188563 C 21.540696 36.323245 21.545279 35.270725 21.538277 34.075129 C 21.550978 32.85083 21.548256 31.62439 21.545535 30.397951 C 21.542814 29.171512 21.547396 28.118992 21.543861 27.238252 C 21.542465 26.34209 21.551397 25.824611 21.544094 25.650691 C 21.550072 25.494333 21.543582 24.974714 21.540047 24.093974 C 21.538651 23.197812 21.543233 22.145293 21.542652 20.903432 C 21.539931 19.676992 21.53721 18.450553 21.54777 17.241675 C 21.542909 16.030657 21.547491 14.978138 21.541816 14.112819 C 21.551562 13.249641 21.545072 12.730022 21.55105 12.573664 C 21.550399 10.765919 21.358337 9.544643 20.974862 8.909838 C 20.608949 8.26175 20.13427 7.944382 19.568386 7.944452 Z M 19.568386 7.944452 " stroke="#17cfcc" stroke-width="8.36281" stroke-opacity="1" stroke-miterlimit="4"/><path stroke-linecap="butt" transform="matrix(0.237463, -0.0809774, 0.0809774, 0.237463, 24.393076, 48.038923)" fill="none" stroke-linejoin="miter" d="M 1.480997 7.348801 L 19.181502 7.347734 L 19.180965 9.568294 C 20.304722 8.684861 21.713155 7.931406 23.440761 7.303242 C 25.163341 6.689815 27.144792 6.378514 29.414585 6.379391 C 31.585911 6.379589 33.415247 6.707313 34.897569 7.3773 C 36.394626 8.052313 37.584872 8.951698 38.497777 10.085505 C 39.395945 11.214288 40.051951 12.47434 40.456081 13.845898 C 40.874948 15.222483 41.062381 16.602395 41.072639 17.971239 L 41.080315 43.997671 L 23.330575 43.998398 L 23.317054 15.963079 C 23.326557 14.584524 23.221159 13.446436 23.00086 12.548814 C 22.785585 11.636456 22.197831 11.189276 21.242622 11.192538 C 20.553344 11.187786 20.069017 11.450324 19.794666 11.965415 C 19.52534 12.46577 19.348778 13.080009 19.270005 13.793394 C 19.205969 14.511804 19.171405 15.240265 19.176364 15.949304 L 19.184861 43.99936 L 1.484355 44.000426 Z M 1.480997 7.348801 " stroke="#17cfcc" stroke-width="8.36281" stroke-opacity="1" stroke-miterlimit="4"/><path stroke-linecap="butt" transform="matrix(0.217471, -0.125108, 0.125108, 0.217471, 33.212288, 45.144953)" fill="none" stroke-linejoin="miter" d="M 0.00573099 7.347868 L 17.506058 7.338801 L 27.84155 26.684406 C 28.39982 25.963768 28.869717 25.084516 29.264735 24.054416 C 29.659754 23.024316 29.85364 22.094052 29.852127 21.284886 C 29.851706 20.099144 29.553652 18.993647 28.97146 17.976159 C 28.389268 16.958672 27.700778 15.969843 26.925217 15.038697 C 26.165185 14.08056 25.468931 13.105227 24.878975 12.101235 C 24.302514 11.105007 24.00816 10.055525 24.003676 8.939293 C 24.003101 8.471948 24.137483 8.08224 24.391295 7.797163 C 24.65287 7.498591 24.919812 7.346803 25.184359 7.355295 L 40.243691 7.343005 L 20.027045 44.982772 Z M 0.00573099 7.347868 " stroke="#17cfcc" stroke-width="8.36281" stroke-opacity="1" stroke-miterlimit="4"/><path stroke-linecap="butt" transform="matrix(0.190689, -0.163045, 0.163045, 0.190689, 40.858625, 40.874417)" fill="none" stroke-linejoin="miter" d="M 0.734489 25.643211 C 0.731488 21.789471 1.516017 18.404248 3.101627 15.51961 C 4.665285 12.636687 6.874819 10.387951 9.698161 8.786951 C 12.50967 7.175833 15.793331 6.37812 19.525478 6.373578 C 23.291411 6.377439 26.600661 7.178948 29.409326 8.781538 C 32.239942 10.382412 34.436372 12.629163 35.998615 15.521791 C 37.58281 18.412704 38.365432 21.785887 38.368434 25.639627 C 38.363033 29.527152 37.578503 32.912376 36.006443 35.829084 C 34.432667 38.72384 32.245084 40.97086 29.411624 42.583694 C 26.588282 44.184695 23.304621 44.982407 19.52857 44.99038 C 15.784589 44.984804 12.509124 44.191697 9.688626 42.57899 C 6.879961 40.9764 4.671698 38.719531 3.097621 35.816785 C 1.523544 32.914038 0.729088 29.530736 0.734489 25.643211 Z M 19.571304 7.949133 C 19.052864 7.956519 18.602345 8.267798 18.199509 8.906639 C 17.796674 9.545479 17.603937 10.753175 17.602777 12.575345 C 17.604667 12.740841 17.60022 13.249162 17.613101 14.120545 C 17.604032 14.993644 17.60697 16.020404 17.603396 17.246446 C 17.598106 18.450536 17.60465 19.664745 17.602792 20.912738 C 17.599218 22.13878 17.605587 23.209444 17.608351 24.092661 C 17.599281 24.965759 17.606667 25.484199 17.608557 25.649694 C 17.610447 25.81519 17.607715 26.345463 17.60036 27.240514 C 17.603124 28.12373 17.607778 29.172442 17.604204 30.398484 C 17.60063 31.624526 17.597056 32.850568 17.6036 34.064776 C 17.610144 35.278985 17.602964 36.317579 17.605728 37.200796 C 17.606776 38.06206 17.602328 38.570382 17.604218 38.735877 C 17.601343 40.536096 17.807168 41.756817 18.199743 42.399755 C 18.592317 43.042694 19.058799 43.359613 19.567121 43.36406 C 20.141297 43.363361 20.601934 43.040248 20.982818 42.403123 C 21.351868 41.75588 21.544605 40.548184 21.547481 38.747966 C 21.54559 38.58247 21.548323 38.052197 21.547274 37.190932 C 21.544511 36.307716 21.541572 35.280955 21.546862 34.076865 C 21.550436 32.850823 21.543892 31.636615 21.547466 30.410573 C 21.539207 29.174413 21.544671 28.113867 21.541907 27.23065 C 21.539143 26.347434 21.541876 25.817161 21.539985 25.651665 C 21.538095 25.486169 21.552661 24.966014 21.539779 24.094631 C 21.547134 23.199581 21.552598 22.139035 21.544338 20.902875 C 21.547912 19.676833 21.551487 18.450791 21.544943 17.236583 C 21.538399 16.022374 21.545578 14.98378 21.54453 14.122515 C 21.5536 13.249417 21.546214 12.730978 21.544324 12.565482 C 21.547199 10.765263 21.363326 9.542827 20.982585 8.910007 C 20.611963 8.265352 20.14548 7.948434 19.571304 7.949133 Z M 19.571304 7.949133 " stroke="#17cfcc" stroke-width="8.36281" stroke-opacity="1" stroke-miterlimit="4"/><path stroke-linecap="butt" transform="matrix(0.142708, -0.20635, 0.20635, 0.142708, 49.583527, 33.163169)" fill="none" stroke-linejoin="miter" d="M 1.468062 11.490342 C 1.478599 10.082218 1.634903 8.611145 1.94583 7.089927 C 2.260707 5.547048 2.766588 4.061375 3.467424 2.611247 C 4.181066 1.152264 5.138849 -0.172681 6.37129 -1.346831 C 7.594876 -2.533786 9.10784 -3.466546 10.922989 -4.153966 C 12.729282 -4.854191 14.882997 -5.18892 17.366421 -5.183765 L 40.532604 -5.190142 L 40.52919 43.992939 L 22.835015 44.001011 L 22.830319 19.413899 L 10.422052 19.400928 C 11.341885 21.168925 12.313898 22.957626 13.329234 24.754226 C 14.34852 26.529164 15.290015 28.301111 16.18328 30.030691 C 17.06374 31.769127 17.792568 33.479918 18.339248 35.146307 C 18.894784 36.825502 19.172669 38.431693 19.172903 39.964879 C 19.18044 40.660085 19.114136 41.330637 19.013365 42.006095 C 18.890933 42.677604 18.712372 43.350071 18.447164 44.006739 L 1.482661 44.002368 Z M 6.588592 7.343301 C 6.585833 8.954278 6.873532 10.629403 7.417219 12.373583 C 7.986518 14.10005 8.703498 15.875825 9.593771 17.683196 L 22.831163 17.690665 L 22.821666 -3.126013 C 21.668575 -3.123623 20.627741 -3.123148 19.677503 -3.128538 C 18.727265 -3.133927 17.449111 -3.120767 15.838134 -3.123525 C 13.868723 -3.12449 12.264447 -2.734348 11.038111 -1.961955 C 9.811774 -1.189562 8.877808 -0.240763 8.236214 0.884441 C 7.59462 2.009645 7.169641 3.174343 6.930761 4.361781 C 6.704686 5.540363 6.591946 6.526982 6.588592 7.343301 Z M 6.588592 7.343301 " stroke="#17cfcc" stroke-width="8.36281" stroke-opacity="1" stroke-miterlimit="4"/><path stroke-linecap="butt" transform="matrix(0.111363, -0.22482, 0.22482, 0.111363, 54.862099, 25.317649)" fill="none" stroke-linejoin="miter" d="M 8.84943 24.273114 C 7.799104 22.117638 6.707313 19.878451 5.539112 17.590238 C 4.398815 15.288203 3.446541 12.979907 2.654517 10.644357 C 1.869404 8.322759 1.48094 6.065308 1.475045 3.913729 C 1.47567 1.880546 1.900069 0.106573 2.720338 -1.394366 C 3.568511 -2.909127 4.652174 -4.088786 5.978237 -4.919393 C 7.304301 -5.75 8.712386 -6.169485 10.18854 -6.170938 C 11.595066 -6.172652 12.951266 -5.749812 14.25023 -4.916371 C 15.535242 -4.076019 16.603158 -2.902255 17.440026 -1.388167 C 18.269983 0.111968 18.695079 1.882148 18.694454 3.915332 C 18.686398 6.073821 18.288083 8.321373 17.492469 10.678849 C 16.689944 13.022373 15.720388 15.344385 14.583801 17.644884 C 13.454255 19.924521 12.366694 22.148611 11.321248 24.28234 C 10.92135 25.088552 10.515971 25.497854 10.084247 25.503205 C 9.701289 25.501776 9.278035 25.103307 8.84943 24.273114 Z M 10.143827 44.985807 C 7.832128 44.984142 5.996478 44.29492 4.609102 42.897148 C 3.207774 41.506288 2.518373 39.658529 2.506087 37.353741 C 2.514663 35.055994 3.203885 33.220344 4.594745 31.819016 C 5.992517 30.431639 7.833365 29.728288 10.131112 29.736864 C 12.387133 29.731358 14.222784 30.42058 15.61016 31.818351 C 17.011488 33.209212 17.721751 35.064012 17.713175 37.361759 C 17.718551 39.652594 17.015377 41.495156 15.610565 42.903395 C 14.212793 44.290771 12.399848 44.980301 10.143827 44.985807 Z M 10.143827 44.985807 " stroke="#17cfcc" stroke-width="8.36281" stroke-opacity="1" stroke-miterlimit="4"/><g fill="#000000" fill-opacity="1"><g transform="translate(5.953326, 59.450579)"><g><path d="M 5.96875 0.578125 C 5.101562 0.523438 4.328125 0.320312 3.640625 -0.03125 C 2.953125 -0.394531 2.363281 -0.875 1.875 -1.46875 C 1.394531 -2.070312 1.035156 -2.773438 0.796875 -3.578125 C 0.566406 -4.378906 0.476562 -5.234375 0.53125 -6.140625 C 0.570312 -7.054688 0.753906 -7.898438 1.078125 -8.671875 C 1.398438 -9.441406 1.832031 -10.097656 2.375 -10.640625 C 2.925781 -11.191406 3.5625 -11.609375 4.28125 -11.890625 C 5.007812 -12.179688 5.804688 -12.300781 6.671875 -12.25 C 7.460938 -12.207031 8.140625 -12.101562 8.703125 -11.9375 C 9.273438 -11.78125 9.742188 -11.601562 10.109375 -11.40625 C 10.472656 -11.207031 10.738281 -11.035156 10.90625 -10.890625 C 11.082031 -10.742188 11.171875 -10.671875 11.171875 -10.671875 L 8.5625 -4.328125 L 8.4375 -4.328125 C 8.414062 -4.609375 8.378906 -4.96875 8.328125 -5.40625 C 8.285156 -5.851562 8.207031 -6.347656 8.09375 -6.890625 C 7.988281 -7.429688 7.851562 -7.96875 7.6875 -8.5 C 7.53125 -9.039062 7.332031 -9.535156 7.09375 -9.984375 C 6.863281 -10.429688 6.597656 -10.800781 6.296875 -11.09375 C 5.992188 -11.382812 5.648438 -11.539062 5.265625 -11.5625 C 4.847656 -11.582031 4.503906 -11.40625 4.234375 -11.03125 C 3.972656 -10.65625 3.828125 -10.140625 3.796875 -9.484375 C 3.734375 -8.378906 3.835938 -7.390625 4.109375 -6.515625 C 4.390625 -5.648438 4.773438 -4.910156 5.265625 -4.296875 C 5.753906 -3.691406 6.304688 -3.21875 6.921875 -2.875 C 7.535156 -2.53125 8.148438 -2.335938 8.765625 -2.296875 C 9.078125 -2.273438 9.378906 -2.285156 9.671875 -2.328125 C 9.960938 -2.378906 10.21875 -2.46875 10.4375 -2.59375 C 10.65625 -2.71875 10.796875 -2.878906 10.859375 -3.078125 C 10.941406 -2.523438 10.867188 -2.015625 10.640625 -1.546875 C 10.410156 -1.085938 10.0625 -0.691406 9.59375 -0.359375 C 9.132812 -0.0234375 8.59375 0.222656 7.96875 0.390625 C 7.351562 0.554688 6.6875 0.617188 5.96875 0.578125 Z M 5.96875 0.578125 "/></g></g></g><g fill="#000000" fill-opacity="1"><g transform="translate(17.524947, 59.963052)"><g><path d="M -0.453125 -4.59375 C -0.578125 -5.550781 -0.492188 -6.414062 -0.203125 -7.1875 C 0.0859375 -7.957031 0.554688 -8.585938 1.203125 -9.078125 C 1.847656 -9.578125 2.632812 -9.890625 3.5625 -10.015625 C 4.488281 -10.148438 5.332031 -10.066406 6.09375 -9.765625 C 6.851562 -9.460938 7.476562 -8.976562 7.96875 -8.3125 C 8.457031 -7.65625 8.765625 -6.847656 8.890625 -5.890625 C 9.023438 -4.921875 8.945312 -4.046875 8.65625 -3.265625 C 8.363281 -2.492188 7.894531 -1.859375 7.25 -1.359375 C 6.601562 -0.867188 5.816406 -0.554688 4.890625 -0.421875 C 3.960938 -0.296875 3.117188 -0.382812 2.359375 -0.6875 C 1.597656 -0.988281 0.972656 -1.472656 0.484375 -2.140625 C -0.00390625 -2.804688 -0.316406 -3.625 -0.453125 -4.59375 Z M 3.609375 -9.640625 C 3.484375 -9.628906 3.382812 -9.535156 3.3125 -9.359375 C 3.238281 -9.179688 3.234375 -8.867188 3.296875 -8.421875 C 3.296875 -8.378906 3.3125 -8.25 3.34375 -8.03125 C 3.375 -7.820312 3.410156 -7.566406 3.453125 -7.265625 C 3.492188 -6.960938 3.535156 -6.65625 3.578125 -6.34375 C 3.617188 -6.039062 3.65625 -5.78125 3.6875 -5.5625 C 3.71875 -5.34375 3.734375 -5.210938 3.734375 -5.171875 C 3.742188 -5.128906 3.765625 -5 3.796875 -4.78125 C 3.828125 -4.5625 3.863281 -4.296875 3.90625 -3.984375 C 3.945312 -3.679688 3.988281 -3.378906 4.03125 -3.078125 C 4.070312 -2.773438 4.109375 -2.515625 4.140625 -2.296875 C 4.171875 -2.078125 4.1875 -1.953125 4.1875 -1.921875 C 4.25 -1.472656 4.34375 -1.175781 4.46875 -1.03125 C 4.59375 -0.882812 4.71875 -0.816406 4.84375 -0.828125 C 4.988281 -0.847656 5.09375 -0.945312 5.15625 -1.125 C 5.226562 -1.300781 5.234375 -1.613281 5.171875 -2.0625 C 5.171875 -2.09375 5.15625 -2.21875 5.125 -2.4375 C 5.09375 -2.65625 5.054688 -2.914062 5.015625 -3.21875 C 4.972656 -3.519531 4.929688 -3.820312 4.890625 -4.125 C 4.847656 -4.4375 4.8125 -4.703125 4.78125 -4.921875 C 4.75 -5.140625 4.726562 -5.269531 4.71875 -5.3125 C 4.71875 -5.351562 4.703125 -5.484375 4.671875 -5.703125 C 4.640625 -5.921875 4.601562 -6.179688 4.5625 -6.484375 C 4.519531 -6.796875 4.476562 -7.101562 4.4375 -7.40625 C 4.394531 -7.707031 4.359375 -7.960938 4.328125 -8.171875 C 4.296875 -8.390625 4.28125 -8.519531 4.28125 -8.5625 C 4.21875 -9.007812 4.125 -9.304688 4 -9.453125 C 3.882812 -9.597656 3.753906 -9.660156 3.609375 -9.640625 Z M 3.609375 -9.640625 "/></g></g></g><g fill="#000000" fill-opacity="1"><g transform="translate(27.95608, 58.487285)"><g><path d="M -2.609375 -8.828125 L 1.59375 -10.25 L 1.78125 -9.71875 C 1.96875 -10.019531 2.238281 -10.316406 2.59375 -10.609375 C 2.957031 -10.898438 3.40625 -11.132812 3.9375 -11.3125 C 4.457031 -11.488281 4.914062 -11.554688 5.3125 -11.515625 C 5.71875 -11.472656 6.078125 -11.351562 6.390625 -11.15625 C 6.703125 -10.96875 6.960938 -10.726562 7.171875 -10.4375 C 7.378906 -10.144531 7.539062 -9.835938 7.65625 -9.515625 L 9.765625 -3.328125 L 5.53125 -1.890625 L 3.265625 -8.546875 C 3.148438 -8.867188 3.03125 -9.128906 2.90625 -9.328125 C 2.789062 -9.523438 2.617188 -9.585938 2.390625 -9.515625 C 2.234375 -9.460938 2.140625 -9.359375 2.109375 -9.203125 C 2.078125 -9.054688 2.082031 -8.894531 2.125 -8.71875 C 2.175781 -8.550781 2.234375 -8.378906 2.296875 -8.203125 L 4.5625 -1.546875 L 0.359375 -0.125 Z M -2.609375 -8.828125 "/></g></g></g><g fill="#000000" fill-opacity="1"><g transform="translate(38.717049, 54.713698)"><g><path d="M -4.59375 -7.984375 L -0.78125 -10.171875 L 3.875 -7.25 C 3.925781 -7.476562 3.925781 -7.726562 3.875 -8 C 3.832031 -8.269531 3.757812 -8.492188 3.65625 -8.671875 C 3.507812 -8.929688 3.304688 -9.132812 3.046875 -9.28125 C 2.796875 -9.425781 2.523438 -9.550781 2.234375 -9.65625 C 1.953125 -9.769531 1.6875 -9.898438 1.4375 -10.046875 C 1.1875 -10.191406 0.988281 -10.382812 0.84375 -10.625 C 0.789062 -10.726562 0.769531 -10.828125 0.78125 -10.921875 C 0.789062 -11.023438 0.820312 -11.09375 0.875 -11.125 L 4.15625 -13.015625 L 4.484375 -2.296875 Z M -4.59375 -7.984375 "/></g></g></g><g fill="#000000" fill-opacity="1"><g transform="translate(48.032616, 49.264717)"><g><path d="M -2.859375 -3.625 C -3.484375 -4.363281 -3.878906 -5.132812 -4.046875 -5.9375 C -4.210938 -6.75 -4.160156 -7.535156 -3.890625 -8.296875 C -3.617188 -9.066406 -3.125 -9.753906 -2.40625 -10.359375 C -1.695312 -10.972656 -0.941406 -11.359375 -0.140625 -11.515625 C 0.660156 -11.671875 1.445312 -11.597656 2.21875 -11.296875 C 2.988281 -11.003906 3.6875 -10.488281 4.3125 -9.75 C 4.945312 -9.007812 5.347656 -8.234375 5.515625 -7.421875 C 5.691406 -6.617188 5.640625 -5.832031 5.359375 -5.0625 C 5.085938 -4.300781 4.597656 -3.613281 3.890625 -3 C 3.171875 -2.394531 2.410156 -2.015625 1.609375 -1.859375 C 0.816406 -1.703125 0.0351562 -1.769531 -0.734375 -2.0625 C -1.515625 -2.363281 -2.222656 -2.882812 -2.859375 -3.625 Z M -2.140625 -10.0625 C -2.234375 -9.976562 -2.265625 -9.84375 -2.234375 -9.65625 C -2.210938 -9.476562 -2.054688 -9.21875 -1.765625 -8.875 C -1.742188 -8.84375 -1.660156 -8.742188 -1.515625 -8.578125 C -1.367188 -8.410156 -1.195312 -8.210938 -1 -7.984375 C -0.8125 -7.753906 -0.613281 -7.519531 -0.40625 -7.28125 C -0.207031 -7.039062 -0.0351562 -6.835938 0.109375 -6.671875 C 0.253906 -6.503906 0.335938 -6.40625 0.359375 -6.375 C 0.390625 -6.34375 0.476562 -6.238281 0.625 -6.0625 C 0.769531 -5.894531 0.941406 -5.695312 1.140625 -5.46875 C 1.335938 -5.238281 1.535156 -5.003906 1.734375 -4.765625 C 1.941406 -4.535156 2.113281 -4.335938 2.25 -4.171875 C 2.394531 -4.003906 2.476562 -3.910156 2.5 -3.890625 C 2.789062 -3.535156 3.03125 -3.328125 3.21875 -3.265625 C 3.40625 -3.210938 3.546875 -3.226562 3.640625 -3.3125 C 3.742188 -3.40625 3.773438 -3.539062 3.734375 -3.71875 C 3.703125 -3.90625 3.539062 -4.175781 3.25 -4.53125 C 3.226562 -4.550781 3.144531 -4.644531 3 -4.8125 C 2.863281 -4.976562 2.691406 -5.175781 2.484375 -5.40625 C 2.285156 -5.644531 2.085938 -5.878906 1.890625 -6.109375 C 1.691406 -6.335938 1.519531 -6.535156 1.375 -6.703125 C 1.226562 -6.878906 1.140625 -6.984375 1.109375 -7.015625 C 1.085938 -7.046875 1.003906 -7.144531 0.859375 -7.3125 C 0.710938 -7.476562 0.535156 -7.679688 0.328125 -7.921875 C 0.128906 -8.160156 -0.0625 -8.394531 -0.25 -8.625 C -0.445312 -8.851562 -0.617188 -9.050781 -0.765625 -9.21875 C -0.910156 -9.382812 -0.992188 -9.484375 -1.015625 -9.515625 C -1.304688 -9.859375 -1.539062 -10.054688 -1.71875 -10.109375 C -1.894531 -10.171875 -2.035156 -10.15625 -2.140625 -10.0625 Z M -2.140625 -10.0625 "/></g></g></g><g fill="#000000" fill-opacity="1"><g transform="translate(55.69027, 42.426764)"><g/></g></g><g fill="#000000" fill-opacity="1"><g transform="translate(58.662923, 39.442328)"><g><path d="M -6.484375 -4.953125 C -6.773438 -5.148438 -7.054688 -5.390625 -7.328125 -5.671875 C -7.609375 -5.953125 -7.847656 -6.269531 -8.046875 -6.625 C -8.242188 -6.976562 -8.378906 -7.367188 -8.453125 -7.796875 C -8.523438 -8.222656 -8.5 -8.664062 -8.375 -9.125 C -8.257812 -9.59375 -8.023438 -10.082031 -7.671875 -10.59375 L -4.375 -15.375 L 5.78125 -8.359375 L 3.265625 -4.71875 L -1.8125 -8.234375 L -3.59375 -5.65625 C -3.09375 -5.59375 -2.582031 -5.539062 -2.0625 -5.5 C -1.550781 -5.457031 -1.050781 -5.398438 -0.5625 -5.328125 C -0.0820312 -5.265625 0.363281 -5.171875 0.78125 -5.046875 C 1.207031 -4.921875 1.582031 -4.75 1.90625 -4.53125 C 2.050781 -4.425781 2.179688 -4.316406 2.296875 -4.203125 C 2.421875 -4.085938 2.53125 -3.953125 2.625 -3.796875 L 0.21875 -0.3125 Z M -6.625 -6.59375 C -6.289062 -6.363281 -5.898438 -6.179688 -5.453125 -6.046875 C -5.015625 -5.910156 -4.550781 -5.8125 -4.0625 -5.75 L -2.171875 -8.484375 L -6.46875 -11.453125 C -6.632812 -11.210938 -6.785156 -10.992188 -6.921875 -10.796875 C -7.054688 -10.597656 -7.242188 -10.332031 -7.484375 -10 C -7.753906 -9.59375 -7.894531 -9.207031 -7.90625 -8.84375 C -7.925781 -8.488281 -7.863281 -8.160156 -7.71875 -7.859375 C -7.570312 -7.554688 -7.394531 -7.296875 -7.1875 -7.078125 C -6.976562 -6.867188 -6.789062 -6.707031 -6.625 -6.59375 Z M -6.625 -6.59375 "/></g></g></g><g fill="#000000" fill-opacity="1"><g transform="translate(64.75419, 30.21763)"><g><path d="M -3.453125 -4.1875 C -4.054688 -4.195312 -4.675781 -4.203125 -5.3125 -4.203125 C -5.957031 -4.203125 -6.582031 -4.242188 -7.1875 -4.328125 C -7.800781 -4.410156 -8.351562 -4.570312 -8.84375 -4.8125 C -9.300781 -5.039062 -9.65625 -5.328125 -9.90625 -5.671875 C -10.15625 -6.023438 -10.296875 -6.398438 -10.328125 -6.796875 C -10.367188 -7.191406 -10.304688 -7.554688 -10.140625 -7.890625 C -9.992188 -8.203125 -9.753906 -8.457031 -9.421875 -8.65625 C -9.085938 -8.851562 -8.703125 -8.960938 -8.265625 -8.984375 C -7.835938 -9.003906 -7.394531 -8.898438 -6.9375 -8.671875 C -6.445312 -8.429688 -5.984375 -8.085938 -5.546875 -7.640625 C -5.109375 -7.203125 -4.691406 -6.722656 -4.296875 -6.203125 C -3.910156 -5.691406 -3.535156 -5.207031 -3.171875 -4.75 C -3.035156 -4.5625 -2.988281 -4.421875 -3.03125 -4.328125 C -3.082031 -4.234375 -3.222656 -4.1875 -3.453125 -4.1875 Z M 1.34375 -2.171875 C 1.082031 -1.648438 0.71875 -1.3125 0.25 -1.15625 C -0.207031 -1 -0.695312 -1.046875 -1.21875 -1.296875 C -1.726562 -1.554688 -2.0625 -1.921875 -2.21875 -2.390625 C -2.382812 -2.859375 -2.335938 -3.351562 -2.078125 -3.875 C -1.828125 -4.375 -1.46875 -4.703125 -1 -4.859375 C -0.53125 -5.015625 -0.0390625 -4.960938 0.46875 -4.703125 C 0.988281 -4.453125 1.328125 -4.09375 1.484375 -3.625 C 1.640625 -3.15625 1.59375 -2.671875 1.34375 -2.171875 Z M 1.34375 -2.171875 "/></g></g></g><g fill="#4f89b7" fill-opacity="1"><g transform="translate(10.248472, 40.20304)"><g><path d="M -1.890625 -0.015625 C -2.179688 -0.00390625 -2.445312 -0.0351562 -2.6875 -0.109375 C -2.9375 -0.191406 -3.148438 -0.304688 -3.328125 -0.453125 C -3.503906 -0.609375 -3.644531 -0.789062 -3.75 -1 C -3.851562 -1.21875 -3.910156 -1.460938 -3.921875 -1.734375 C -3.929688 -1.972656 -3.914062 -2.179688 -3.875 -2.359375 C -3.84375 -2.546875 -3.800781 -2.695312 -3.75 -2.8125 C -3.695312 -2.9375 -3.648438 -3.023438 -3.609375 -3.078125 C -3.566406 -3.128906 -3.546875 -3.15625 -3.546875 -3.15625 L -2.734375 -2.90625 C -2.847656 -2.832031 -2.960938 -2.742188 -3.078125 -2.640625 C -3.191406 -2.546875 -3.300781 -2.429688 -3.40625 -2.296875 C -3.519531 -2.160156 -3.609375 -2.019531 -3.671875 -1.875 C -3.734375 -1.738281 -3.765625 -1.597656 -3.765625 -1.453125 C -3.753906 -1.304688 -3.710938 -1.179688 -3.640625 -1.078125 C -3.566406 -0.972656 -3.472656 -0.894531 -3.359375 -0.84375 C -3.242188 -0.800781 -3.117188 -0.78125 -2.984375 -0.78125 C -2.722656 -0.789062 -2.476562 -0.832031 -2.25 -0.90625 C -2.019531 -0.988281 -1.816406 -1.09375 -1.640625 -1.21875 C -1.460938 -1.34375 -1.3125 -1.484375 -1.1875 -1.640625 C -1.0625 -1.796875 -0.96875 -1.957031 -0.90625 -2.125 C -0.84375 -2.289062 -0.8125 -2.445312 -0.8125 -2.59375 C -0.820312 -2.675781 -0.835938 -2.757812 -0.859375 -2.84375 C -0.878906 -2.925781 -0.914062 -2.988281 -0.96875 -3.03125 C -1.019531 -3.082031 -1.085938 -3.109375 -1.171875 -3.109375 C -1.296875 -3.109375 -1.410156 -3.066406 -1.515625 -2.984375 C -1.628906 -2.910156 -1.734375 -2.804688 -1.828125 -2.671875 C -1.921875 -2.546875 -2.003906 -2.40625 -2.078125 -2.25 C -2.160156 -2.101562 -2.226562 -1.957031 -2.28125 -1.8125 C -2.34375 -1.664062 -2.394531 -1.535156 -2.4375 -1.421875 C -2.476562 -1.316406 -2.507812 -1.238281 -2.53125 -1.1875 L -2.578125 -1.1875 L -2.640625 -3.203125 L -0.796875 -3.25 C -0.796875 -3.25 -0.765625 -3.234375 -0.703125 -3.203125 C -0.648438 -3.171875 -0.582031 -3.117188 -0.5 -3.046875 C -0.425781 -2.984375 -0.347656 -2.898438 -0.265625 -2.796875 C -0.179688 -2.691406 -0.113281 -2.5625 -0.0625 -2.40625 C -0.0078125 -2.25 0.0195312 -2.0625 0.03125 -1.84375 C 0.0390625 -1.570312 0 -1.328125 -0.09375 -1.109375 C -0.1875 -0.890625 -0.320312 -0.695312 -0.5 -0.53125 C -0.675781 -0.375 -0.878906 -0.25 -1.109375 -0.15625 C -1.347656 -0.0703125 -1.609375 -0.0234375 -1.890625 -0.015625 Z M -1.890625 -0.015625 "/></g></g></g><g fill="#4f89b7" fill-opacity="1"><g transform="translate(10.171361, 36.959868)"><g><path d="M 0.015625 -0.109375 L -2.796875 -0.375 L -2.671875 -1.75 L -1.734375 -1.65625 C -1.859375 -1.675781 -1.976562 -1.710938 -2.09375 -1.765625 C -2.207031 -1.816406 -2.304688 -1.882812 -2.390625 -1.96875 C -2.484375 -2.050781 -2.554688 -2.148438 -2.609375 -2.265625 C -2.660156 -2.378906 -2.679688 -2.507812 -2.671875 -2.65625 C -2.660156 -2.75 -2.628906 -2.835938 -2.578125 -2.921875 C -2.523438 -3.003906 -2.472656 -3.054688 -2.421875 -3.078125 L -0.75 -2.421875 L -0.75 -2.375 C -0.851562 -2.382812 -0.960938 -2.378906 -1.078125 -2.359375 C -1.191406 -2.347656 -1.296875 -2.316406 -1.390625 -2.265625 C -1.492188 -2.222656 -1.570312 -2.171875 -1.625 -2.109375 C -1.675781 -2.046875 -1.707031 -1.976562 -1.71875 -1.90625 C -1.71875 -1.820312 -1.695312 -1.757812 -1.65625 -1.71875 C -1.625 -1.675781 -1.585938 -1.648438 -1.546875 -1.640625 L 0.140625 -1.484375 Z M 0.015625 -0.109375 "/></g></g></g><g fill="#4f89b7" fill-opacity="1"><g transform="translate(10.414463, 34.257529)"><g><path d="M -1.375 -0.359375 C -1.65625 -0.421875 -1.894531 -0.53125 -2.09375 -0.6875 C -2.289062 -0.84375 -2.425781 -1.039062 -2.5 -1.28125 C -2.582031 -1.53125 -2.59375 -1.789062 -2.53125 -2.0625 C -2.46875 -2.34375 -2.351562 -2.578125 -2.1875 -2.765625 C -2.03125 -2.953125 -1.828125 -3.085938 -1.578125 -3.171875 C -1.328125 -3.253906 -1.0625 -3.265625 -0.78125 -3.203125 C -0.488281 -3.140625 -0.242188 -3.019531 -0.046875 -2.84375 C 0.140625 -2.675781 0.273438 -2.472656 0.359375 -2.234375 C 0.441406 -1.992188 0.453125 -1.734375 0.390625 -1.453125 C 0.328125 -1.179688 0.210938 -0.945312 0.046875 -0.75 C -0.117188 -0.5625 -0.320312 -0.429688 -0.5625 -0.359375 C -0.8125 -0.296875 -1.082031 -0.296875 -1.375 -0.359375 Z M -2.40625 -2.0625 C -2.414062 -2.019531 -2.398438 -1.976562 -2.359375 -1.9375 C -2.316406 -1.894531 -2.226562 -1.859375 -2.09375 -1.828125 C -2.082031 -1.828125 -2.039062 -1.816406 -1.96875 -1.796875 C -1.90625 -1.785156 -1.828125 -1.769531 -1.734375 -1.75 C -1.640625 -1.726562 -1.546875 -1.707031 -1.453125 -1.6875 C -1.367188 -1.675781 -1.289062 -1.660156 -1.21875 -1.640625 C -1.15625 -1.628906 -1.117188 -1.625 -1.109375 -1.625 C -1.085938 -1.613281 -1.039062 -1.601562 -0.96875 -1.59375 C -0.90625 -1.582031 -0.828125 -1.566406 -0.734375 -1.546875 C -0.648438 -1.523438 -0.5625 -1.503906 -0.46875 -1.484375 C -0.375 -1.460938 -0.289062 -1.445312 -0.21875 -1.4375 C -0.15625 -1.425781 -0.117188 -1.414062 -0.109375 -1.40625 C 0.015625 -1.382812 0.101562 -1.382812 0.15625 -1.40625 C 0.21875 -1.425781 0.253906 -1.457031 0.265625 -1.5 C 0.273438 -1.539062 0.253906 -1.578125 0.203125 -1.609375 C 0.160156 -1.648438 0.078125 -1.679688 -0.046875 -1.703125 C -0.0546875 -1.710938 -0.09375 -1.722656 -0.15625 -1.734375 C -0.226562 -1.742188 -0.3125 -1.757812 -0.40625 -1.78125 C -0.5 -1.800781 -0.585938 -1.820312 -0.671875 -1.84375 C -0.765625 -1.863281 -0.84375 -1.878906 -0.90625 -1.890625 C -0.976562 -1.898438 -1.023438 -1.910156 -1.046875 -1.921875 C -1.054688 -1.921875 -1.09375 -1.925781 -1.15625 -1.9375 C -1.226562 -1.957031 -1.304688 -1.972656 -1.390625 -1.984375 C -1.484375 -2.003906 -1.578125 -2.023438 -1.671875 -2.046875 C -1.765625 -2.066406 -1.84375 -2.082031 -1.90625 -2.09375 C -1.976562 -2.113281 -2.019531 -2.125 -2.03125 -2.125 C -2.164062 -2.15625 -2.257812 -2.160156 -2.3125 -2.140625 C -2.363281 -2.128906 -2.394531 -2.101562 -2.40625 -2.0625 Z M -2.40625 -2.0625 "/></g></g></g><g fill="#4f89b7" fill-opacity="1"><g transform="translate(10.92377, 31.44058)"><g><path d="M 0.625 -1.421875 L -2.640625 -1 L -2.15625 -2.265625 L -0.484375 -2.484375 C -0.523438 -2.546875 -0.578125 -2.601562 -0.640625 -2.65625 C -0.703125 -2.707031 -0.765625 -2.75 -0.828125 -2.78125 L -0.984375 -2.78125 L -2.015625 -2.65625 L -1.546875 -3.90625 L 0.125 -4.125 C 0.09375 -4.1875 0.046875 -4.242188 -0.015625 -4.296875 C -0.078125 -4.347656 -0.140625 -4.390625 -0.203125 -4.421875 C -0.285156 -4.453125 -0.367188 -4.460938 -0.453125 -4.453125 C -0.546875 -4.441406 -0.632812 -4.421875 -0.71875 -4.390625 C -0.8125 -4.359375 -0.898438 -4.332031 -0.984375 -4.3125 C -1.078125 -4.289062 -1.164062 -4.296875 -1.25 -4.328125 C -1.289062 -4.347656 -1.316406 -4.367188 -1.328125 -4.390625 C -1.335938 -4.421875 -1.335938 -4.445312 -1.328125 -4.46875 L -0.921875 -5.5625 L 1.25 -3.0625 L -0.609375 -2.84375 Z M 0.625 -1.421875 "/></g></g></g><g fill="#4f89b7" fill-opacity="1"><g transform="translate(12.690599, 27.046254)"><g/></g></g><g fill="#4f89b7" fill-opacity="1"><g transform="translate(13.133905, 26.093404)"><g><path d="M -2.390625 -1.5 L -1.671875 -2.65625 L 0 -2.546875 C -0.0195312 -2.597656 -0.0546875 -2.65625 -0.109375 -2.71875 C -0.160156 -2.789062 -0.210938 -2.84375 -0.265625 -2.875 C -0.347656 -2.925781 -0.429688 -2.953125 -0.515625 -2.953125 C -0.597656 -2.960938 -0.6875 -2.960938 -0.78125 -2.953125 C -0.882812 -2.941406 -0.976562 -2.9375 -1.0625 -2.9375 C -1.15625 -2.945312 -1.238281 -2.972656 -1.3125 -3.015625 C -1.34375 -3.035156 -1.359375 -3.054688 -1.359375 -3.078125 C -1.367188 -3.097656 -1.367188 -3.117188 -1.359375 -3.140625 L -0.734375 -4.140625 L 0.828125 -1.390625 C 0.898438 -1.347656 0.984375 -1.328125 1.078125 -1.328125 C 1.179688 -1.335938 1.273438 -1.351562 1.359375 -1.375 C 1.453125 -1.394531 1.535156 -1.425781 1.609375 -1.46875 C 1.691406 -1.519531 1.75 -1.566406 1.78125 -1.609375 L 2.1875 -0.625 C 2.125 -0.550781 2.039062 -0.488281 1.9375 -0.4375 C 1.832031 -0.382812 1.722656 -0.359375 1.609375 -0.359375 C 1.492188 -0.359375 1.382812 -0.390625 1.28125 -0.453125 C 1.1875 -0.515625 1.113281 -0.582031 1.0625 -0.65625 C 1.019531 -0.726562 0.984375 -0.800781 0.953125 -0.875 C 0.929688 -0.957031 0.90625 -1.03125 0.875 -1.09375 C 0.851562 -1.164062 0.832031 -1.234375 0.8125 -1.296875 Z M -2.390625 -1.5 "/></g></g></g><g fill="#4f89b7" fill-opacity="1"><g transform="translate(14.710675, 23.568233)"><g><path d="M -1.0625 -0.9375 C -1.289062 -1.125 -1.453125 -1.332031 -1.546875 -1.5625 C -1.648438 -1.800781 -1.679688 -2.046875 -1.640625 -2.296875 C -1.609375 -2.546875 -1.503906 -2.78125 -1.328125 -3 C -1.140625 -3.226562 -0.925781 -3.382812 -0.6875 -3.46875 C -0.457031 -3.5625 -0.21875 -3.585938 0.03125 -3.546875 C 0.28125 -3.503906 0.519531 -3.390625 0.75 -3.203125 C 0.988281 -3.015625 1.15625 -2.800781 1.25 -2.5625 C 1.34375 -2.320312 1.367188 -2.078125 1.328125 -1.828125 C 1.296875 -1.585938 1.1875 -1.351562 1 -1.125 C 0.820312 -0.90625 0.613281 -0.75 0.375 -0.65625 C 0.144531 -0.5625 -0.0859375 -0.535156 -0.328125 -0.578125 C -0.578125 -0.628906 -0.820312 -0.75 -1.0625 -0.9375 Z M -1.21875 -2.921875 C -1.25 -2.890625 -1.253906 -2.847656 -1.234375 -2.796875 C -1.210938 -2.742188 -1.144531 -2.671875 -1.03125 -2.578125 C -1.019531 -2.578125 -0.988281 -2.554688 -0.9375 -2.515625 C -0.882812 -2.472656 -0.820312 -2.421875 -0.75 -2.359375 C -0.675781 -2.296875 -0.601562 -2.234375 -0.53125 -2.171875 C -0.457031 -2.117188 -0.394531 -2.070312 -0.34375 -2.03125 C -0.289062 -1.988281 -0.257812 -1.960938 -0.25 -1.953125 C -0.226562 -1.941406 -0.191406 -1.914062 -0.140625 -1.875 C -0.0859375 -1.832031 -0.0234375 -1.78125 0.046875 -1.71875 C 0.117188 -1.65625 0.191406 -1.59375 0.265625 -1.53125 C 0.335938 -1.476562 0.398438 -1.429688 0.453125 -1.390625 C 0.503906 -1.347656 0.535156 -1.320312 0.546875 -1.3125 C 0.648438 -1.226562 0.726562 -1.179688 0.78125 -1.171875 C 0.84375 -1.160156 0.890625 -1.171875 0.921875 -1.203125 C 0.941406 -1.242188 0.941406 -1.289062 0.921875 -1.34375 C 0.898438 -1.394531 0.835938 -1.460938 0.734375 -1.546875 C 0.722656 -1.554688 0.691406 -1.582031 0.640625 -1.625 C 0.585938 -1.664062 0.523438 -1.710938 0.453125 -1.765625 C 0.378906 -1.828125 0.304688 -1.890625 0.234375 -1.953125 C 0.160156 -2.015625 0.0976562 -2.066406 0.046875 -2.109375 C -0.00390625 -2.148438 -0.0390625 -2.175781 -0.0625 -2.1875 C -0.0703125 -2.195312 -0.101562 -2.222656 -0.15625 -2.265625 C -0.207031 -2.304688 -0.269531 -2.351562 -0.34375 -2.40625 C -0.414062 -2.46875 -0.488281 -2.53125 -0.5625 -2.59375 C -0.632812 -2.65625 -0.695312 -2.707031 -0.75 -2.75 C -0.800781 -2.789062 -0.832031 -2.8125 -0.84375 -2.8125 C -0.957031 -2.90625 -1.039062 -2.957031 -1.09375 -2.96875 C -1.15625 -2.976562 -1.195312 -2.960938 -1.21875 -2.921875 Z M -1.21875 -2.921875 "/></g></g></g><g fill="#4f89b7" fill-opacity="1"><g transform="translate(16.510515, 21.311134)"><g><path d="M -1.890625 -2.109375 L -0.90625 -3.0625 L 0.59375 -1.515625 C 0.675781 -1.429688 0.742188 -1.367188 0.796875 -1.328125 C 0.859375 -1.296875 0.914062 -1.304688 0.96875 -1.359375 C 1.007812 -1.398438 1.023438 -1.441406 1.015625 -1.484375 C 1.015625 -1.523438 0.992188 -1.566406 0.953125 -1.609375 C 0.910156 -1.648438 0.867188 -1.691406 0.828125 -1.734375 L -0.671875 -3.28125 L 0.3125 -4.234375 L 2.28125 -2.203125 L 1.296875 -1.25 L 1.171875 -1.375 C 1.160156 -1.257812 1.125 -1.140625 1.0625 -1.015625 C 1 -0.890625 0.90625 -0.765625 0.78125 -0.640625 C 0.65625 -0.523438 0.535156 -0.445312 0.421875 -0.40625 C 0.304688 -0.375 0.191406 -0.363281 0.078125 -0.375 C -0.0351562 -0.382812 -0.140625 -0.414062 -0.234375 -0.46875 C -0.328125 -0.519531 -0.410156 -0.582031 -0.484375 -0.65625 Z M -1.890625 -2.109375 "/></g></g></g><g fill="#4f89b7" fill-opacity="1"><g transform="translate(18.780103, 19.119651)"><g><path d="M 0.09375 -0.0625 L -1.625 -2.3125 L -0.53125 -3.15625 L 0.046875 -2.40625 C -0.0351562 -2.507812 -0.0976562 -2.617188 -0.140625 -2.734375 C -0.179688 -2.847656 -0.191406 -2.96875 -0.171875 -3.09375 C -0.160156 -3.21875 -0.132812 -3.335938 -0.09375 -3.453125 C -0.0507812 -3.578125 0.03125 -3.679688 0.15625 -3.765625 C 0.226562 -3.828125 0.304688 -3.863281 0.390625 -3.875 C 0.484375 -3.894531 0.5625 -3.894531 0.625 -3.875 L 1.265625 -2.1875 L 1.234375 -2.15625 C 1.171875 -2.238281 1.097656 -2.316406 1.015625 -2.390625 C 0.929688 -2.460938 0.835938 -2.519531 0.734375 -2.5625 C 0.640625 -2.601562 0.550781 -2.625 0.46875 -2.625 C 0.382812 -2.625 0.304688 -2.597656 0.234375 -2.546875 C 0.171875 -2.492188 0.132812 -2.441406 0.125 -2.390625 C 0.125 -2.335938 0.140625 -2.289062 0.171875 -2.25 L 1.1875 -0.90625 Z M 0.09375 -0.0625 "/></g></g></g><g fill="#4f89b7" fill-opacity="1"><g transform="translate(20.985789, 17.476796)"><g/></g></g><g fill="#4f89b7" fill-opacity="1"><g transform="translate(21.837829, 16.866825)"><g><path d="M -0.515625 -1.125 C -0.566406 -1.21875 -0.597656 -1.328125 -0.609375 -1.453125 C -0.617188 -1.578125 -0.601562 -1.695312 -0.5625 -1.8125 C -0.53125 -1.9375 -0.472656 -2.046875 -0.390625 -2.140625 C -0.597656 -2.171875 -0.785156 -2.238281 -0.953125 -2.34375 C -1.117188 -2.445312 -1.253906 -2.597656 -1.359375 -2.796875 C -1.398438 -2.859375 -1.425781 -2.929688 -1.4375 -3.015625 C -1.445312 -3.109375 -1.445312 -3.191406 -1.4375 -3.265625 C -1.4375 -3.347656 -1.421875 -3.421875 -1.390625 -3.484375 C -1.367188 -3.554688 -1.332031 -3.601562 -1.28125 -3.625 L 0.90625 -4.78125 C 0.945312 -4.75 0.984375 -4.71875 1.015625 -4.6875 C 1.046875 -4.65625 1.070312 -4.617188 1.09375 -4.578125 C 1.132812 -4.492188 1.15625 -4.40625 1.15625 -4.3125 C 1.15625 -4.226562 1.132812 -4.144531 1.09375 -4.0625 C 1.0625 -3.988281 1.019531 -3.921875 0.96875 -3.859375 C 0.914062 -3.804688 0.859375 -3.765625 0.796875 -3.734375 C 0.671875 -3.671875 0.535156 -3.625 0.390625 -3.59375 C 0.253906 -3.570312 0.113281 -3.5625 -0.03125 -3.5625 C -0.175781 -3.570312 -0.316406 -3.578125 -0.453125 -3.578125 C -0.597656 -3.585938 -0.726562 -3.585938 -0.84375 -3.578125 C -0.96875 -3.578125 -1.078125 -3.550781 -1.171875 -3.5 C -1.191406 -3.488281 -1.203125 -3.460938 -1.203125 -3.421875 C -1.203125 -3.390625 -1.195312 -3.363281 -1.1875 -3.34375 C -1.15625 -3.269531 -1.085938 -3.222656 -0.984375 -3.203125 C -0.890625 -3.179688 -0.769531 -3.171875 -0.625 -3.171875 C -0.476562 -3.179688 -0.320312 -3.203125 -0.15625 -3.234375 C 0 -3.265625 0.164062 -3.289062 0.34375 -3.3125 C 0.53125 -3.34375 0.71875 -3.351562 0.90625 -3.34375 C 1.09375 -3.34375 1.269531 -3.320312 1.4375 -3.28125 C 1.601562 -3.25 1.753906 -3.175781 1.890625 -3.0625 C 2.035156 -2.957031 2.15625 -2.8125 2.25 -2.625 C 2.375 -2.394531 2.429688 -2.164062 2.421875 -1.9375 C 2.421875 -1.707031 2.34375 -1.488281 2.1875 -1.28125 C 2.039062 -1.070312 1.8125 -0.882812 1.5 -0.71875 C 1.320312 -0.625 1.132812 -0.550781 0.9375 -0.5 C 0.738281 -0.457031 0.546875 -0.453125 0.359375 -0.484375 C 0.179688 -0.515625 0.0195312 -0.578125 -0.125 -0.671875 C -0.28125 -0.773438 -0.410156 -0.925781 -0.515625 -1.125 Z M 2.15625 -1.78125 C 2.101562 -1.875 2.015625 -1.941406 1.890625 -1.984375 C 1.773438 -2.035156 1.632812 -2.0625 1.46875 -2.0625 C 1.300781 -2.0625 1.125 -2.054688 0.9375 -2.046875 C 0.75 -2.046875 0.550781 -2.046875 0.34375 -2.046875 C 0.144531 -2.054688 -0.0546875 -2.078125 -0.265625 -2.109375 C -0.222656 -2.035156 -0.15625 -1.957031 -0.0625 -1.875 C 0.03125 -1.789062 0.144531 -1.707031 0.28125 -1.625 C 0.414062 -1.550781 0.550781 -1.484375 0.6875 -1.421875 C 0.820312 -1.359375 0.96875 -1.304688 1.125 -1.265625 C 1.289062 -1.234375 1.441406 -1.222656 1.578125 -1.234375 C 1.722656 -1.242188 1.847656 -1.28125 1.953125 -1.34375 C 2.054688 -1.394531 2.125 -1.460938 2.15625 -1.546875 C 2.195312 -1.628906 2.195312 -1.707031 2.15625 -1.78125 Z M 2.15625 -1.78125 "/></g></g></g><g fill="#4f89b7" fill-opacity="1"><g transform="translate(24.618314, 15.390948)"><g><path d="M -0.453125 -1.34375 C -0.554688 -1.613281 -0.59375 -1.875 -0.5625 -2.125 C -0.53125 -2.382812 -0.4375 -2.613281 -0.28125 -2.8125 C -0.125 -3.007812 0.0859375 -3.15625 0.359375 -3.25 C 0.628906 -3.351562 0.890625 -3.382812 1.140625 -3.34375 C 1.390625 -3.300781 1.609375 -3.195312 1.796875 -3.03125 C 1.992188 -2.875 2.144531 -2.660156 2.25 -2.390625 C 2.363281 -2.109375 2.398438 -1.835938 2.359375 -1.578125 C 2.328125 -1.328125 2.234375 -1.101562 2.078125 -0.90625 C 1.921875 -0.707031 1.707031 -0.554688 1.4375 -0.453125 C 1.164062 -0.359375 0.90625 -0.332031 0.65625 -0.375 C 0.40625 -0.414062 0.1875 -0.515625 0 -0.671875 C -0.1875 -0.835938 -0.335938 -1.0625 -0.453125 -1.34375 Z M 0.421875 -3.140625 C 0.378906 -3.117188 0.351562 -3.082031 0.34375 -3.03125 C 0.332031 -2.976562 0.351562 -2.882812 0.40625 -2.75 C 0.40625 -2.738281 0.414062 -2.703125 0.4375 -2.640625 C 0.46875 -2.578125 0.5 -2.5 0.53125 -2.40625 C 0.5625 -2.320312 0.59375 -2.234375 0.625 -2.140625 C 0.65625 -2.054688 0.679688 -1.984375 0.703125 -1.921875 C 0.734375 -1.859375 0.75 -1.820312 0.75 -1.8125 C 0.757812 -1.789062 0.773438 -1.75 0.796875 -1.6875 C 0.828125 -1.625 0.859375 -1.546875 0.890625 -1.453125 C 0.921875 -1.367188 0.953125 -1.28125 0.984375 -1.1875 C 1.023438 -1.101562 1.054688 -1.03125 1.078125 -0.96875 C 1.097656 -0.90625 1.113281 -0.867188 1.125 -0.859375 C 1.164062 -0.734375 1.210938 -0.648438 1.265625 -0.609375 C 1.316406 -0.578125 1.363281 -0.570312 1.40625 -0.59375 C 1.4375 -0.601562 1.453125 -0.632812 1.453125 -0.6875 C 1.460938 -0.75 1.445312 -0.84375 1.40625 -0.96875 C 1.394531 -0.976562 1.378906 -1.015625 1.359375 -1.078125 C 1.335938 -1.140625 1.304688 -1.210938 1.265625 -1.296875 C 1.234375 -1.390625 1.203125 -1.476562 1.171875 -1.5625 C 1.140625 -1.65625 1.109375 -1.734375 1.078125 -1.796875 C 1.054688 -1.859375 1.039062 -1.898438 1.03125 -1.921875 C 1.03125 -1.929688 1.015625 -1.96875 0.984375 -2.03125 C 0.960938 -2.09375 0.9375 -2.164062 0.90625 -2.25 C 0.875 -2.34375 0.84375 -2.429688 0.8125 -2.515625 C 0.78125 -2.609375 0.75 -2.6875 0.71875 -2.75 C 0.695312 -2.8125 0.6875 -2.847656 0.6875 -2.859375 C 0.632812 -2.992188 0.582031 -3.078125 0.53125 -3.109375 C 0.488281 -3.140625 0.453125 -3.148438 0.421875 -3.140625 Z M 0.421875 -3.140625 "/></g></g></g><g fill="#4f89b7" fill-opacity="1"><g transform="translate(27.322109, 14.354699)"><g><path d="M 1.578125 -0.328125 C 1.347656 -0.265625 1.132812 -0.242188 0.9375 -0.265625 C 0.75 -0.296875 0.566406 -0.359375 0.390625 -0.453125 C 0.210938 -0.546875 0.0703125 -0.671875 -0.03125 -0.828125 C -0.144531 -0.984375 -0.234375 -1.171875 -0.296875 -1.390625 C -0.367188 -1.671875 -0.375 -1.9375 -0.3125 -2.1875 C -0.257812 -2.4375 -0.140625 -2.648438 0.046875 -2.828125 C 0.234375 -3.003906 0.472656 -3.128906 0.765625 -3.203125 C 0.921875 -3.242188 1.082031 -3.269531 1.25 -3.28125 C 1.414062 -3.289062 1.566406 -3.28125 1.703125 -3.25 C 1.835938 -3.21875 1.941406 -3.175781 2.015625 -3.125 L 1.6875 -1.359375 L 1.625 -1.359375 C 1.601562 -1.453125 1.570312 -1.5625 1.53125 -1.6875 C 1.5 -1.8125 1.457031 -1.9375 1.40625 -2.0625 C 1.351562 -2.195312 1.296875 -2.320312 1.234375 -2.4375 C 1.179688 -2.5625 1.125 -2.671875 1.0625 -2.765625 C 1 -2.867188 0.929688 -2.941406 0.859375 -2.984375 C 0.796875 -3.023438 0.734375 -3.039062 0.671875 -3.03125 C 0.609375 -3.007812 0.5625 -2.960938 0.53125 -2.890625 C 0.507812 -2.828125 0.5 -2.738281 0.5 -2.625 C 0.507812 -2.507812 0.53125 -2.398438 0.5625 -2.296875 C 0.601562 -2.097656 0.664062 -1.914062 0.75 -1.75 C 0.84375 -1.59375 0.945312 -1.457031 1.0625 -1.34375 C 1.175781 -1.238281 1.300781 -1.164062 1.4375 -1.125 C 1.570312 -1.09375 1.707031 -1.09375 1.84375 -1.125 C 1.925781 -1.144531 2 -1.179688 2.0625 -1.234375 C 2.132812 -1.285156 2.191406 -1.34375 2.234375 -1.40625 C 2.285156 -1.476562 2.304688 -1.546875 2.296875 -1.609375 C 2.359375 -1.609375 2.40625 -1.570312 2.4375 -1.5 C 2.476562 -1.4375 2.5 -1.347656 2.5 -1.234375 C 2.507812 -1.117188 2.484375 -1.003906 2.421875 -0.890625 C 2.359375 -0.785156 2.257812 -0.679688 2.125 -0.578125 C 1.988281 -0.472656 1.804688 -0.390625 1.578125 -0.328125 Z M 1.578125 -0.328125 "/></g></g></g><g fill="#4f89b7" fill-opacity="1"><g transform="translate(29.943208, 13.69859)"><g><path d="M -0.3125 -2.828125 L 1.03125 -3.046875 L 1.5 -0.25 L 0.15625 -0.03125 Z M -0.46875 -3.453125 C -0.488281 -3.597656 -0.472656 -3.707031 -0.421875 -3.78125 C -0.367188 -3.863281 -0.289062 -3.921875 -0.1875 -3.953125 C -0.09375 -3.992188 0.0234375 -4.023438 0.171875 -4.046875 C 0.316406 -4.066406 0.445312 -4.078125 0.5625 -4.078125 C 0.675781 -4.085938 0.765625 -4.0625 0.828125 -4 C 0.898438 -3.945312 0.945312 -3.847656 0.96875 -3.703125 C 0.988281 -3.585938 0.984375 -3.492188 0.953125 -3.421875 C 0.929688 -3.347656 0.890625 -3.289062 0.828125 -3.25 C 0.773438 -3.207031 0.703125 -3.175781 0.609375 -3.15625 C 0.523438 -3.144531 0.429688 -3.128906 0.328125 -3.109375 C 0.222656 -3.085938 0.128906 -3.070312 0.046875 -3.0625 C -0.0351562 -3.050781 -0.113281 -3.054688 -0.1875 -3.078125 C -0.257812 -3.097656 -0.316406 -3.132812 -0.359375 -3.1875 C -0.410156 -3.25 -0.445312 -3.335938 -0.46875 -3.453125 Z M -0.46875 -3.453125 "/></g></g></g><g fill="#4f89b7" fill-opacity="1"><g transform="translate(31.497422, 13.40076)"><g><path d="M -0.046875 -1.40625 C -0.0546875 -1.675781 -0.0351562 -1.90625 0.015625 -2.09375 C 0.078125 -2.28125 0.164062 -2.429688 0.28125 -2.546875 C 0.394531 -2.671875 0.53125 -2.757812 0.6875 -2.8125 C 0.851562 -2.875 1.023438 -2.914062 1.203125 -2.9375 L 2.75 -3.046875 L 2.90625 -0.9375 C 2.90625 -0.832031 2.921875 -0.726562 2.953125 -0.625 C 2.992188 -0.519531 3.046875 -0.441406 3.109375 -0.390625 C 3.066406 -0.316406 3 -0.253906 2.90625 -0.203125 C 2.8125 -0.148438 2.703125 -0.117188 2.578125 -0.109375 C 2.421875 -0.0976562 2.289062 -0.109375 2.1875 -0.140625 C 2.082031 -0.171875 1.984375 -0.21875 1.890625 -0.28125 C 1.847656 -0.207031 1.789062 -0.148438 1.71875 -0.109375 C 1.644531 -0.078125 1.578125 -0.0546875 1.515625 -0.046875 C 1.453125 -0.0351562 1.414062 -0.03125 1.40625 -0.03125 C 1.21875 -0.0078125 1.039062 -0.0195312 0.875 -0.0625 C 0.71875 -0.113281 0.570312 -0.191406 0.4375 -0.296875 C 0.300781 -0.398438 0.191406 -0.546875 0.109375 -0.734375 C 0.0234375 -0.921875 -0.0234375 -1.144531 -0.046875 -1.40625 Z M 1.34375 -0.828125 C 1.34375 -0.722656 1.347656 -0.617188 1.359375 -0.515625 C 1.367188 -0.421875 1.382812 -0.335938 1.40625 -0.265625 C 1.4375 -0.203125 1.476562 -0.171875 1.53125 -0.171875 C 1.582031 -0.179688 1.613281 -0.207031 1.625 -0.25 C 1.632812 -0.289062 1.640625 -0.34375 1.640625 -0.40625 C 1.640625 -0.46875 1.640625 -0.523438 1.640625 -0.578125 L 1.484375 -2.78125 C 1.441406 -2.8125 1.40625 -2.820312 1.375 -2.8125 C 1.289062 -2.8125 1.242188 -2.765625 1.234375 -2.671875 C 1.222656 -2.585938 1.222656 -2.445312 1.234375 -2.25 Z M 1.34375 -0.828125 "/></g></g></g><g fill="#4f89b7" fill-opacity="1"><g transform="translate(34.475071, 13.212653)"><g><path d="M 0.171875 -3.796875 L 1.484375 -3.78125 L 1.4375 -0.703125 C 1.4375 -0.597656 1.445312 -0.488281 1.46875 -0.375 C 1.488281 -0.269531 1.53125 -0.1875 1.59375 -0.125 C 1.53125 -0.0625 1.453125 -0.0078125 1.359375 0.03125 C 1.265625 0.0703125 1.15625 0.09375 1.03125 0.09375 C 0.726562 0.09375 0.5 0.00390625 0.34375 -0.171875 C 0.1875 -0.347656 0.113281 -0.609375 0.125 -0.953125 Z M 0.171875 -3.796875 "/></g></g></g><g clip-path="url(#98c86a118e)"><path fill="#4f89b7" d="M 51 17.097656 C 50.789062 17.039062 50.617188 16.988281 50.449219 16.9375 C 49.734375 16.726562 49.46875 16.449219 49.449219 15.714844 C 49.40625 14.214844 49.382812 12.714844 49.394531 11.21875 C 49.402344 10.378906 50.089844 9.832031 51.121094 9.78125 C 51.679688 9.738281 52.238281 9.734375 52.796875 9.757812 C 53.328125 9.796875 53.4375 9.570312 53.402344 9.101562 C 53.34375 8.292969 53.300781 7.480469 53.292969 6.667969 C 53.28125 5.558594 53.828125 4.996094 54.941406 4.976562 C 56.453125 4.957031 57.96875 4.976562 59.480469 4.972656 C 60.164062 4.96875 60.847656 4.898438 61.535156 4.929688 C 62.632812 4.972656 63.136719 5.417969 63.167969 6.523438 C 63.214844 8.289062 63.164062 10.0625 63.144531 11.828125 C 63.140625 12.152344 63.121094 12.476562 63.082031 12.796875 C 62.949219 13.921875 62.402344 14.382812 61.273438 14.339844 C 61.128906 14.332031 60.992188 14.339844 60.761719 14.339844 C 60.898438 14.855469 61.058594 15.328125 61.132812 15.8125 C 61.132812 16.066406 61.09375 16.316406 61.015625 16.554688 C 60.742188 16.488281 60.410156 16.492188 60.199219 16.339844 C 59.519531 15.839844 58.882812 15.273438 58.226562 14.742188 C 58.09375 14.660156 57.953125 14.59375 57.808594 14.542969 C 57.808594 15.054688 57.824219 15.480469 57.804688 15.90625 C 57.777344 16.640625 57.324219 17.058594 56.597656 17.070312 C 55.878906 17.082031 55.15625 17.097656 54.4375 17.144531 C 54.253906 17.175781 54.078125 17.257812 53.9375 17.382812 C 53.257812 17.972656 52.609375 18.605469 51.894531 19.148438 C 51.648438 19.339844 51.246094 19.328125 50.914062 19.40625 C 50.808594 19.105469 50.746094 18.785156 50.722656 18.464844 C 50.78125 18.003906 50.875 17.546875 51 17.097656 Z M 59.984375 15.085938 C 59.792969 13.488281 59.871094 13.402344 61.292969 13.460938 C 61.953125 13.484375 62.164062 13.332031 62.210938 12.6875 C 62.269531 11.859375 62.300781 11.03125 62.3125 10.199219 C 62.332031 8.976562 62.335938 7.75 62.320312 6.519531 C 62.3125 6.003906 62.042969 5.75 61.492188 5.757812 C 60.160156 5.773438 58.828125 5.75 57.492188 5.753906 C 56.699219 5.757812 55.902344 5.75 55.113281 5.796875 C 54.269531 5.847656 54.09375 6.046875 54.125 6.917969 C 54.160156 8 54.230469 9.082031 54.304688 10.160156 C 54.371094 11.152344 54.445312 12.140625 54.554688 13.125 C 54.570312 13.296875 54.75 13.582031 54.871094 13.589844 C 55.820312 13.667969 56.777344 13.667969 57.726562 13.742188 C 58.074219 13.753906 58.410156 13.851562 58.707031 14.019531 C 59.15625 14.34375 59.582031 14.703125 59.984375 15.085938 Z M 53.410156 10.515625 C 52.589844 10.558594 51.78125 10.574219 50.976562 10.644531 C 50.457031 10.691406 50.1875 10.988281 50.210938 11.554688 C 50.261719 12.90625 50.273438 14.257812 50.339844 15.609375 C 50.398438 15.8125 50.539062 15.984375 50.726562 16.082031 C 50.925781 16.15625 51.140625 16.191406 51.359375 16.183594 C 51.972656 16.234375 52.148438 16.488281 51.96875 17.085938 C 51.871094 17.425781 51.769531 17.765625 51.671875 18.101562 C 52.226562 17.734375 52.75 17.3125 53.230469 16.847656 C 53.554688 16.5 54.011719 16.316406 54.480469 16.34375 C 54.960938 16.378906 55.453125 16.238281 55.933594 16.273438 C 57.234375 16.371094 57.023438 15.941406 56.964844 14.980469 C 56.9375 14.8125 56.898438 14.648438 56.84375 14.484375 C 56.277344 14.484375 55.71875 14.496094 55.164062 14.480469 C 54.078125 14.460938 53.804688 14.222656 53.667969 13.132812 C 53.554688 12.289062 53.492188 11.429688 53.410156 10.515625 Z M 58.746094 11.363281 C 58.882812 11.464844 59.0625 11.496094 59.226562 11.441406 C 59.363281 11.3125 59.449219 11.140625 59.46875 10.953125 C 59.476562 10.808594 59.441406 10.664062 59.371094 10.539062 C 59.175781 10.128906 59.269531 9.847656 59.652344 9.578125 C 59.828125 9.417969 59.914062 9.1875 59.898438 8.949219 C 59.875 8.828125 59.535156 8.675781 59.34375 8.6875 C 58.921875 8.703125 58.734375 8.570312 58.660156 8.144531 C 58.628906 7.945312 58.390625 7.789062 58.242188 7.609375 C 58.082031 7.753906 57.828125 7.867188 57.78125 8.039062 C 57.699219 8.476562 57.292969 8.773438 56.855469 8.722656 C 56.652344 8.726562 56.292969 8.925781 56.28125 9.066406 C 56.28125 9.320312 56.402344 9.558594 56.609375 9.707031 C 57.058594 9.957031 57.050781 10.246094 56.855469 10.632812 C 56.804688 10.707031 56.777344 10.796875 56.777344 10.890625 C 56.808594 11.085938 56.816406 11.367188 56.941406 11.453125 C 57.128906 11.535156 57.34375 11.523438 57.527344 11.425781 C 57.800781 11.226562 58.050781 10.992188 58.28125 10.742188 C 58.410156 10.957031 58.570312 11.167969 58.746094 11.363281 Z M 58.746094 11.363281 " fill-opacity="1" fill-rule="nonzero"/></g></svg>